Pathway Gothic One.otf.ufo
<glyph name="exclam" format="1">
  <advance width="200"/>
  <unicode hex="0021"/>
  <outline>
    <contour>
      <point x="73" y="167" type="line" name="hr00"/>
      <point x="129" y="167" type="line"/>
      <point x="144" y="700" type="line"/>
      <point x="56" y="700" type="line"/>
    </contour>
    <contour>
      <point x="61" y="0" type="line"/>
      <point x="140" y="0" type="line"/>
      <point x="140" y="92" type="line"/>
      <point x="61" y="92" type="line"/>
    </contour>
  </outline>
</glyph>
<glyph name="quotedbl" format="1">
  <advance width="301"/>
  <unicode hex="0022"/>
  <outline>
    <contour>
      <point x="62" y="496" type="line" name="hr00"/>
      <point x="115" y="496" type="line"/>
      <point x="129" y="740" type="line"/>
      <point x="48" y="740" type="line"/>
    </contour>
    <contour>
      <point x="187" y="496" type="line"/>
      <point x="238" y="496" type="line"/>
      <point x="253" y="740" type="line"/>
      <point x="172" y="740" type="line"/>
    </contour>
  </outline>
</glyph>
<glyph name="numbersign" format="1">
  <advance width="489"/>
  <unicode hex="0023"/>
  <outline>
    <contour>
      <point x="249" y="-15" type="line" name="hr00"/>
      <point x="312" y="-15" type="line"/>
      <point x="346" y="211" type="line"/>
      <point x="417" y="211" type="line"/>
      <point x="430" y="273" type="line"/>
      <point x="356" y="273" type="line"/>
      <point x="379" y="427" type="line"/>
      <point x="449" y="427" type="line"/>
      <point x="462" y="489" type="line"/>
      <point x="389" y="489" type="line"/>
      <point x="424" y="715" type="line"/>
      <point x="361" y="715" type="line"/>
      <point x="326" y="489" type="line"/>
      <point x="204" y="489" type="line"/>
      <point x="238" y="715" type="line"/>
      <point x="177" y="715" type="line"/>
      <point x="142" y="489" type="line"/>
      <point x="69" y="489" type="line"/>
      <point x="58" y="427" type="line"/>
      <point x="132" y="427" type="line"/>
      <point x="109" y="273" type="line"/>
      <point x="40" y="273" type="line"/>
      <point x="27" y="211" type="line"/>
      <point x="99" y="211" type="line"/>
      <point x="65" y="-15" type="line"/>
      <point x="127" y="-15" type="line"/>
      <point x="161" y="211" type="line"/>
      <point x="283" y="211" type="line"/>
    </contour>
    <contour>
      <point x="194" y="427" type="line"/>
      <point x="316" y="427" type="line"/>
      <point x="293" y="273" type="line"/>
      <point x="171" y="273" type="line"/>
    </contour>
  </outline>
</glyph>
<glyph name="dollar" format="1">
  <advance width="384"/>
  <unicode hex="0024"/>
  <outline>
    <contour>
      <point x="172" y="-112" type="line"/>
      <point x="225" y="-112" type="line"/>
      <point x="225" y="11" type="line"/>
      <point x="304" y="21" smooth="yes"/>
      <point x="343" y="75" smooth="yes"/>
      <point x="343" y="173" type="curve" smooth="yes"/>
      <point x="343" y="251" smooth="yes"/>
      <point x="319" y="300" smooth="yes"/>
      <point x="254" y="349" type="curve" smooth="yes"/>
      <point x="178" y="407" type="line" smooth="yes"/>
      <point x="142" y="435" smooth="yes"/>
      <point x="131" y="464" smooth="yes"/>
      <point x="131" y="525" type="curve" smooth="yes"/>
      <point x="131" y="590" smooth="yes"/>
      <point x="153" y="623" smooth="yes"/>
      <point x="196" y="623" type="curve" smooth="yes"/>
      <point x="241" y="623"/>
      <point x="264" y="585"/>
      <point x="266" y="505" type="curve"/>
      <point x="342" y="523" type="line"/>
      <point x="331" y="627"/>
      <point x="294" y="678"/>
      <point x="225" y="688" type="curve"/>
      <point x="225" y="812" type="line"/>
      <point x="172" y="812" type="line"/>
      <point x="172" y="689" type="line"/>
      <point x="92" y="679" smooth="yes"/>
      <point x="54" y="624" smooth="yes"/>
      <point x="54" y="515" type="curve" smooth="yes"/>
      <point x="54" y="435" smooth="yes"/>
      <point x="79" y="383" smooth="yes"/>
      <point x="139" y="338" type="curve" smooth="yes"/>
      <point x="214" y="282" type="line" smooth="yes"/>
      <point x="251" y="254" smooth="yes"/>
      <point x="267" y="220" smooth="yes"/>
      <point x="267" y="170" type="curve" smooth="yes"/>
      <point x="267" y="108" smooth="yes"/>
      <point x="241" y="74" smooth="yes"/>
      <point x="193" y="74" type="curve" smooth="yes"/>
      <point x="145" y="74"/>
      <point x="120" y="120"/>
      <point x="116" y="218" type="curve" name="hr01"/>
      <point x="42" y="205" type="line"/>
      <point x="52" y="79"/>
      <point x="93" y="18"/>
      <point x="172" y="10" type="curve"/>
    </contour>
  </outline>
</glyph>
<glyph name="ampersand" format="1">
  <advance width="421"/>
  <unicode hex="0026"/>
  <outline>
    <contour>
      <point x="162" y="-15" type="curve"/>
      <point x="221" y="-15"/>
      <point x="263" y="7"/>
      <point x="294" y="53" type="curve"/>
      <point x="323" y="0" type="line"/>
      <point x="409" y="0" type="line" name="hr01"/>
      <point x="332" y="141" type="line"/>
      <point x="347" y="194"/>
      <point x="357" y="265"/>
      <point x="365" y="365" type="curve"/>
      <point x="299" y="365" type="line"/>
      <point x="296" y="315"/>
      <point x="291" y="269"/>
      <point x="285" y="226" type="curve"/>
      <point x="192" y="398" type="line" smooth="yes"/>
      <point x="165" y="447" smooth="yes"/>
      <point x="153" y="495" smooth="yes"/>
      <point x="153" y="547" type="curve" smooth="yes"/>
      <point x="153" y="618" smooth="yes"/>
      <point x="173" y="650" smooth="yes"/>
      <point x="216" y="650" type="curve" smooth="yes"/>
      <point x="261" y="650"/>
      <point x="279" y="616"/>
      <point x="286" y="521" type="curve"/>
      <point x="357" y="532" type="line"/>
      <point x="346" y="660" smooth="yes"/>
      <point x="304" y="715" smooth="yes"/>
      <point x="216" y="715" type="curve" smooth="yes"/>
      <point x="125" y="715" smooth="yes"/>
      <point x="77" y="657" smooth="yes"/>
      <point x="77" y="547" type="curve" smooth="yes"/>
      <point x="77" y="474"/>
      <point x="91" y="419"/>
      <point x="125" y="359" type="curve"/>
      <point x="56" y="333" smooth="yes"/>
      <point x="26" y="284" smooth="yes"/>
      <point x="26" y="196" type="curve" smooth="yes"/>
      <point x="26" y="164" type="line" smooth="yes" name="hr02"/>
      <point x="26" y="42" smooth="yes"/>
      <point x="70" y="-15" smooth="yes"/>
    </contour>
    <contour>
      <point x="174" y="50" type="curve" smooth="yes"/>
      <point x="125" y="50" smooth="yes"/>
      <point x="103" y="85" smooth="yes"/>
      <point x="103" y="163" type="curve" smooth="yes"/>
      <point x="103" y="196" type="line" smooth="yes"/>
      <point x="103" y="248"/>
      <point x="119" y="279"/>
      <point x="157" y="301" type="curve"/>
      <point x="258" y="117" type="line"/>
      <point x="239" y="72" smooth="yes"/>
      <point x="212" y="50" smooth="yes"/>
    </contour>
  </outline>
</glyph>
<glyph name="quotesingle" format="1">
  <advance width="177"/>
  <unicode hex="0027"/>
  <outline>
    <contour>
      <point x="62" y="496" type="line" name="hr00"/>
      <point x="115" y="496" type="line"/>
      <point x="129" y="740" type="line"/>
      <point x="48" y="740" type="line"/>
    </contour>
  </outline>
</glyph>
<glyph name="parenleft" format="1">
  <advance width="260"/>
  <unicode hex="0028"/>
  <outline>
    <contour>
      <point x="236" y="-105" type="curve" name="hr00"/>
      <point x="236" y="-40" type="line"/>
      <point x="148" y="-40" smooth="yes"/>
      <point x="121" y="57" smooth="yes"/>
      <point x="121" y="365" type="curve" smooth="yes"/>
      <point x="121" y="651"/>
      <point x="149" y="740"/>
      <point x="236" y="740" type="curve"/>
      <point x="236" y="805" type="line"/>
      <point x="90" y="805" smooth="yes"/>
      <point x="42" y="696" smooth="yes"/>
      <point x="42" y="365" type="curve" smooth="yes"/>
      <point x="42" y="10"/>
      <point x="90" y="-105"/>
    </contour>
  </outline>
</glyph>
<glyph name="asterisk" format="1">
  <advance width="391"/>
  <unicode hex="002A"/>
  <outline>
    <contour>
      <point x="309" y="421" type="line" name="hr00"/>
      <point x="343" y="467" type="line"/>
      <point x="241" y="565" type="line"/>
      <point x="343" y="663" type="line"/>
      <point x="309" y="710" type="line"/>
      <point x="222" y="614" type="line"/>
      <point x="226" y="772" type="line"/>
      <point x="165" y="772" type="line"/>
      <point x="168" y="614" type="line"/>
      <point x="82" y="710" type="line"/>
      <point x="48" y="663" type="line"/>
      <point x="149" y="565" type="line"/>
      <point x="48" y="467" type="line"/>
      <point x="82" y="421" type="line"/>
      <point x="168" y="515" type="line"/>
      <point x="165" y="359" type="line"/>
      <point x="226" y="359" type="line"/>
      <point x="222" y="515" type="line"/>
    </contour>
  </outline>
</glyph>
<glyph name="plus" format="1">
  <advance width="377"/>
  <unicode hex="002B"/>
  <outline>
    <contour>
      <point x="56" y="319" type="line" name="hr00"/>
      <point x="159" y="319" type="line"/>
      <point x="159" y="171" type="line"/>
      <point x="218" y="171" type="line"/>
      <point x="218" y="319" type="line"/>
      <point x="320" y="319" type="line"/>
      <point x="320" y="381" type="line"/>
      <point x="218" y="381" type="line"/>
      <point x="218" y="529" type="line"/>
      <point x="159" y="529" type="line"/>
      <point x="159" y="381" type="line"/>
      <point x="56" y="381" type="line"/>
    </contour>
  </outline>
</glyph>
<glyph name="comma" format="1">
  <advance width="163"/>
  <unicode hex="002C"/>
  <outline>
    <contour>
      <point x="42" y="0" type="line" name="hr00"/>
      <point x="64" y="0" type="line"/>
      <point x="52" y="-114" type="line"/>
      <point x="82" y="-120" type="line"/>
      <point x="121" y="4" type="line"/>
      <point x="121" y="92" type="line"/>
      <point x="42" y="92" type="line"/>
    </contour>
  </outline>
</glyph>
<glyph name="hyphen" format="1">
  <advance width="252"/>
  <unicode hex="002D"/>
  <outline>
    <contour>
      <point x="30" y="274" type="line" name="hr00"/>
      <point x="222" y="274" type="line"/>
      <point x="222" y="336" type="line"/>
      <point x="30" y="336" type="line"/>
    </contour>
  </outline>
</glyph>
<glyph name="period" format="1">
  <advance width="163"/>
  <unicode hex="002E"/>
  <outline>
    <contour>
      <point x="42" y="0" type="line" name="hr00"/>
      <point x="121" y="0" type="line"/>
      <point x="121" y="92" type="line"/>
      <point x="42" y="92" type="line"/>
    </contour>
  </outline>
</glyph>
<glyph name="slash" format="1">
  <advance width="290"/>
  <unicode hex="002F"/>
  <outline>
    <contour>
      <point x="33" y="-52" type="line" name="hr00"/>
      <point x="85" y="-52" type="line"/>
      <point x="257" y="752" type="line"/>
      <point x="205" y="752" type="line"/>
    </contour>
  </outline>
</glyph>
<glyph name="zero" format="1">
  <advance width="411"/>
  <unicode hex="0030"/>
  <outline>
    <contour>
      <point x="206" y="-15" type="curve" name="hr00"/>
      <point x="314" y="-15" smooth="yes"/>
      <point x="362" y="54" smooth="yes"/>
      <point x="362" y="209" type="curve" smooth="yes"/>
      <point x="362" y="491" type="line"/>
      <point x="362" y="646" smooth="yes"/>
      <point x="314" y="715" smooth="yes"/>
      <point x="206" y="715" type="curve" smooth="yes"/>
      <point x="97" y="715" smooth="yes"/>
      <point x="49" y="647" smooth="yes"/>
      <point x="49" y="491" type="curve" smooth="yes"/>
      <point x="49" y="209" type="line" smooth="yes"/>
      <point x="49" y="53" smooth="yes"/>
      <point x="97" y="-15" smooth="yes"/>
    </contour>
    <contour>
      <point x="206" y="50" type="curve"/>
      <point x="152" y="50" smooth="yes"/>
      <point x="128" y="95" smooth="yes"/>
      <point x="128" y="194" type="curve" smooth="yes"/>
      <point x="128" y="506" type="line" smooth="yes"/>
      <point x="128" y="605" smooth="yes"/>
      <point x="152" y="650" smooth="yes"/>
      <point x="206" y="650" type="curve" smooth="yes"/>
      <point x="258" y="650" smooth="yes"/>
      <point x="283" y="604" smooth="yes"/>
      <point x="283" y="506" type="curve" smooth="yes"/>
      <point x="283" y="194" type="line"/>
      <point x="283" y="96" smooth="yes"/>
      <point x="258" y="50" smooth="yes"/>
    </contour>
  </outline>
</glyph>
<glyph name="one" format="1">
  <advance width="235"/>
  <unicode hex="0031"/>
  <outline>
    <contour>
      <point x="172" y="700" type="line" name="hr00"/>
      <point x="128" y="700" type="line"/>
      <point x="6" y="657" type="line"/>
      <point x="6" y="611" type="line"/>
      <point x="92" y="611" type="line"/>
      <point x="92" y="0" type="line"/>
      <point x="172" y="0" type="line"/>
    </contour>
  </outline>
</glyph>
<glyph name="two" format="1">
  <advance width="400"/>
  <unicode hex="0032"/>
  <outline>
    <contour>
      <point x="51" y="0" type="line" name="hr00"/>
      <point x="350" y="0" type="line"/>
      <point x="350" y="64" type="line"/>
      <point x="110" y="64" type="line"/>
      <point x="290" y="353" type="line" smooth="yes"/>
      <point x="333" y="421" smooth="yes"/>
      <point x="352" y="482" smooth="yes"/>
      <point x="352" y="549" type="curve" smooth="yes"/>
      <point x="352" y="663" smooth="yes"/>
      <point x="305" y="715" smooth="yes"/>
      <point x="201" y="715" type="curve" smooth="yes"/>
      <point x="107" y="715"/>
      <point x="63" y="661"/>
      <point x="52" y="532" type="curve"/>
      <point x="122" y="521" type="line"/>
      <point x="129" y="616" smooth="yes"/>
      <point x="152" y="653" smooth="yes"/>
      <point x="201" y="653" type="curve" smooth="yes"/>
      <point x="250" y="653" smooth="yes"/>
      <point x="273" y="620" smooth="yes"/>
      <point x="273" y="549" type="curve" smooth="yes"/>
      <point x="273" y="494" smooth="yes"/>
      <point x="253" y="445" smooth="yes"/>
      <point x="224" y="399" type="curve" smooth="yes"/>
      <point x="141" y="269" type="line" smooth="yes"/>
      <point x="64" y="148" smooth="yes"/>
      <point x="51" y="115" smooth="yes"/>
      <point x="51" y="48" type="curve" smooth="yes"/>
    </contour>
  </outline>
</glyph>
<glyph name="three" format="1">
  <advance width="408"/>
  <unicode hex="0033"/>
  <outline>
    <contour>
      <point x="194" y="-15" type="curve" name="hr00"/>
      <point x="306" y="-15" smooth="yes"/>
      <point x="359" y="48" smooth="yes"/>
      <point x="359" y="181" type="curve" smooth="yes"/>
      <point x="359" y="276"/>
      <point x="337" y="336"/>
      <point x="290" y="364" type="curve"/>
      <point x="329" y="391" smooth="yes"/>
      <point x="348" y="442" smooth="yes"/>
      <point x="348" y="522" type="curve" smooth="yes"/>
      <point x="348" y="656" smooth="yes"/>
      <point x="303" y="715" smooth="yes"/>
      <point x="200" y="715" type="curve" smooth="yes"/>
      <point x="105" y="715"/>
      <point x="61" y="661"/>
      <point x="50" y="532" type="curve"/>
      <point x="121" y="521" type="line"/>
      <point x="127" y="614" smooth="yes"/>
      <point x="150" y="653" smooth="yes"/>
      <point x="200" y="653" type="curve" smooth="yes"/>
      <point x="248" y="653" smooth="yes"/>
      <point x="271" y="614" smooth="yes"/>
      <point x="271" y="535" type="curve" smooth="yes"/>
      <point x="271" y="505" type="line" smooth="yes"/>
      <point x="271" y="424" smooth="yes"/>
      <point x="246" y="385" smooth="yes"/>
      <point x="196" y="385" type="curve" smooth="yes"/>
      <point x="148" y="385" type="line"/>
      <point x="148" y="323" type="line"/>
      <point x="195" y="323" type="line" smooth="yes"/>
      <point x="255" y="323" smooth="yes"/>
      <point x="279" y="285" smooth="yes"/>
      <point x="279" y="191" type="curve" smooth="yes"/>
      <point x="279" y="163" type="line" smooth="yes"/>
      <point x="279" y="87" smooth="yes"/>
      <point x="252" y="50" smooth="yes"/>
      <point x="197" y="50" type="curve" smooth="yes"/>
      <point x="147" y="50"/>
      <point x="124" y="86"/>
      <point x="118" y="178" type="curve"/>
      <point x="47" y="168" type="line"/>
      <point x="57" y="41" smooth="yes"/>
      <point x="101" y="-15" smooth="yes"/>
    </contour>
  </outline>
</glyph>
<glyph name="four" format="1">
  <advance width="379"/>
  <unicode hex="0034"/>
  <outline>
    <contour>
      <point x="231" y="0" type="line" name="hr00"/>
      <point x="310" y="0" type="line"/>
      <point x="310" y="164" type="line"/>
      <point x="351" y="164" type="line"/>
      <point x="351" y="228" type="line"/>
      <point x="310" y="228" type="line"/>
      <point x="310" y="700" type="line"/>
      <point x="175" y="700" type="line"/>
      <point x="7" y="202" type="line"/>
      <point x="7" y="164" type="line"/>
      <point x="231" y="164" type="line"/>
    </contour>
    <contour>
      <point x="89" y="228" type="line"/>
      <point x="231" y="644" type="line"/>
      <point x="231" y="228" type="line"/>
    </contour>
  </outline>
</glyph>
<glyph name="five" format="1">
  <advance width="378"/>
  <unicode hex="0035"/>
  <outline>
    <contour>
      <point x="187" y="-15" type="curve" name="hr00"/>
      <point x="295" y="-15" smooth="yes"/>
      <point x="343" y="52" smooth="yes"/>
      <point x="343" y="204" type="curve" smooth="yes"/>
      <point x="343" y="339" smooth="yes"/>
      <point x="297" y="396" smooth="yes"/>
      <point x="187" y="396" type="curve" smooth="yes"/>
      <point x="134" y="396" type="line"/>
      <point x="134" y="636" type="line"/>
      <point x="331" y="636" type="line"/>
      <point x="331" y="700" type="line"/>
      <point x="61" y="700" type="line"/>
      <point x="61" y="334" type="line"/>
      <point x="187" y="334" type="line" smooth="yes"/>
      <point x="242" y="334" smooth="yes"/>
      <point x="266" y="297" smooth="yes"/>
      <point x="266" y="213" type="curve" smooth="yes"/>
      <point x="266" y="191" type="line" smooth="yes"/>
      <point x="266" y="94" smooth="yes"/>
      <point x="242" y="50" smooth="yes"/>
      <point x="189" y="50" type="curve" smooth="yes"/>
      <point x="140" y="50"/>
      <point x="119" y="84"/>
      <point x="112" y="177" type="curve"/>
      <point x="42" y="168" type="line"/>
      <point x="52" y="41" smooth="yes"/>
      <point x="97" y="-15" smooth="yes"/>
    </contour>
  </outline>
</glyph>
<glyph name="six" format="1">
  <advance width="404"/>
  <unicode hex="0036"/>
  <outline>
    <contour>
      <point x="204" y="-15" type="curve" name="hr00"/>
      <point x="314" y="-15" smooth="yes"/>
      <point x="362" y="51" smooth="yes"/>
      <point x="362" y="199" type="curve" smooth="yes"/>
      <point x="362" y="342" smooth="yes"/>
      <point x="315" y="410" smooth="yes"/>
      <point x="216" y="410" type="curve" smooth="yes"/>
      <point x="180" y="410"/>
      <point x="151" y="398"/>
      <point x="128" y="373" type="curve"/>
      <point x="128" y="503" type="line" smooth="yes"/>
      <point x="128" y="605" smooth="yes"/>
      <point x="152" y="650" smooth="yes"/>
      <point x="206" y="650" type="curve" smooth="yes"/>
      <point x="250" y="650"/>
      <point x="270" y="616"/>
      <point x="276" y="535" type="curve"/>
      <point x="349" y="553" type="line"/>
      <point x="339" y="665" smooth="yes"/>
      <point x="295" y="715" smooth="yes"/>
      <point x="207" y="715" type="curve" smooth="yes"/>
      <point x="97" y="715" smooth="yes"/>
      <point x="49" y="645" smooth="yes"/>
      <point x="49" y="486" type="curve" smooth="yes"/>
      <point x="49" y="199" type="line" smooth="yes"/>
      <point x="49" y="51" smooth="yes"/>
      <point x="97" y="-15" smooth="yes"/>
    </contour>
    <contour>
      <point x="207" y="47" type="curve"/>
      <point x="154" y="47" smooth="yes"/>
      <point x="128" y="92" smooth="yes"/>
      <point x="128" y="185" type="curve" smooth="yes"/>
      <point x="128" y="218" type="line" smooth="yes"/>
      <point x="129" y="305" smooth="yes"/>
      <point x="155" y="348" smooth="yes"/>
      <point x="207" y="348" type="curve" smooth="yes"/>
      <point x="260" y="348" smooth="yes"/>
      <point x="286" y="303" smooth="yes"/>
      <point x="286" y="210" type="curve" smooth="yes"/>
      <point x="286" y="185" type="line" smooth="yes"/>
      <point x="286" y="92" smooth="yes"/>
      <point x="260" y="47" smooth="yes"/>
    </contour>
  </outline>
</glyph>
<glyph name="seven" format="1">
  <advance width="333"/>
  <unicode hex="0037"/>
  <outline>
    <contour>
      <point x="19" y="636" type="line" name="hr00"/>
      <point x="231" y="636" type="line"/>
      <point x="67" y="0" type="line"/>
      <point x="148" y="0" type="line"/>
      <point x="310" y="662" type="line"/>
      <point x="310" y="700" type="line"/>
      <point x="19" y="700" type="line"/>
    </contour>
  </outline>
</glyph>
<glyph name="eight" format="1">
  <advance width="417"/>
  <unicode hex="0038"/>
  <outline>
    <contour>
      <point x="208" y="-15" type="curve"/>
      <point x="319" y="-15" smooth="yes"/>
      <point x="368" y="45" smooth="yes"/>
      <point x="368" y="179" type="curve" smooth="yes"/>
      <point x="368" y="278"/>
      <point x="340" y="338"/>
      <point x="281" y="362" type="curve"/>
      <point x="331" y="384" smooth="yes"/>
      <point x="355" y="439" smooth="yes"/>
      <point x="355" y="532" type="curve" smooth="yes"/>
      <point x="355" y="659" smooth="yes"/>
      <point x="310" y="715" smooth="yes"/>
      <point x="208" y="715" type="curve" smooth="yes" name="hr01"/>
      <point x="107" y="715" smooth="yes"/>
      <point x="63" y="660" smooth="yes"/>
      <point x="63" y="532" type="curve" smooth="yes"/>
      <point x="63" y="440"/>
      <point x="86" y="385"/>
      <point x="135" y="362" type="curve"/>
      <point x="77" y="340" smooth="yes"/>
      <point x="49" y="281" smooth="yes"/>
      <point x="49" y="179" type="curve" smooth="yes"/>
      <point x="49" y="44" smooth="yes"/>
      <point x="98" y="-15" smooth="yes"/>
    </contour>
    <contour>
      <point x="208" y="47" type="curve"/>
      <point x="153" y="47" smooth="yes"/>
      <point x="128" y="87" smooth="yes"/>
      <point x="128" y="173" type="curve" smooth="yes"/>
      <point x="128" y="204" type="line" smooth="yes"/>
      <point x="128" y="290" smooth="yes"/>
      <point x="153" y="330" smooth="yes"/>
      <point x="208" y="330" type="curve" smooth="yes"/>
      <point x="264" y="330" smooth="yes"/>
      <point x="289" y="292" smooth="yes"/>
      <point x="289" y="204" type="curve" smooth="yes"/>
      <point x="289" y="173" type="line" smooth="yes"/>
      <point x="289" y="85" smooth="yes"/>
      <point x="264" y="47" smooth="yes"/>
    </contour>
    <contour>
      <point x="278" y="504" type="line" smooth="yes"/>
      <point x="278" y="425" smooth="yes"/>
      <point x="257" y="391" smooth="yes"/>
      <point x="208" y="391" type="curve" smooth="yes"/>
      <point x="160" y="391" smooth="yes"/>
      <point x="139" y="426" smooth="yes"/>
      <point x="139" y="504" type="curve" smooth="yes"/>
      <point x="139" y="540" type="line" smooth="yes"/>
      <point x="139" y="618" smooth="yes"/>
      <point x="160" y="653" smooth="yes"/>
      <point x="208" y="653" type="curve" smooth="yes"/>
      <point x="257" y="653" smooth="yes"/>
      <point x="278" y="619" smooth="yes"/>
      <point x="278" y="540" type="curve" smooth="yes"/>
    </contour>
  </outline>
</glyph>
<glyph name="nine" format="1">
  <advance width="404"/>
  <unicode hex="0039"/>
  <outline>
    <contour>
      <point x="198" y="-15" type="curve" smooth="yes" name="hr00"/>
      <point x="308" y="-15" smooth="yes"/>
      <point x="355" y="54" smooth="yes"/>
      <point x="355" y="214" type="curve" smooth="yes"/>
      <point x="355" y="501" type="line" smooth="yes"/>
      <point x="355" y="651" smooth="yes"/>
      <point x="308" y="715" smooth="yes"/>
      <point x="200" y="715" type="curve" smooth="yes"/>
      <point x="91" y="715" smooth="yes"/>
      <point x="42" y="649" smooth="yes"/>
      <point x="42" y="501" type="curve" smooth="yes"/>
      <point x="42" y="358" smooth="yes"/>
      <point x="90" y="290" smooth="yes"/>
      <point x="189" y="290" type="curve" smooth="yes"/>
      <point x="226" y="290"/>
      <point x="255" y="302"/>
      <point x="277" y="327" type="curve"/>
      <point x="277" y="197" type="line" smooth="yes"/>
      <point x="277" y="95" smooth="yes"/>
      <point x="253" y="50" smooth="yes"/>
      <point x="198" y="50" type="curve" smooth="yes"/>
      <point x="146" y="50"/>
      <point x="125" y="83"/>
      <point x="115" y="178" type="curve"/>
      <point x="45" y="168" type="line"/>
      <point x="57" y="40" smooth="yes"/>
      <point x="103" y="-15" smooth="yes"/>
    </contour>
    <contour>
      <point x="198" y="352" type="curve"/>
      <point x="145" y="352" smooth="yes"/>
      <point x="118" y="398" smooth="yes"/>
      <point x="118" y="490" type="curve" smooth="yes"/>
      <point x="118" y="515" type="line" smooth="yes"/>
      <point x="118" y="607" smooth="yes"/>
      <point x="145" y="653" smooth="yes"/>
      <point x="198" y="653" type="curve" smooth="yes"/>
      <point x="251" y="653" smooth="yes"/>
      <point x="277" y="608" smooth="yes"/>
      <point x="277" y="515" type="curve" smooth="yes"/>
      <point x="277" y="482" type="line" smooth="yes"/>
      <point x="277" y="393" smooth="yes"/>
      <point x="250" y="352" smooth="yes"/>
    </contour>
  </outline>
</glyph>
<glyph name="less" format="1">
  <advance width="379"/>
  <unicode hex="003C"/>
  <outline>
    <contour>
      <point x="56" y="317" type="line" name="hr00"/>
      <point x="322" y="167" type="line"/>
      <point x="322" y="233" type="line"/>
      <point x="126" y="350" type="line"/>
      <point x="322" y="467" type="line"/>
      <point x="322" y="533" type="line"/>
      <point x="56" y="383" type="line"/>
    </contour>
  </outline>
</glyph>
<glyph name="equal" format="1">
  <advance width="377"/>
  <unicode hex="003D"/>
  <outline>
    <contour>
      <point x="56" y="419" type="line" name="hr00"/>
      <point x="320" y="419" type="line"/>
      <point x="320" y="481" type="line"/>
      <point x="56" y="481" type="line"/>
    </contour>
    <contour>
      <point x="56" y="219" type="line"/>
      <point x="320" y="219" type="line"/>
      <point x="320" y="281" type="line"/>
      <point x="56" y="281" type="line"/>
    </contour>
  </outline>
</glyph>
<glyph name="greater" format="1">
  <advance width="379"/>
  <unicode hex="003E"/>
  <outline>
    <contour>
      <point x="322" y="383" type="line" name="hr00"/>
      <point x="56" y="533" type="line"/>
      <point x="56" y="467" type="line"/>
      <point x="253" y="350" type="line"/>
      <point x="56" y="233" type="line"/>
      <point x="56" y="167" type="line"/>
      <point x="322" y="317" type="line"/>
    </contour>
  </outline>
</glyph>
<glyph name="question" format="1">
  <advance width="358"/>
  <unicode hex="003F"/>
  <outline>
    <contour>
      <point x="136" y="168" type="curve" name="hr00"/>
      <point x="196" y="168" type="line"/>
      <point x="196" y="224" smooth="yes"/>
      <point x="214" y="285" smooth="yes"/>
      <point x="252" y="357" type="curve" smooth="yes"/>
      <point x="293" y="434" smooth="yes"/>
      <point x="309" y="487" smooth="yes"/>
      <point x="309" y="547" type="curve" smooth="yes"/>
      <point x="309" y="663" smooth="yes"/>
      <point x="265" y="715" smooth="yes"/>
      <point x="168" y="715" type="curve" smooth="yes"/>
      <point x="79" y="715"/>
      <point x="36" y="659"/>
      <point x="27" y="532" type="curve"/>
      <point x="98" y="521" type="line"/>
      <point x="105" y="614" smooth="yes"/>
      <point x="125" y="650" smooth="yes"/>
      <point x="168" y="650" type="curve" smooth="yes"/>
      <point x="211" y="650" smooth="yes"/>
      <point x="231" y="618" smooth="yes"/>
      <point x="231" y="547" type="curve" smooth="yes"/>
      <point x="231" y="502" smooth="yes"/>
      <point x="218" y="454" smooth="yes"/>
      <point x="189" y="396" type="curve" smooth="yes"/>
      <point x="152" y="319"/>
      <point x="136" y="252"/>
    </contour>
    <contour>
      <point x="127" y="0" type="line"/>
      <point x="206" y="0" type="line"/>
      <point x="206" y="92" type="line"/>
      <point x="127" y="92" type="line"/>
    </contour>
  </outline>
</glyph>
<glyph name="at" format="1">
  <advance width="616"/>
  <unicode hex="0040"/>
  <outline>
    <contour>
      <point x="308" y="-55" type="curve"/>
      <point x="372" y="-55"/>
      <point x="420" y="-41"/>
      <point x="458" y="-11" type="curve"/>
      <point x="441" y="31" type="line"/>
      <point x="408" y="6" smooth="yes"/>
      <point x="366" y="-5" smooth="yes"/>
      <point x="308" y="-5" type="curve" smooth="yes"/>
      <point x="157" y="-5" smooth="yes"/>
      <point x="90" y="82" smooth="yes"/>
      <point x="90" y="281" type="curve" smooth="yes"/>
      <point x="90" y="389" type="line" smooth="yes"/>
      <point x="90" y="588" smooth="yes"/>
      <point x="157" y="675" smooth="yes"/>
      <point x="308" y="675" type="curve" smooth="yes"/>
      <point x="459" y="675" smooth="yes"/>
      <point x="526" y="587" smooth="yes"/>
      <point x="526" y="389" type="curve" smooth="yes"/>
      <point x="526" y="183" type="line"/>
      <point x="427" y="183" type="line"/>
      <point x="427" y="540" type="line"/>
      <point x="377" y="540" type="line"/>
      <point x="362" y="458" type="line"/>
      <point x="352" y="521" smooth="yes"/>
      <point x="319" y="555" smooth="yes"/>
      <point x="270" y="555" type="curve" smooth="yes"/>
      <point x="205" y="555" smooth="yes"/>
      <point x="176" y="506" smooth="yes"/>
      <point x="176" y="393" type="curve" smooth="yes"/>
      <point x="176" y="277" type="line" smooth="yes"/>
      <point x="176" y="164" smooth="yes"/>
      <point x="204" y="115" smooth="yes"/>
      <point x="270" y="115" type="curve" smooth="yes"/>
      <point x="318" y="115"/>
      <point x="349" y="151"/>
      <point x="359" y="217" type="curve"/>
      <point x="370" y="130" type="line" name="hr01"/>
      <point x="567" y="130" type="line"/>
      <point x="567" y="389" type="line" smooth="yes"/>
      <point x="567" y="622" smooth="yes"/>
      <point x="488" y="725" smooth="yes"/>
      <point x="308" y="725" type="curve" smooth="yes"/>
      <point x="129" y="725" smooth="yes"/>
      <point x="49" y="621" smooth="yes"/>
      <point x="49" y="389" type="curve" smooth="yes"/>
      <point x="49" y="281" type="line" smooth="yes" name="hr02"/>
      <point x="49" y="48" smooth="yes"/>
      <point x="128" y="-55" smooth="yes"/>
    </contour>
    <contour>
      <point x="353" y="335" type="curve" smooth="yes"/>
      <point x="353" y="223" smooth="yes"/>
      <point x="337" y="177" smooth="yes"/>
      <point x="297" y="177" type="curve" smooth="yes"/>
      <point x="267" y="177" smooth="yes"/>
      <point x="254" y="203" smooth="yes"/>
      <point x="254" y="265" type="curve" smooth="yes"/>
      <point x="254" y="405" type="line" smooth="yes"/>
      <point x="254" y="465" smooth="yes"/>
      <point x="267" y="493" smooth="yes"/>
      <point x="294" y="493" type="curve" smooth="yes"/>
      <point x="336" y="493" smooth="yes"/>
      <point x="353" y="449" smooth="yes"/>
    </contour>
  </outline>
</glyph>
<glyph name="A" format="1">
  <advance width="394"/>
  <unicode hex="0041"/>
  <outline>
    <contour>
      <point x="298" y="0" type="line" name="hr00"/>
      <point x="378" y="0" type="line"/>
      <point x="250" y="700" type="line"/>
      <point x="144" y="700" type="line"/>
      <point x="16" y="0" type="line"/>
      <point x="96" y="0" type="line"/>
      <point x="126" y="182" type="line"/>
      <point x="267" y="182" type="line"/>
    </contour>
    <contour>
      <point x="197" y="599" type="line"/>
      <point x="256" y="246" type="line"/>
      <point x="137" y="246" type="line"/>
    </contour>
  </outline>
</glyph>
<glyph name="B" format="1">
  <advance width="382"/>
  <unicode hex="0042"/>
  <outline>
    <contour>
      <point x="63" y="0" type="line"/>
      <point x="193" y="0" type="line" smooth="yes"/>
      <point x="298" y="0" smooth="yes"/>
      <point x="348" y="64" smooth="yes"/>
      <point x="348" y="200" type="curve" smooth="yes"/>
      <point x="348" y="294"/>
      <point x="316" y="345"/>
      <point x="248" y="361" type="curve"/>
      <point x="305" y="380" smooth="yes"/>
      <point x="333" y="429" smooth="yes"/>
      <point x="333" y="511" type="curve" smooth="yes" name="hr01"/>
      <point x="333" y="641" smooth="yes"/>
      <point x="284" y="700" smooth="yes"/>
      <point x="177" y="700" type="curve" smooth="yes"/>
      <point x="63" y="700" type="line"/>
    </contour>
    <contour>
      <point x="143" y="63" type="line"/>
      <point x="143" y="333" type="line"/>
      <point x="191" y="333" type="line" smooth="yes"/>
      <point x="244" y="333" smooth="yes"/>
      <point x="270" y="292" smooth="yes"/>
      <point x="270" y="208" type="curve" smooth="yes"/>
      <point x="270" y="181" type="line" smooth="yes"/>
      <point x="270" y="100" smooth="yes"/>
      <point x="245" y="63" smooth="yes"/>
      <point x="191" y="63" type="curve" smooth="yes"/>
    </contour>
    <contour>
      <point x="143" y="386" type="line"/>
      <point x="143" y="637" type="line"/>
      <point x="182" y="637" type="line" smooth="yes"/>
      <point x="235" y="637" smooth="yes"/>
      <point x="259" y="603" smooth="yes"/>
      <point x="259" y="527" type="curve" smooth="yes"/>
      <point x="259" y="503" type="line" smooth="yes"/>
      <point x="259" y="425" smooth="yes"/>
      <point x="234" y="386" smooth="yes"/>
      <point x="182" y="386" type="curve" smooth="yes"/>
    </contour>
  </outline>
</glyph>
<glyph name="C" format="1">
  <advance width="374"/>
  <unicode hex="0043"/>
  <outline>
    <contour>
      <point x="204" y="-15" type="curve" name="hr00"/>
      <point x="291" y="-15"/>
      <point x="335" y="41"/>
      <point x="347" y="168" type="curve"/>
      <point x="277" y="177" type="line"/>
      <point x="270" y="84" smooth="yes"/>
      <point x="249" y="50" smooth="yes"/>
      <point x="202" y="50" type="curve" smooth="yes"/>
      <point x="150" y="50" smooth="yes"/>
      <point x="128" y="93" smooth="yes"/>
      <point x="128" y="193" type="curve" smooth="yes"/>
      <point x="128" y="503" type="line" smooth="yes"/>
      <point x="128" y="606" smooth="yes"/>
      <point x="150" y="650" smooth="yes"/>
      <point x="202" y="650" type="curve" smooth="yes"/>
      <point x="243" y="650"/>
      <point x="263" y="618"/>
      <point x="270" y="537" type="curve"/>
      <point x="343" y="555" type="line"/>
      <point x="333" y="666" smooth="yes"/>
      <point x="290" y="715" smooth="yes"/>
      <point x="204" y="715" type="curve" smooth="yes"/>
      <point x="96" y="715" smooth="yes"/>
      <point x="49" y="646" smooth="yes"/>
      <point x="49" y="486" type="curve" smooth="yes"/>
      <point x="49" y="214" type="line" smooth="yes"/>
      <point x="49" y="54" smooth="yes"/>
      <point x="96" y="-15" smooth="yes"/>
    </contour>
  </outline>
</glyph>
<glyph name="D" format="1">
  <advance width="406"/>
  <unicode hex="0044"/>
  <outline>
    <contour>
      <point x="63" y="0" type="line" name="hr00"/>
      <point x="199" y="0" type="line" smooth="yes"/>
      <point x="308" y="0" smooth="yes"/>
      <point x="357" y="69" smooth="yes"/>
      <point x="357" y="224" type="curve" smooth="yes"/>
      <point x="357" y="476" type="line" smooth="yes"/>
      <point x="357" y="631" smooth="yes"/>
      <point x="308" y="700" smooth="yes"/>
      <point x="199" y="700" type="curve" smooth="yes"/>
      <point x="63" y="700" type="line"/>
    </contour>
    <contour>
      <point x="143" y="63" type="line"/>
      <point x="143" y="636" type="line"/>
      <point x="199" y="636" type="line" smooth="yes"/>
      <point x="252" y="636" smooth="yes"/>
      <point x="278" y="589" smooth="yes"/>
      <point x="278" y="493" type="curve" smooth="yes"/>
      <point x="278" y="206" type="line" smooth="yes"/>
      <point x="278" y="110" smooth="yes"/>
      <point x="252" y="63" smooth="yes"/>
      <point x="199" y="63" type="curve" smooth="yes"/>
    </contour>
  </outline>
</glyph>
<glyph name="E" format="1">
  <advance width="359"/>
  <unicode hex="0045"/>
  <outline>
    <contour>
      <point x="143" y="317" type="line" name="hr00"/>
      <point x="299" y="317" type="line"/>
      <point x="299" y="381" type="line"/>
      <point x="143" y="381" type="line"/>
      <point x="143" y="636" type="line"/>
      <point x="314" y="636" type="line"/>
      <point x="314" y="700" type="line"/>
      <point x="63" y="700" type="line"/>
      <point x="63" y="0" type="line"/>
      <point x="317" y="0" type="line"/>
      <point x="317" y="64" type="line"/>
      <point x="143" y="64" type="line"/>
    </contour>
  </outline>
</glyph>
<glyph name="F" format="1">
  <advance width="323"/>
  <unicode hex="0046"/>
  <outline>
    <contour>
      <point x="143" y="317" type="line" name="hr00"/>
      <point x="288" y="317" type="line"/>
      <point x="288" y="381" type="line"/>
      <point x="143" y="381" type="line"/>
      <point x="143" y="636" type="line"/>
      <point x="303" y="636" type="line"/>
      <point x="303" y="700" type="line"/>
      <point x="63" y="700" type="line"/>
      <point x="63" y="0" type="line"/>
      <point x="143" y="0" type="line"/>
    </contour>
  </outline>
</glyph>
<glyph name="G" format="1">
  <advance width="408"/>
  <unicode hex="0047"/>
  <outline>
    <contour>
      <point x="181" y="-15" type="curve" name="hr00"/>
      <point x="234" y="-15"/>
      <point x="269" y="11"/>
      <point x="289" y="66" type="curve"/>
      <point x="303" y="1" type="line"/>
      <point x="352" y="1" type="line"/>
      <point x="352" y="371" type="line"/>
      <point x="195" y="371" type="line"/>
      <point x="195" y="307" type="line"/>
      <point x="277" y="307" type="line"/>
      <point x="277" y="185" type="line" smooth="yes"/>
      <point x="277" y="95" smooth="yes"/>
      <point x="251" y="50" smooth="yes"/>
      <point x="199" y="50" type="curve" smooth="yes"/>
      <point x="150" y="50" smooth="yes"/>
      <point x="128" y="95" smooth="yes"/>
      <point x="128" y="194" type="curve" smooth="yes"/>
      <point x="128" y="503" type="line" smooth="yes"/>
      <point x="128" y="606" smooth="yes"/>
      <point x="150" y="650" smooth="yes"/>
      <point x="202" y="650" type="curve" smooth="yes"/>
      <point x="243" y="650"/>
      <point x="263" y="617"/>
      <point x="270" y="537" type="curve"/>
      <point x="343" y="555" type="line"/>
      <point x="333" y="666" smooth="yes"/>
      <point x="290" y="715" smooth="yes"/>
      <point x="204" y="715" type="curve" smooth="yes"/>
      <point x="96" y="715" smooth="yes"/>
      <point x="49" y="646" smooth="yes"/>
      <point x="49" y="486" type="curve" smooth="yes"/>
      <point x="49" y="209" type="line" smooth="yes"/>
      <point x="49" y="54" smooth="yes"/>
      <point x="90" y="-15" smooth="yes"/>
    </contour>
  </outline>
</glyph>
<glyph name="H" format="1">
  <advance width="436"/>
  <unicode hex="0048"/>
  <outline>
    <contour>
      <point x="294" y="0" type="line" name="hr00"/>
      <point x="373" y="0" type="line"/>
      <point x="373" y="700" type="line"/>
      <point x="294" y="700" type="line"/>
      <point x="294" y="381" type="line"/>
      <point x="143" y="381" type="line"/>
      <point x="143" y="700" type="line"/>
      <point x="63" y="700" type="line"/>
      <point x="63" y="0" type="line"/>
      <point x="143" y="0" type="line"/>
      <point x="143" y="317" type="line"/>
      <point x="294" y="317" type="line"/>
    </contour>
  </outline>
</glyph>
<glyph name="I" format="1">
  <advance width="206"/>
  <unicode hex="0049"/>
  <outline>
    <contour>
      <point x="63" y="0" type="line" name="hr00"/>
      <point x="143" y="0" type="line"/>
      <point x="143" y="700" type="line"/>
      <point x="63" y="700" type="line"/>
    </contour>
  </outline>
</glyph>
<glyph name="J" format="1">
  <advance width="295"/>
  <unicode hex="004A"/>
  <outline>
    <contour>
      <point x="121" y="-15" type="curve" name="hr00"/>
      <point x="200" y="-15" smooth="yes"/>
      <point x="242" y="45" smooth="yes"/>
      <point x="242" y="157" type="curve" smooth="yes"/>
      <point x="242" y="700" type="line"/>
      <point x="163" y="700" type="line"/>
      <point x="163" y="141" type="line" smooth="yes"/>
      <point x="163" y="76" smooth="yes"/>
      <point x="151" y="48" smooth="yes"/>
      <point x="124" y="48" type="curve" smooth="yes"/>
      <point x="99" y="48"/>
      <point x="86" y="72"/>
      <point x="82" y="128" type="curve"/>
      <point x="10" y="118" type="line"/>
      <point x="17" y="36" smooth="yes"/>
      <point x="59" y="-15" smooth="yes"/>
    </contour>
  </outline>
</glyph>
<glyph name="K" format="1">
  <advance width="381"/>
  <unicode hex="004B"/>
  <outline>
    <contour>
      <point x="143" y="252" type="line" name="hr00"/>
      <point x="175" y="315" type="line"/>
      <point x="296" y="0" type="line"/>
      <point x="376" y="0" type="line"/>
      <point x="217" y="399" type="line"/>
      <point x="370" y="700" type="line"/>
      <point x="290" y="700" type="line"/>
      <point x="143" y="404" type="line"/>
      <point x="143" y="700" type="line"/>
      <point x="63" y="700" type="line"/>
      <point x="63" y="0" type="line"/>
      <point x="143" y="0" type="line"/>
    </contour>
  </outline>
</glyph>
<glyph name="L" format="1">
  <advance width="313"/>
  <unicode hex="004C"/>
  <outline>
    <contour>
      <point x="63" y="0" type="line" name="hr00"/>
      <point x="298" y="0" type="line"/>
      <point x="298" y="64" type="line"/>
      <point x="143" y="64" type="line"/>
      <point x="143" y="700" type="line"/>
      <point x="63" y="700" type="line"/>
    </contour>
  </outline>
</glyph>
<glyph name="M" format="1">
  <advance width="541"/>
  <unicode hex="004D"/>
  <outline>
    <contour>
      <point x="315" y="150" type="line" name="hr00"/>
      <point x="400" y="632" type="line"/>
      <point x="400" y="0" type="line"/>
      <point x="478" y="0" type="line"/>
      <point x="478" y="700" type="line"/>
      <point x="356" y="700" type="line"/>
      <point x="270" y="215" type="line"/>
      <point x="185" y="700" type="line"/>
      <point x="63" y="700" type="line"/>
      <point x="63" y="0" type="line"/>
      <point x="141" y="0" type="line"/>
      <point x="141" y="632" type="line"/>
      <point x="226" y="150" type="line"/>
    </contour>
  </outline>
</glyph>
<glyph name="N" format="1">
  <advance width="450"/>
  <unicode hex="004E"/>
  <outline>
    <contour>
      <point x="304" y="0" type="line" name="hr00"/>
      <point x="387" y="0" type="line"/>
      <point x="387" y="700" type="line"/>
      <point x="309" y="700" type="line"/>
      <point x="309" y="188" type="line"/>
      <point x="146" y="700" type="line"/>
      <point x="63" y="700" type="line"/>
      <point x="63" y="0" type="line"/>
      <point x="141" y="0" type="line"/>
      <point x="141" y="511" type="line"/>
    </contour>
  </outline>
</glyph>
<glyph name="P" format="1">
  <advance width="363"/>
  <unicode hex="0050"/>
  <outline>
    <contour>
      <point x="63" y="0" type="line" name="hr00"/>
      <point x="143" y="0" type="line"/>
      <point x="143" y="248" type="line"/>
      <point x="187" y="248" type="line" smooth="yes"/>
      <point x="295" y="248" smooth="yes"/>
      <point x="343" y="316" smooth="yes"/>
      <point x="343" y="471" type="curve" smooth="yes"/>
      <point x="343" y="476" type="line" smooth="yes"/>
      <point x="343" y="631" smooth="yes"/>
      <point x="295" y="700" smooth="yes"/>
      <point x="187" y="700" type="curve" smooth="yes"/>
      <point x="63" y="700" type="line"/>
    </contour>
    <contour>
      <point x="143" y="311" type="line"/>
      <point x="143" y="636" type="line"/>
      <point x="187" y="636" type="line" smooth="yes"/>
      <point x="239" y="636" smooth="yes"/>
      <point x="264" y="589" smooth="yes"/>
      <point x="264" y="489" type="curve" smooth="yes"/>
      <point x="264" y="458" type="line" smooth="yes"/>
      <point x="264" y="358" smooth="yes"/>
      <point x="239" y="311" smooth="yes"/>
      <point x="187" y="311" type="curve" smooth="yes"/>
    </contour>
  </outline>
</glyph>
<glyph name="Q" format="1">
  <advance width="411"/>
  <unicode hex="0051"/>
  <outline>
    <contour>
      <point x="268" y="-56" type="line" name="hr00"/>
      <point x="340" y="-56" type="line"/>
      <point x="299" y="61" type="line"/>
      <point x="341" y="94" smooth="yes"/>
      <point x="362" y="159" smooth="yes"/>
      <point x="362" y="259" type="curve" smooth="yes"/>
      <point x="362" y="491" type="line" smooth="yes"/>
      <point x="362" y="646" smooth="yes"/>
      <point x="314" y="715" smooth="yes"/>
      <point x="206" y="715" type="curve" smooth="yes"/>
      <point x="97" y="715" smooth="yes"/>
      <point x="49" y="647" smooth="yes"/>
      <point x="49" y="491" type="curve" smooth="yes"/>
      <point x="49" y="259" type="line" smooth="yes"/>
      <point x="49" y="103" smooth="yes"/>
      <point x="97" y="35" smooth="yes"/>
      <point x="206" y="35" type="curve" smooth="yes"/>
      <point x="221" y="35"/>
      <point x="228" y="35"/>
      <point x="236" y="37" type="curve"/>
    </contour>
    <contour>
      <point x="206" y="100" type="line" smooth="yes"/>
      <point x="152" y="100" smooth="yes"/>
      <point x="128" y="145" smooth="yes"/>
      <point x="128" y="244" type="curve" smooth="yes"/>
      <point x="128" y="506" type="line" smooth="yes"/>
      <point x="128" y="605" smooth="yes"/>
      <point x="152" y="650" smooth="yes"/>
      <point x="206" y="650" type="curve" smooth="yes"/>
      <point x="258" y="650" smooth="yes"/>
      <point x="283" y="604" smooth="yes"/>
      <point x="283" y="506" type="curve" smooth="yes"/>
      <point x="283" y="244" type="line" smooth="yes"/>
      <point x="283" y="201"/>
      <point x="278" y="169"/>
      <point x="269" y="146" type="curve"/>
      <point x="232" y="254" type="line"/>
      <point x="162" y="254" type="line"/>
      <point x="214" y="100" type="line"/>
    </contour>
  </outline>
</glyph>
<glyph name="R" format="1">
  <advance width="386"/>
  <unicode hex="0052"/>
  <outline>
    <contour>
      <point x="63" y="0" type="line" name="hr00"/>
      <point x="143" y="0" type="line"/>
      <point x="143" y="268" type="line"/>
      <point x="192" y="268" type="line"/>
      <point x="270" y="0" type="line"/>
      <point x="352" y="0" type="line"/>
      <point x="269" y="286" type="line"/>
      <point x="319" y="314" smooth="yes"/>
      <point x="343" y="376" smooth="yes"/>
      <point x="343" y="479" type="curve" smooth="yes"/>
      <point x="343" y="484" type="line" smooth="yes"/>
      <point x="343" y="633" smooth="yes"/>
      <point x="294" y="700" smooth="yes"/>
      <point x="187" y="700" type="curve" smooth="yes"/>
      <point x="63" y="700" type="line"/>
    </contour>
    <contour>
      <point x="143" y="331" type="line"/>
      <point x="143" y="636" type="line"/>
      <point x="187" y="636" type="line" smooth="yes"/>
      <point x="239" y="636" smooth="yes"/>
      <point x="264" y="592" smooth="yes"/>
      <point x="264" y="499" type="curve" smooth="yes"/>
      <point x="264" y="469" type="line" smooth="yes"/>
      <point x="264" y="375" smooth="yes"/>
      <point x="239" y="331" smooth="yes"/>
      <point x="187" y="331" type="curve" smooth="yes"/>
    </contour>
  </outline>
</glyph>
<glyph name="S" format="1">
  <advance width="398"/>
  <unicode hex="0053"/>
  <outline>
    <contour>
      <point x="199" y="-15" type="curve"/>
      <point x="305" y="-15" smooth="yes"/>
      <point x="356" y="41" smooth="yes"/>
      <point x="356" y="159" type="curve" smooth="yes"/>
      <point x="356" y="245" smooth="yes"/>
      <point x="329" y="300" smooth="yes"/>
      <point x="263" y="348" type="curve" smooth="yes"/>
      <point x="184" y="407" type="line" smooth="yes"/>
      <point x="145" y="436" smooth="yes"/>
      <point x="133" y="471" smooth="yes"/>
      <point x="133" y="539" type="curve" smooth="yes"/>
      <point x="133" y="612" smooth="yes"/>
      <point x="156" y="648" smooth="yes"/>
      <point x="203" y="648" type="curve" smooth="yes"/>
      <point x="250" y="648"/>
      <point x="275" y="606"/>
      <point x="278" y="520" type="curve"/>
      <point x="354" y="537" type="line"/>
      <point x="343" y="662" smooth="yes"/>
      <point x="299" y="715" smooth="yes"/>
      <point x="204" y="715" type="curve" smooth="yes" name="hr01"/>
      <point x="101" y="715" smooth="yes"/>
      <point x="54" y="656" smooth="yes"/>
      <point x="54" y="528" type="curve" smooth="yes"/>
      <point x="54" y="442" smooth="yes"/>
      <point x="84" y="383" smooth="yes"/>
      <point x="144" y="339" type="curve" smooth="yes"/>
      <point x="224" y="280" type="line" smooth="yes"/>
      <point x="263" y="251" smooth="yes"/>
      <point x="278" y="212" smooth="yes"/>
      <point x="278" y="157" type="curve" smooth="yes"/>
      <point x="278" y="87" smooth="yes"/>
      <point x="251" y="51" smooth="yes"/>
      <point x="199" y="51" type="curve" smooth="yes"/>
      <point x="148" y="51"/>
      <point x="122" y="100"/>
      <point x="117" y="208" type="curve"/>
      <point x="42" y="195" type="line"/>
      <point x="53" y="49" smooth="yes"/>
      <point x="101" y="-15" smooth="yes"/>
    </contour>
  </outline>
</glyph>
<glyph name="T" format="1">
  <advance width="299"/>
  <unicode hex="0054"/>
  <outline>
    <contour>
      <point x="13" y="636" type="line" name="hr00"/>
      <point x="110" y="636" type="line"/>
      <point x="110" y="0" type="line"/>
      <point x="189" y="0" type="line"/>
      <point x="189" y="636" type="line"/>
      <point x="286" y="636" type="line"/>
      <point x="286" y="700" type="line"/>
      <point x="13" y="700" type="line"/>
    </contour>
  </outline>
</glyph>
<glyph name="U" format="1">
  <advance width="422"/>
  <unicode hex="0055"/>
  <outline>
    <contour>
      <point x="210" y="-15" type="curve" name="hr00"/>
      <point x="318" y="-15" smooth="yes"/>
      <point x="366" y="53" smooth="yes"/>
      <point x="366" y="209" type="curve" smooth="yes"/>
      <point x="366" y="700" type="line"/>
      <point x="287" y="700" type="line"/>
      <point x="287" y="194" type="line" smooth="yes"/>
      <point x="287" y="95" smooth="yes"/>
      <point x="263" y="50" smooth="yes"/>
      <point x="210" y="50" type="curve" smooth="yes"/>
      <point x="159" y="50" smooth="yes"/>
      <point x="135" y="96" smooth="yes"/>
      <point x="135" y="194" type="curve" smooth="yes"/>
      <point x="135" y="700" type="line"/>
      <point x="56" y="700" type="line"/>
      <point x="56" y="209" type="line" smooth="yes"/>
      <point x="56" y="55" smooth="yes"/>
      <point x="104" y="-15" smooth="yes"/>
    </contour>
  </outline>
</glyph>
<glyph name="V" format="1">
  <advance width="392"/>
  <unicode hex="0056"/>
  <outline>
    <contour>
      <point x="96" y="700" type="line" name="hr00"/>
      <point x="16" y="700" type="line"/>
      <point x="146" y="0" type="line"/>
      <point x="246" y="0" type="line"/>
      <point x="376" y="700" type="line"/>
      <point x="296" y="700" type="line"/>
      <point x="196" y="116" type="line"/>
    </contour>
  </outline>
</glyph>
<glyph name="W" format="1">
  <advance width="578"/>
  <unicode hex="0057"/>
  <outline>
    <contour>
      <point x="372" y="0" type="line" name="hr00"/>
      <point x="454" y="0" type="line"/>
      <point x="559" y="700" type="line"/>
      <point x="479" y="700" type="line"/>
      <point x="406" y="165" type="line"/>
      <point x="321" y="700" type="line"/>
      <point x="259" y="700" type="line"/>
      <point x="171" y="164" type="line"/>
      <point x="99" y="700" type="line"/>
      <point x="19" y="700" type="line"/>
      <point x="124" y="0" type="line"/>
      <point x="206" y="0" type="line"/>
      <point x="289" y="509" type="line"/>
    </contour>
  </outline>
</glyph>
<glyph name="X" format="1">
  <advance width="381"/>
  <unicode hex="0058"/>
  <outline>
    <contour>
      <point x="102" y="700" type="line" name="hr00"/>
      <point x="24" y="700" type="line"/>
      <point x="153" y="355" type="line"/>
      <point x="16" y="0" type="line"/>
      <point x="92" y="0" type="line"/>
      <point x="189" y="259" type="line"/>
      <point x="287" y="0" type="line"/>
      <point x="365" y="0" type="line"/>
      <point x="231" y="356" type="line"/>
      <point x="365" y="700" type="line"/>
      <point x="289" y="700" type="line"/>
      <point x="196" y="449" type="line"/>
    </contour>
  </outline>
</glyph>
<glyph name="Y" format="1">
  <advance width="374"/>
  <unicode hex="0059"/>
  <outline>
    <contour>
      <point x="94" y="700" type="line" name="hr00"/>
      <point x="16" y="700" type="line"/>
      <point x="148" y="234" type="line"/>
      <point x="148" y="0" type="line"/>
      <point x="226" y="0" type="line"/>
      <point x="226" y="234" type="line"/>
      <point x="357" y="700" type="line"/>
      <point x="279" y="700" type="line"/>
      <point x="187" y="339" type="line"/>
    </contour>
  </outline>
</glyph>
<glyph name="Z" format="1">
  <advance width="351"/>
  <unicode hex="005A"/>
  <outline>
    <contour>
      <point x="23" y="0" type="line" name="hr00"/>
      <point x="328" y="0" type="line"/>
      <point x="328" y="64" type="line"/>
      <point x="106" y="64" type="line"/>
      <point x="328" y="662" type="line"/>
      <point x="328" y="700" type="line"/>
      <point x="42" y="700" type="line"/>
      <point x="42" y="636" type="line"/>
      <point x="245" y="636" type="line"/>
      <point x="23" y="38" type="line"/>
    </contour>
  </outline>
</glyph>
<glyph name="bracketleft" format="1">
  <advance width="266"/>
  <unicode hex="005B"/>
  <outline>
    <contour>
      <point x="63" y="-100" type="line" name="hr00"/>
      <point x="236" y="-100" type="line"/>
      <point x="236" y="-36" type="line"/>
      <point x="142" y="-36" type="line"/>
      <point x="142" y="736" type="line"/>
      <point x="236" y="736" type="line"/>
      <point x="236" y="800" type="line"/>
      <point x="63" y="800" type="line"/>
    </contour>
  </outline>
</glyph>
<glyph name="asciicircum" format="1">
  <advance width="265"/>
  <unicode hex="005E"/>
  <outline>
    <contour>
      <point x="83" y="320" type="line" name="hr00"/>
      <point x="21" y="320" type="line"/>
      <point x="99" y="698" type="line"/>
      <point x="167" y="698" type="line"/>
      <point x="245" y="320" type="line"/>
      <point x="183" y="320" type="line"/>
      <point x="132" y="604" type="line"/>
    </contour>
  </outline>
</glyph>
<glyph name="underscore" format="1">
  <advance width="329"/>
  <unicode hex="005F"/>
  <outline>
    <contour>
      <point x="42" y="-62" type="line" name="hr00"/>
      <point x="288" y="-62" type="line"/>
      <point x="288" y="0" type="line"/>
      <point x="42" y="0" type="line"/>
    </contour>
  </outline>
</glyph>
<glyph name="grave" format="1">
  <advance width="245"/>
  <unicode hex="0060"/>
  <outline>
    <contour>
      <point x="227" y="638" type="line" name="hr00"/>
      <point x="205" y="602" type="line"/>
      <point x="62" y="689" type="line"/>
      <point x="97" y="756" type="line"/>
    </contour>
  </outline>
</glyph>
<glyph name="a" format="1">
  <advance width="368"/>
  <unicode hex="0061"/>
  <outline>
    <contour>
      <point x="155" y="-15" type="curve"/>
      <point x="200" y="-15"/>
      <point x="235" y="15"/>
      <point x="249" y="65" type="curve"/>
      <point x="265" y="0" type="line"/>
      <point x="312" y="0" type="line"/>
      <point x="312" y="379" type="line" smooth="yes"/>
      <point x="312" y="498" smooth="yes"/>
      <point x="270" y="555" smooth="yes"/>
      <point x="182" y="555" type="curve" smooth="yes" name="hr01"/>
      <point x="136" y="555"/>
      <point x="84" y="529"/>
      <point x="51" y="489" type="curve"/>
      <point x="78" y="433" type="line"/>
      <point x="107" y="470" smooth="yes"/>
      <point x="143" y="492" smooth="yes"/>
      <point x="175" y="492" type="curve" smooth="yes"/>
      <point x="215" y="492" smooth="yes"/>
      <point x="235" y="460" smooth="yes"/>
      <point x="235" y="396" type="curve" smooth="yes"/>
      <point x="235" y="291" type="line"/>
      <point x="216" y="317" smooth="yes"/>
      <point x="187" y="331" smooth="yes"/>
      <point x="155" y="331" type="curve" smooth="yes"/>
      <point x="77" y="331" smooth="yes"/>
      <point x="45" y="283" smooth="yes"/>
      <point x="45" y="167" type="curve" smooth="yes"/>
      <point x="45" y="149" type="line" smooth="yes"/>
      <point x="45" y="33" smooth="yes"/>
      <point x="77" y="-15" smooth="yes"/>
    </contour>
    <contour>
      <point x="171" y="48" type="curve" smooth="yes" name="hr02"/>
      <point x="137" y="48" smooth="yes"/>
      <point x="121" y="78" smooth="yes"/>
      <point x="121" y="143" type="curve" smooth="yes"/>
      <point x="121" y="182" type="line" smooth="yes"/>
      <point x="121" y="247" smooth="yes"/>
      <point x="137" y="277" smooth="yes"/>
      <point x="171" y="277" type="curve" smooth="yes"/>
      <point x="213" y="277" smooth="yes"/>
      <point x="235" y="242" smooth="yes"/>
      <point x="235" y="172" type="curve" smooth="yes"/>
      <point x="235" y="145" type="line" smooth="yes"/>
      <point x="235" y="80" smooth="yes"/>
      <point x="214" y="48" smooth="yes"/>
    </contour>
  </outline>
</glyph>
<glyph name="b" format="1">
  <advance width="390"/>
  <unicode hex="0062"/>
  <outline>
    <contour>
      <point x="232" y="-15" type="curve"/>
      <point x="308" y="-15" smooth="yes"/>
      <point x="341" y="49" smooth="yes"/>
      <point x="341" y="195" type="curve" smooth="yes"/>
      <point x="341" y="345" type="line" smooth="yes"/>
      <point x="341" y="491" smooth="yes"/>
      <point x="308" y="555" smooth="yes"/>
      <point x="232" y="555" type="curve" smooth="yes"/>
      <point x="187" y="555"/>
      <point x="154" y="527"/>
      <point x="136" y="475" type="curve"/>
      <point x="136" y="740" type="line"/>
      <point x="63" y="740" type="line"/>
      <point x="63" y="0" type="line" name="hr01"/>
      <point x="110" y="0" type="line"/>
      <point x="132" y="96" type="line"/>
      <point x="146" y="23" smooth="yes"/>
      <point x="180" y="-15" smooth="yes"/>
    </contour>
    <contour>
      <point x="210" y="47" type="curve"/>
      <point x="160" y="47" smooth="yes"/>
      <point x="136" y="119" smooth="yes"/>
      <point x="136" y="270" type="curve" smooth="yes"/>
      <point x="136" y="284" type="line" smooth="yes"/>
      <point x="136" y="427" smooth="yes"/>
      <point x="161" y="493" smooth="yes"/>
      <point x="215" y="493" type="curve" smooth="yes"/>
      <point x="251" y="493" smooth="yes"/>
      <point x="268" y="453" smooth="yes"/>
      <point x="268" y="369" type="curve" smooth="yes"/>
      <point x="268" y="171" type="line" smooth="yes"/>
      <point x="268" y="85" smooth="yes"/>
      <point x="250" y="47" smooth="yes"/>
    </contour>
  </outline>
</glyph>
<glyph name="c" format="1">
  <advance width="346"/>
  <unicode hex="0063"/>
  <outline>
    <contour>
      <point x="179" y="-15" type="curve" name="hr00"/>
      <point x="265" y="-15"/>
      <point x="307" y="36"/>
      <point x="318" y="157" type="curve"/>
      <point x="253" y="167" type="line"/>
      <point x="243" y="79" smooth="yes"/>
      <point x="226" y="48" smooth="yes"/>
      <point x="184" y="48" type="curve" smooth="yes"/>
      <point x="143" y="48" smooth="yes"/>
      <point x="125" y="84" smooth="yes"/>
      <point x="125" y="168" type="curve" smooth="yes"/>
      <point x="125" y="359" type="line" smooth="yes"/>
      <point x="125" y="456" smooth="yes"/>
      <point x="141" y="493" smooth="yes"/>
      <point x="184" y="493" type="curve" smooth="yes"/>
      <point x="222" y="493"/>
      <point x="242" y="458"/>
      <point x="245" y="384" type="curve"/>
      <point x="315" y="403" type="line"/>
      <point x="306" y="508" smooth="yes"/>
      <point x="265" y="555" smooth="yes"/>
      <point x="182" y="555" type="curve" smooth="yes"/>
      <point x="90" y="555" smooth="yes"/>
      <point x="49" y="490" smooth="yes"/>
      <point x="49" y="345" type="curve" smooth="yes"/>
      <point x="49" y="175" type="line" smooth="yes"/>
      <point x="49" y="47" smooth="yes"/>
      <point x="91" y="-15" smooth="yes"/>
    </contour>
  </outline>
</glyph>
<glyph name="d" format="1">
  <advance width="392"/>
  <unicode hex="0064"/>
  <outline>
    <contour>
      <point x="158" y="-15" type="curve"/>
      <point x="210" y="-15"/>
      <point x="245" y="26"/>
      <point x="258" y="104" type="curve"/>
      <point x="282" y="0" type="line"/>
      <point x="329" y="0" type="line"/>
      <point x="329" y="740" type="line"/>
      <point x="256" y="740" type="line"/>
      <point x="256" y="469" type="line"/>
      <point x="239" y="525" smooth="yes"/>
      <point x="205" y="555" smooth="yes"/>
      <point x="158" y="555" type="curve" smooth="yes"/>
      <point x="83" y="555" smooth="yes"/>
      <point x="49" y="490" smooth="yes"/>
      <point x="49" y="345" type="curve" smooth="yes" name="hr01"/>
      <point x="49" y="195" type="line" smooth="yes"/>
      <point x="49" y="50" smooth="yes"/>
      <point x="83" y="-15" smooth="yes"/>
    </contour>
    <contour>
      <point x="253" y="270" type="curve" smooth="yes" name="hr03"/>
      <point x="253" y="115" smooth="yes"/>
      <point x="230" y="47" smooth="yes"/>
      <point x="179" y="47" type="curve" smooth="yes"/>
      <point x="140" y="47" smooth="yes"/>
      <point x="123" y="84" smooth="yes"/>
      <point x="123" y="171" type="curve" smooth="yes"/>
      <point x="123" y="369" type="line" smooth="yes"/>
      <point x="123" y="453" smooth="yes"/>
      <point x="139" y="493" smooth="yes"/>
      <point x="174" y="493" type="curve" smooth="yes"/>
      <point x="230" y="493" smooth="yes"/>
      <point x="253" y="428" smooth="yes"/>
    </contour>
  </outline>
</glyph>
<glyph name="e" format="1">
  <advance width="379"/>
  <unicode hex="0065"/>
  <outline>
    <contour>
      <point x="193" y="-15" type="curve" smooth="yes" name="hr00"/>
      <point x="278" y="-15"/>
      <point x="319" y="32"/>
      <point x="328" y="140" type="curve"/>
      <point x="261" y="151" type="line"/>
      <point x="252" y="76" smooth="yes"/>
      <point x="232" y="47" smooth="yes"/>
      <point x="189" y="47" type="curve" smooth="yes"/>
      <point x="146" y="47" smooth="yes"/>
      <point x="125" y="91" smooth="yes"/>
      <point x="125" y="181" type="curve" smooth="yes"/>
      <point x="125" y="238" type="line"/>
      <point x="330" y="238" type="line"/>
      <point x="330" y="345" type="line" smooth="yes"/>
      <point x="330" y="493" smooth="yes"/>
      <point x="289" y="555" smooth="yes"/>
      <point x="193" y="555" type="curve" smooth="yes"/>
      <point x="93" y="555" smooth="yes"/>
      <point x="49" y="490" smooth="yes"/>
      <point x="49" y="345" type="curve" smooth="yes"/>
      <point x="49" y="195" type="line" smooth="yes"/>
      <point x="49" y="50" smooth="yes"/>
      <point x="93" y="-15" smooth="yes"/>
    </contour>
    <contour>
      <point x="125" y="302" type="line"/>
      <point x="125" y="359" type="line" smooth="yes"/>
      <point x="125" y="450" smooth="yes"/>
      <point x="146" y="493" smooth="yes"/>
      <point x="190" y="493" type="curve" smooth="yes"/>
      <point x="233" y="493" smooth="yes"/>
      <point x="253" y="450" smooth="yes"/>
      <point x="253" y="359" type="curve" smooth="yes"/>
      <point x="253" y="302" type="line"/>
    </contour>
  </outline>
</glyph>
<glyph name="f" format="1">
  <advance width="216"/>
  <unicode hex="0066"/>
  <outline>
    <contour>
      <point x="62" y="0" type="line" name="hr00"/>
      <point x="138" y="0" type="line"/>
      <point x="138" y="478" type="line"/>
      <point x="201" y="478" type="line"/>
      <point x="201" y="540" type="line"/>
      <point x="138" y="540" type="line"/>
      <point x="138" y="560" type="line" smooth="yes"/>
      <point x="138" y="650" smooth="yes"/>
      <point x="153" y="688" smooth="yes"/>
      <point x="189" y="688" type="curve" smooth="yes"/>
      <point x="200" y="688"/>
      <point x="209" y="685"/>
      <point x="222" y="678" type="curve"/>
      <point x="238" y="743" type="line"/>
      <point x="219" y="751" smooth="yes"/>
      <point x="198" y="755" smooth="yes"/>
      <point x="176" y="755" type="curve" smooth="yes"/>
      <point x="98" y="755" smooth="yes"/>
      <point x="62" y="689" smooth="yes"/>
      <point x="62" y="545" type="curve" smooth="yes"/>
      <point x="62" y="540" type="line"/>
      <point x="19" y="540" type="line"/>
      <point x="19" y="478" type="line"/>
      <point x="62" y="478" type="line"/>
    </contour>
  </outline>
</glyph>
<glyph name="g" format="1">
  <advance width="373"/>
  <unicode hex="0067"/>
  <outline>
    <contour>
      <point x="142" y="-195" type="curve" smooth="yes"/>
      <point x="230" y="-195" type="line" smooth="yes"/>
      <point x="313" y="-195" smooth="yes"/>
      <point x="354" y="-153" smooth="yes"/>
      <point x="354" y="-69" type="curve" smooth="yes"/>
      <point x="354" y="14" smooth="yes"/>
      <point x="313" y="56" smooth="yes"/>
      <point x="230" y="56" type="curve" smooth="yes"/>
      <point x="168" y="56" type="line" smooth="yes"/>
      <point x="131" y="56" smooth="yes"/>
      <point x="113" y="76" smooth="yes"/>
      <point x="113" y="116" type="curve" smooth="yes"/>
      <point x="113" y="139"/>
      <point x="120" y="155"/>
      <point x="135" y="166" type="curve"/>
      <point x="150" y="162" smooth="yes"/>
      <point x="167" y="160" smooth="yes"/>
      <point x="186" y="160" type="curve" smooth="yes"/>
      <point x="288" y="160" smooth="yes"/>
      <point x="327" y="214" smooth="yes"/>
      <point x="327" y="353" type="curve" smooth="yes"/>
      <point x="327" y="362" type="line" smooth="yes" name="hr01"/>
      <point x="327" y="409"/>
      <point x="321" y="447"/>
      <point x="310" y="476" type="curve"/>
      <point x="369" y="476" type="line"/>
      <point x="369" y="555" type="line"/>
      <point x="358" y="555" type="line"/>
      <point x="280" y="524" type="line"/>
      <point x="257" y="545" smooth="yes"/>
      <point x="226" y="555" smooth="yes"/>
      <point x="186" y="555" type="curve" smooth="yes"/>
      <point x="86" y="555" smooth="yes"/>
      <point x="47" y="501" smooth="yes"/>
      <point x="47" y="362" type="curve" smooth="yes"/>
      <point x="47" y="353" type="line" smooth="yes"/>
      <point x="47" y="266"/>
      <point x="62" y="213"/>
      <point x="96" y="185" type="curve" name="hr02"/>
      <point x="68" y="170" smooth="yes"/>
      <point x="53" y="143" smooth="yes"/>
      <point x="53" y="108" type="curve" smooth="yes"/>
      <point x="53" y="77"/>
      <point x="61" y="56"/>
      <point x="77" y="44" type="curve"/>
      <point x="38" y="25" smooth="yes"/>
      <point x="19" y="-12" smooth="yes"/>
      <point x="19" y="-69" type="curve" smooth="yes"/>
      <point x="19" y="-153" smooth="yes"/>
      <point x="60" y="-195" smooth="yes"/>
    </contour>
    <contour>
      <point x="236" y="-6" type="line" smooth="yes"/>
      <point x="267" y="-6" smooth="yes"/>
      <point x="281" y="-25" smooth="yes"/>
      <point x="281" y="-69" type="curve" smooth="yes"/>
      <point x="281" y="-112" smooth="yes"/>
      <point x="267" y="-131" smooth="yes"/>
      <point x="236" y="-131" type="curve" smooth="yes"/>
      <point x="136" y="-131" type="line" smooth="yes" name="hr03"/>
      <point x="105" y="-131" smooth="yes"/>
      <point x="91" y="-112" smooth="yes"/>
      <point x="91" y="-69" type="curve" smooth="yes"/>
      <point x="91" y="-26" smooth="yes"/>
      <point x="105" y="-6" smooth="yes"/>
      <point x="136" y="-6" type="curve" smooth="yes"/>
    </contour>
    <contour>
      <point x="251" y="335" type="line" smooth="yes" name="hr04"/>
      <point x="251" y="253" smooth="yes"/>
      <point x="232" y="217" smooth="yes"/>
      <point x="187" y="217" type="curve" smooth="yes"/>
      <point x="143" y="217" smooth="yes"/>
      <point x="123" y="254" smooth="yes"/>
      <point x="123" y="335" type="curve" smooth="yes"/>
      <point x="123" y="380" type="line" smooth="yes"/>
      <point x="123" y="461" smooth="yes"/>
      <point x="143" y="498" smooth="yes"/>
      <point x="187" y="498" type="curve" smooth="yes"/>
      <point x="232" y="498" smooth="yes"/>
      <point x="251" y="462" smooth="yes"/>
      <point x="251" y="380" type="curve" smooth="yes"/>
    </contour>
  </outline>
</glyph>
<glyph name="h" format="1">
  <advance width="398"/>
  <unicode hex="0068"/>
  <outline>
    <contour>
      <point x="63" y="0" type="line" name="hr00"/>
      <point x="140" y="0" type="line"/>
      <point x="140" y="279" type="line" smooth="yes"/>
      <point x="140" y="421" smooth="yes"/>
      <point x="167" y="493" smooth="yes"/>
      <point x="216" y="493" type="curve" smooth="yes"/>
      <point x="249" y="493" smooth="yes"/>
      <point x="265" y="452" smooth="yes"/>
      <point x="265" y="368" type="curve" smooth="yes"/>
      <point x="265" y="0" type="line"/>
      <point x="342" y="0" type="line"/>
      <point x="342" y="341" type="line" smooth="yes"/>
      <point x="342" y="490" smooth="yes"/>
      <point x="310" y="555" smooth="yes"/>
      <point x="235" y="555" type="curve" smooth="yes"/>
      <point x="184" y="555"/>
      <point x="151" y="529"/>
      <point x="136" y="476" type="curve"/>
      <point x="136" y="740" type="line"/>
      <point x="63" y="740" type="line"/>
    </contour>
  </outline>
</glyph>
<glyph name="i" format="1">
  <advance width="203"/>
  <unicode hex="0069"/>
  <outline>
    <contour>
      <point x="63" y="0" type="line" name="hr00"/>
      <point x="140" y="0" type="line"/>
      <point x="140" y="540" type="line"/>
      <point x="63" y="540" type="line"/>
    </contour>
    <contour>
      <point x="60" y="646" type="line"/>
      <point x="143" y="646" type="line"/>
      <point x="143" y="740" type="line"/>
      <point x="60" y="740" type="line"/>
    </contour>
  </outline>
</glyph>
<glyph name="k" format="1">
  <advance width="359"/>
  <unicode hex="006B"/>
  <outline>
    <contour>
      <point x="140" y="0" type="line" name="hr00"/>
      <point x="140" y="204" type="line"/>
      <point x="166" y="248" type="line"/>
      <point x="276" y="0" type="line"/>
      <point x="359" y="0" type="line"/>
      <point x="211" y="323" type="line"/>
      <point x="342" y="540" type="line"/>
      <point x="262" y="540" type="line"/>
      <point x="140" y="327" type="line"/>
      <point x="140" y="740" type="line"/>
      <point x="63" y="740" type="line"/>
      <point x="63" y="0" type="line"/>
    </contour>
  </outline>
</glyph>
<glyph name="l" format="1">
  <advance width="203"/>
  <unicode hex="006C"/>
  <outline>
    <contour>
      <point x="63" y="0" type="line" name="hr00"/>
      <point x="140" y="0" type="line"/>
      <point x="140" y="740" type="line"/>
      <point x="63" y="740" type="line"/>
    </contour>
  </outline>
</glyph>
<glyph name="m" format="1">
  <advance width="587"/>
  <unicode hex="006D"/>
  <outline>
    <contour>
      <point x="63" y="0" type="line"/>
      <point x="140" y="0" type="line"/>
      <point x="140" y="279" type="line" smooth="yes"/>
      <point x="140" y="417" smooth="yes"/>
      <point x="166" y="493" smooth="yes"/>
      <point x="212" y="493" type="curve" smooth="yes"/>
      <point x="243" y="493" smooth="yes"/>
      <point x="258" y="453" smooth="yes"/>
      <point x="258" y="368" type="curve" smooth="yes"/>
      <point x="258" y="0" type="line"/>
      <point x="335" y="0" type="line"/>
      <point x="335" y="279" type="line" smooth="yes"/>
      <point x="335" y="417" smooth="yes"/>
      <point x="360" y="493" smooth="yes"/>
      <point x="406" y="493" type="curve" smooth="yes"/>
      <point x="438" y="493" smooth="yes"/>
      <point x="453" y="453" smooth="yes"/>
      <point x="453" y="368" type="curve" smooth="yes"/>
      <point x="453" y="0" type="line"/>
      <point x="530" y="0" type="line"/>
      <point x="530" y="341" type="line" smooth="yes"/>
      <point x="530" y="490" smooth="yes"/>
      <point x="498" y="555" smooth="yes"/>
      <point x="424" y="555" type="curve" smooth="yes"/>
      <point x="372" y="555"/>
      <point x="339" y="522"/>
      <point x="325" y="457" type="curve"/>
      <point x="311" y="524" smooth="yes"/>
      <point x="280" y="555" smooth="yes"/>
      <point x="229" y="555" type="curve" smooth="yes"/>
      <point x="176" y="555"/>
      <point x="143" y="521"/>
      <point x="130" y="455" type="curve"/>
      <point x="110" y="540" type="line" name="hr01"/>
      <point x="63" y="540" type="line"/>
    </contour>
  </outline>
</glyph>
<glyph name="n" format="1">
  <advance width="398"/>
  <unicode hex="006E"/>
  <outline>
    <contour>
      <point x="63" y="0" type="line"/>
      <point x="140" y="0" type="line"/>
      <point x="140" y="279" type="line" smooth="yes"/>
      <point x="140" y="420" smooth="yes"/>
      <point x="166" y="493" smooth="yes"/>
      <point x="216" y="493" type="curve" smooth="yes"/>
      <point x="249" y="493" smooth="yes"/>
      <point x="265" y="452" smooth="yes"/>
      <point x="265" y="368" type="curve" smooth="yes"/>
      <point x="265" y="0" type="line"/>
      <point x="342" y="0" type="line"/>
      <point x="342" y="341" type="line" smooth="yes"/>
      <point x="342" y="490" smooth="yes"/>
      <point x="310" y="555" smooth="yes"/>
      <point x="235" y="555" type="curve" smooth="yes"/>
      <point x="179" y="555"/>
      <point x="144" y="521"/>
      <point x="130" y="454" type="curve"/>
      <point x="110" y="540" type="line" name="hr01"/>
      <point x="63" y="540" type="line"/>
    </contour>
  </outline>
</glyph>
<glyph name="o" format="1">
  <advance width="379"/>
  <unicode hex="006F"/>
  <outline>
    <contour>
      <point x="190" y="-15" type="curve" name="hr00"/>
      <point x="287" y="-15" smooth="yes"/>
      <point x="330" y="49" smooth="yes"/>
      <point x="330" y="195" type="curve" smooth="yes"/>
      <point x="330" y="345" type="line"/>
      <point x="330" y="490" smooth="yes"/>
      <point x="287" y="555" smooth="yes"/>
      <point x="190" y="555" type="curve" smooth="yes"/>
      <point x="92" y="555" smooth="yes"/>
      <point x="49" y="491" smooth="yes"/>
      <point x="49" y="345" type="curve" smooth="yes"/>
      <point x="49" y="195" type="line" smooth="yes"/>
      <point x="49" y="49" smooth="yes"/>
      <point x="92" y="-15" smooth="yes"/>
    </contour>
    <contour>
      <point x="253" y="181" type="line"/>
      <point x="253" y="90" smooth="yes"/>
      <point x="233" y="47" smooth="yes"/>
      <point x="190" y="47" type="curve" smooth="yes"/>
      <point x="146" y="47" smooth="yes"/>
      <point x="125" y="90" smooth="yes"/>
      <point x="125" y="181" type="curve" smooth="yes"/>
      <point x="125" y="359" type="line" smooth="yes"/>
      <point x="125" y="450" smooth="yes"/>
      <point x="146" y="493" smooth="yes"/>
      <point x="190" y="493" type="curve" smooth="yes"/>
      <point x="233" y="493" smooth="yes"/>
      <point x="253" y="450" smooth="yes"/>
      <point x="253" y="359" type="curve" smooth="yes"/>
    </contour>
  </outline>
</glyph>
<glyph name="p" format="1">
  <advance width="390"/>
  <unicode hex="0070"/>
  <outline>
    <contour>
      <point x="63" y="-180" type="line"/>
      <point x="136" y="-180" type="line"/>
      <point x="136" y="79" type="line"/>
      <point x="150" y="18" smooth="yes"/>
      <point x="184" y="-15" smooth="yes"/>
      <point x="232" y="-15" type="curve" smooth="yes"/>
      <point x="308" y="-15" smooth="yes"/>
      <point x="341" y="49" smooth="yes"/>
      <point x="341" y="195" type="curve" smooth="yes"/>
      <point x="341" y="345" type="line" smooth="yes"/>
      <point x="341" y="491" smooth="yes"/>
      <point x="308" y="555" smooth="yes"/>
      <point x="232" y="555" type="curve" smooth="yes"/>
      <point x="181" y="555"/>
      <point x="144" y="519"/>
      <point x="130" y="453" type="curve" name="hr01"/>
      <point x="110" y="540" type="line"/>
      <point x="63" y="540" type="line" name="hr02"/>
    </contour>
    <contour>
      <point x="210" y="47" type="curve"/>
      <point x="160" y="47" smooth="yes"/>
      <point x="136" y="118" smooth="yes"/>
      <point x="136" y="270" type="curve" smooth="yes"/>
      <point x="136" y="284" type="line" smooth="yes" name="hr03"/>
      <point x="137" y="429" smooth="yes"/>
      <point x="162" y="493" smooth="yes"/>
      <point x="215" y="493" type="curve" smooth="yes"/>
      <point x="251" y="493" smooth="yes"/>
      <point x="268" y="453" smooth="yes"/>
      <point x="268" y="369" type="curve" smooth="yes"/>
      <point x="268" y="171" type="line" smooth="yes"/>
      <point x="268" y="85" smooth="yes"/>
      <point x="250" y="47" smooth="yes"/>
    </contour>
  </outline>
</glyph>
<glyph name="q" format="1">
  <advance width="390"/>
  <unicode hex="0071"/>
  <outline>
    <contour>
      <point x="253" y="-180" type="line"/>
      <point x="253" y="79" type="line"/>
      <point x="237" y="17" smooth="yes"/>
      <point x="204" y="-15" smooth="yes"/>
      <point x="158" y="-15" type="curve" smooth="yes"/>
      <point x="83" y="-15" smooth="yes"/>
      <point x="49" y="50" smooth="yes"/>
      <point x="49" y="195" type="curve" smooth="yes"/>
      <point x="49" y="345" type="line" smooth="yes"/>
      <point x="49" y="490" smooth="yes"/>
      <point x="83" y="555" smooth="yes"/>
      <point x="158" y="555" type="curve" smooth="yes"/>
      <point x="209" y="555"/>
      <point x="244" y="520"/>
      <point x="259" y="456" type="curve"/>
      <point x="279" y="540" type="line"/>
      <point x="326" y="540" type="line"/>
      <point x="326" y="-180" type="line"/>
    </contour>
    <contour>
      <point x="179" y="47" type="curve"/>
      <point x="229" y="47" smooth="yes"/>
      <point x="251" y="110" smooth="yes"/>
      <point x="253" y="256" type="curve" smooth="yes"/>
      <point x="253" y="284" type="line" smooth="yes"/>
      <point x="251" y="433" smooth="yes"/>
      <point x="228" y="493" smooth="yes"/>
      <point x="174" y="493" type="curve" smooth="yes"/>
      <point x="139" y="493" smooth="yes"/>
      <point x="123" y="453" smooth="yes"/>
      <point x="123" y="369" type="curve" smooth="yes"/>
      <point x="123" y="171" type="line" smooth="yes" name="hr01"/>
      <point x="123" y="84" smooth="yes"/>
      <point x="140" y="47" smooth="yes"/>
    </contour>
  </outline>
</glyph>
<glyph name="r" format="1">
  <advance width="258"/>
  <unicode hex="0072"/>
  <outline>
    <contour>
      <point x="63" y="0" type="line"/>
      <point x="140" y="0" type="line"/>
      <point x="140" y="318" type="line" smooth="yes"/>
      <point x="140" y="423" smooth="yes"/>
      <point x="166" y="476" smooth="yes"/>
      <point x="217" y="476" type="curve" smooth="yes"/>
      <point x="225" y="476"/>
      <point x="236" y="473"/>
      <point x="244" y="469" type="curve" name="hr01"/>
      <point x="250" y="553" type="line" name="hr02"/>
      <point x="244" y="554" smooth="yes"/>
      <point x="236" y="555" smooth="yes"/>
      <point x="230" y="555" type="curve" smooth="yes"/>
      <point x="178" y="555"/>
      <point x="145" y="519"/>
      <point x="132" y="448" type="curve" name="hr03"/>
      <point x="110" y="540" type="line"/>
      <point x="63" y="540" type="line"/>
    </contour>
  </outline>
</glyph>
<glyph name="s" format="1">
  <advance width="356"/>
  <unicode hex="0073"/>
  <outline>
    <contour>
      <point x="179" y="-15" type="curve" name="hr00"/>
      <point x="271" y="-15" smooth="yes"/>
      <point x="315" y="30" smooth="yes"/>
      <point x="315" y="125" type="curve" smooth="yes"/>
      <point x="315" y="192" smooth="yes"/>
      <point x="292" y="234" smooth="yes"/>
      <point x="234" y="274" type="curve" smooth="yes"/>
      <point x="168" y="320" type="line" smooth="yes"/>
      <point x="138" y="342" smooth="yes"/>
      <point x="126" y="368" smooth="yes"/>
      <point x="126" y="415" type="curve" smooth="yes"/>
      <point x="126" y="467" smooth="yes"/>
      <point x="145" y="494" smooth="yes"/>
      <point x="183" y="494" type="curve" smooth="yes"/>
      <point x="220" y="494"/>
      <point x="240" y="462"/>
      <point x="244" y="397" type="curve"/>
      <point x="313" y="411" type="line"/>
      <point x="304" y="511" smooth="yes"/>
      <point x="265" y="555" smooth="yes"/>
      <point x="184" y="555" type="curve" smooth="yes"/>
      <point x="95" y="555" smooth="yes"/>
      <point x="53" y="508" smooth="yes"/>
      <point x="53" y="408" type="curve" smooth="yes"/>
      <point x="53" y="339" smooth="yes"/>
      <point x="79" y="293" smooth="yes"/>
      <point x="130" y="257" type="curve" smooth="yes"/>
      <point x="199" y="208" type="line" smooth="yes"/>
      <point x="228" y="187" smooth="yes"/>
      <point x="241" y="160" smooth="yes"/>
      <point x="241" y="121" type="curve" smooth="yes"/>
      <point x="241" y="72" smooth="yes"/>
      <point x="220" y="46" smooth="yes"/>
      <point x="179" y="46" type="curve" smooth="yes"/>
      <point x="138" y="46"/>
      <point x="118" y="81"/>
      <point x="113" y="163" type="curve"/>
      <point x="42" y="150" type="line"/>
      <point x="51" y="37" smooth="yes"/>
      <point x="94" y="-15" smooth="yes"/>
    </contour>
  </outline>
</glyph>
<glyph name="t" format="1">
  <advance width="239"/>
  <unicode hex="0074"/>
  <outline>
    <contour>
      <point x="160" y="-15" type="curve" name="hr00"/>
      <point x="184" y="-15"/>
      <point x="208" y="-8"/>
      <point x="230" y="6" type="curve"/>
      <point x="215" y="65" type="line"/>
      <point x="201" y="54" smooth="yes"/>
      <point x="188" y="49" smooth="yes"/>
      <point x="175" y="49" type="curve" smooth="yes"/>
      <point x="157" y="49" smooth="yes"/>
      <point x="146" y="69" smooth="yes"/>
      <point x="146" y="102" type="curve" smooth="yes"/>
      <point x="146" y="478" type="line"/>
      <point x="217" y="478" type="line"/>
      <point x="217" y="540" type="line"/>
      <point x="146" y="540" type="line"/>
      <point x="146" y="673" type="line"/>
      <point x="100" y="673" type="line"/>
      <point x="73" y="540" type="line"/>
      <point x="20" y="540" type="line"/>
      <point x="20" y="478" type="line"/>
      <point x="70" y="478" type="line"/>
      <point x="70" y="118" type="line" smooth="yes"/>
      <point x="70" y="28" smooth="yes"/>
      <point x="99" y="-15" smooth="yes"/>
    </contour>
  </outline>
</glyph>
<glyph name="u" format="1">
  <advance width="391"/>
  <unicode hex="0075"/>
  <outline>
    <contour>
      <point x="167" y="-15" type="curve"/>
      <point x="214" y="-15"/>
      <point x="249" y="15"/>
      <point x="264" y="66" type="curve"/>
      <point x="280" y="0" type="line"/>
      <point x="327" y="0" type="line"/>
      <point x="327" y="540" type="line"/>
      <point x="251" y="540" type="line"/>
      <point x="251" y="145" type="line" smooth="yes"/>
      <point x="251" y="80" smooth="yes"/>
      <point x="229" y="48" smooth="yes"/>
      <point x="184" y="48" type="curve" smooth="yes"/>
      <point x="147" y="48" smooth="yes"/>
      <point x="132" y="76" smooth="yes"/>
      <point x="132" y="143" type="curve" smooth="yes"/>
      <point x="132" y="540" type="line" name="hr01"/>
      <point x="56" y="540" type="line"/>
      <point x="56" y="149" type="line" smooth="yes"/>
      <point x="56" y="32" smooth="yes"/>
      <point x="88" y="-15" smooth="yes"/>
    </contour>
  </outline>
</glyph>
<glyph name="v" format="1">
  <advance width="342"/>
  <unicode hex="0076"/>
  <outline>
    <contour>
      <point x="94" y="540" type="line" name="hr00"/>
      <point x="16" y="540" type="line"/>
      <point x="130" y="0" type="line"/>
      <point x="213" y="0" type="line"/>
      <point x="326" y="540" type="line"/>
      <point x="249" y="540" type="line"/>
      <point x="171" y="121" type="line"/>
    </contour>
  </outline>
</glyph>
<glyph name="w" format="1">
  <advance width="544"/>
  <unicode hex="0077"/>
  <outline>
    <contour>
      <point x="344" y="0" type="line" name="hr00"/>
      <point x="422" y="0" type="line"/>
      <point x="520" y="540" type="line"/>
      <point x="445" y="540" type="line"/>
      <point x="380" y="137" type="line"/>
      <point x="310" y="540" type="line"/>
      <point x="233" y="540" type="line"/>
      <point x="165" y="136" type="line"/>
      <point x="100" y="540" type="line"/>
      <point x="24" y="540" type="line"/>
      <point x="123" y="0" type="line"/>
      <point x="200" y="0" type="line"/>
      <point x="272" y="420" type="line"/>
    </contour>
  </outline>
</glyph>
<glyph name="x" format="1">
  <advance width="348"/>
  <unicode hex="0078"/>
  <outline>
    <contour>
      <point x="104" y="540" type="line" name="hr00"/>
      <point x="19" y="540" type="line"/>
      <point x="131" y="274" type="line"/>
      <point x="17" y="0" type="line"/>
      <point x="97" y="0" type="line"/>
      <point x="166" y="190" type="line"/>
      <point x="247" y="0" type="line"/>
      <point x="332" y="0" type="line"/>
      <point x="217" y="272" type="line"/>
      <point x="328" y="540" type="line"/>
      <point x="249" y="540" type="line"/>
      <point x="182" y="355" type="line"/>
    </contour>
  </outline>
</glyph>
<glyph name="y" format="1">
  <advance width="349"/>
  <unicode hex="0079"/>
  <outline>
    <contour>
      <point x="89" y="-195" type="curve" name="hr00"/>
      <point x="139" y="-195" smooth="yes"/>
      <point x="178" y="-152" smooth="yes"/>
      <point x="194" y="-82" type="curve" smooth="yes"/>
      <point x="332" y="540" type="line"/>
      <point x="254" y="540" type="line"/>
      <point x="179" y="148" type="line"/>
      <point x="93" y="540" type="line"/>
      <point x="16" y="540" type="line"/>
      <point x="148" y="-3" type="line"/>
      <point x="140" y="-49" type="line" smooth="yes"/>
      <point x="129" y="-106" smooth="yes"/>
      <point x="113" y="-131" smooth="yes"/>
      <point x="84" y="-131" type="curve" smooth="yes"/>
      <point x="65" y="-131"/>
      <point x="45" y="-121"/>
      <point x="20" y="-98" type="curve"/>
      <point x="-7" y="-150" type="line"/>
      <point x="23" y="-179" smooth="yes"/>
      <point x="57" y="-195" smooth="yes"/>
    </contour>
  </outline>
</glyph>
<glyph name="z" format="1">
  <advance width="320"/>
  <unicode hex="007A"/>
  <outline>
    <contour>
      <point x="30" y="0" type="line" name="hr00"/>
      <point x="292" y="0" type="line"/>
      <point x="292" y="62" type="line"/>
      <point x="111" y="62" type="line"/>
      <point x="291" y="499" type="line"/>
      <point x="291" y="540" type="line"/>
      <point x="41" y="540" type="line"/>
      <point x="41" y="478" type="line"/>
      <point x="207" y="478" type="line"/>
      <point x="30" y="41" type="line"/>
    </contour>
  </outline>
</glyph>
<glyph name="braceleft" format="1">
  <advance width="282"/>
  <unicode hex="007B"/>
  <outline>
    <contour>
      <point x="208" y="-105" type="curve" smooth="yes" name="hr00"/>
      <point x="227" y="-105"/>
      <point x="246" y="-100"/>
      <point x="260" y="-92" type="curve"/>
      <point x="245" y="-27" type="line"/>
      <point x="233" y="-34" smooth="yes"/>
      <point x="222" y="-37" smooth="yes"/>
      <point x="211" y="-37" type="curve" smooth="yes"/>
      <point x="175" y="-37" smooth="yes"/>
      <point x="162" y="-5" smooth="yes"/>
      <point x="162" y="85" type="curve" smooth="yes"/>
      <point x="162" y="166" type="line" smooth="yes"/>
      <point x="162" y="256"/>
      <point x="147" y="315"/>
      <point x="116" y="350" type="curve"/>
      <point x="147" y="384" smooth="yes"/>
      <point x="162" y="444" smooth="yes"/>
      <point x="162" y="535" type="curve" smooth="yes"/>
      <point x="162" y="616" type="line" smooth="yes"/>
      <point x="162" y="706" smooth="yes"/>
      <point x="175" y="738" smooth="yes"/>
      <point x="211" y="738" type="curve" smooth="yes"/>
      <point x="222" y="738"/>
      <point x="233" y="735"/>
      <point x="245" y="728" type="curve"/>
      <point x="260" y="793" type="line"/>
      <point x="246" y="801" smooth="yes"/>
      <point x="227" y="806" smooth="yes"/>
      <point x="208" y="806" type="curve" smooth="yes"/>
      <point x="114" y="806" smooth="yes"/>
      <point x="85" y="722" smooth="yes"/>
      <point x="85" y="595" type="curve" smooth="yes"/>
      <point x="85" y="499" type="line" smooth="yes"/>
      <point x="85" y="411"/>
      <point x="68" y="379"/>
      <point x="20" y="379" type="curve"/>
      <point x="20" y="322" type="line"/>
      <point x="68" y="322" smooth="yes"/>
      <point x="85" y="291" smooth="yes"/>
      <point x="85" y="202" type="curve" smooth="yes"/>
      <point x="85" y="106" type="line" smooth="yes"/>
      <point x="85" y="-21" smooth="yes"/>
      <point x="114" y="-105" smooth="yes"/>
    </contour>
  </outline>
</glyph>
<glyph name="bar" format="1">
  <advance width="234"/>
  <unicode hex="007C"/>
  <outline>
    <contour>
      <point x="91" y="-52" type="line" name="hr00"/>
      <point x="143" y="-52" type="line"/>
      <point x="143" y="752" type="line"/>
      <point x="91" y="752" type="line"/>
    </contour>
  </outline>
</glyph>
<glyph name="asciitilde" format="1">
  <advance width="377"/>
  <unicode hex="007E"/>
  <outline>
    <contour>
      <point x="56" y="319" type="line"/>
      <point x="74" y="306" smooth="yes"/>
      <point x="94" y="301" smooth="yes"/>
      <point x="113" y="301" type="curve" smooth="yes"/>
      <point x="163" y="301" smooth="yes"/>
      <point x="213" y="336" smooth="yes"/>
      <point x="264" y="336" type="curve" smooth="yes" name="hr01"/>
      <point x="282" y="336"/>
      <point x="302" y="331"/>
      <point x="320" y="319" type="curve"/>
      <point x="320" y="381" type="line"/>
      <point x="302" y="393" smooth="yes"/>
      <point x="282" y="397" smooth="yes"/>
      <point x="264" y="397" type="curve" smooth="yes"/>
      <point x="213" y="397" smooth="yes"/>
      <point x="162" y="364" smooth="yes"/>
      <point x="113" y="364" type="curve" smooth="yes" name="hr02"/>
      <point x="94" y="364"/>
      <point x="74" y="369"/>
      <point x="56" y="381" type="curve"/>
    </contour>
  </outline>
</glyph>
<glyph name="cent" format="1">
  <advance width="351"/>
  <unicode hex="00A2"/>
  <outline>
    <contour>
      <point x="160" y="-15" type="line"/>
      <point x="212" y="-15" type="line"/>
      <point x="212" y="87" type="line"/>
      <point x="278" y="97"/>
      <point x="314" y="151"/>
      <point x="324" y="257" type="curve"/>
      <point x="257" y="267" type="line"/>
      <point x="250" y="181" smooth="yes"/>
      <point x="230" y="148" smooth="yes"/>
      <point x="187" y="148" type="curve" smooth="yes"/>
      <point x="144" y="148" smooth="yes"/>
      <point x="125" y="184" smooth="yes"/>
      <point x="125" y="268" type="curve" smooth="yes"/>
      <point x="125" y="419" type="line" smooth="yes"/>
      <point x="125" y="516" smooth="yes"/>
      <point x="142" y="553" smooth="yes"/>
      <point x="187" y="553" type="curve" smooth="yes"/>
      <point x="226" y="553"/>
      <point x="246" y="519"/>
      <point x="251" y="444" type="curve" name="hr01"/>
      <point x="320" y="463" type="line"/>
      <point x="312" y="557"/>
      <point x="277" y="605"/>
      <point x="212" y="613" type="curve"/>
      <point x="212" y="715" type="line"/>
      <point x="160" y="715" type="line" name="hr02"/>
      <point x="160" y="613" type="line"/>
      <point x="84" y="603" smooth="yes"/>
      <point x="49" y="538" smooth="yes"/>
      <point x="49" y="405" type="curve" smooth="yes"/>
      <point x="49" y="275" type="line" smooth="yes"/>
      <point x="49" y="156"/>
      <point x="85" y="95"/>
      <point x="160" y="86" type="curve"/>
    </contour>
  </outline>
</glyph>
<glyph name="currency" format="1">
  <advance width="439"/>
  <unicode hex="00A4"/>
  <outline>
    <contour>
      <point x="64" y="61" type="line" name="hr00"/>
      <point x="141" y="170" type="line"/>
      <point x="162" y="160" smooth="yes"/>
      <point x="187" y="155" smooth="yes"/>
      <point x="220" y="155" type="curve" smooth="yes"/>
      <point x="252" y="155"/>
      <point x="278" y="160"/>
      <point x="298" y="170" type="curve"/>
      <point x="376" y="61" type="line"/>
      <point x="419" y="91" type="line"/>
      <point x="337" y="207" type="line"/>
      <point x="355" y="235" smooth="yes"/>
      <point x="364" y="276" smooth="yes"/>
      <point x="364" y="332" type="curve" smooth="yes"/>
      <point x="364" y="355" type="line" smooth="yes"/>
      <point x="364" y="411"/>
      <point x="355" y="452"/>
      <point x="336" y="480" type="curve"/>
      <point x="418" y="596" type="line"/>
      <point x="375" y="626" type="line"/>
      <point x="297" y="516" type="line"/>
      <point x="277" y="527" smooth="yes"/>
      <point x="252" y="532" smooth="yes"/>
      <point x="220" y="532" type="curve" smooth="yes"/>
      <point x="186" y="532"/>
      <point x="160" y="527"/>
      <point x="140" y="516" type="curve"/>
      <point x="63" y="626" type="line"/>
      <point x="20" y="596" type="line"/>
      <point x="102" y="480" type="line"/>
      <point x="84" y="452" smooth="yes"/>
      <point x="75" y="412" smooth="yes"/>
      <point x="75" y="355" type="curve" smooth="yes"/>
      <point x="75" y="332" type="line" smooth="yes"/>
      <point x="75" y="276"/>
      <point x="84" y="234"/>
      <point x="102" y="206" type="curve"/>
      <point x="21" y="91" type="line"/>
    </contour>
    <contour>
      <point x="220" y="213" type="curve"/>
      <point x="172" y="213" smooth="yes"/>
      <point x="150" y="246" smooth="yes"/>
      <point x="150" y="320" type="curve" smooth="yes"/>
      <point x="150" y="366" type="line" smooth="yes"/>
      <point x="150" y="440" smooth="yes"/>
      <point x="172" y="474" smooth="yes"/>
      <point x="220" y="474" type="curve" smooth="yes"/>
      <point x="267" y="474" smooth="yes"/>
      <point x="289" y="440" smooth="yes"/>
      <point x="289" y="366" type="curve" smooth="yes"/>
      <point x="289" y="320" type="line" smooth="yes"/>
      <point x="289" y="247" smooth="yes"/>
      <point x="267" y="213" smooth="yes"/>
    </contour>
  </outline>
</glyph>
<glyph name="yen" format="1">
  <advance width="388"/>
  <unicode hex="00A5"/>
  <outline>
    <contour>
      <point x="99" y="700" type="line" name="hr00"/>
      <point x="16" y="700" type="line"/>
      <point x="113" y="364" type="line"/>
      <point x="46" y="364" type="line"/>
      <point x="46" y="312" type="line"/>
      <point x="128" y="312" type="line"/>
      <point x="151" y="234" type="line"/>
      <point x="151" y="214" type="line"/>
      <point x="46" y="214" type="line"/>
      <point x="46" y="162" type="line"/>
      <point x="151" y="162" type="line"/>
      <point x="151" y="0" type="line"/>
      <point x="235" y="0" type="line"/>
      <point x="235" y="162" type="line"/>
      <point x="341" y="162" type="line"/>
      <point x="341" y="214" type="line"/>
      <point x="235" y="214" type="line"/>
      <point x="235" y="234" type="line"/>
      <point x="258" y="312" type="line"/>
      <point x="341" y="312" type="line"/>
      <point x="341" y="364" type="line"/>
      <point x="273" y="364" type="line"/>
      <point x="371" y="700" type="line"/>
      <point x="288" y="700" type="line"/>
      <point x="193" y="346" type="line"/>
    </contour>
  </outline>
</glyph>
<glyph name="section" format="1">
  <advance width="340"/>
  <unicode hex="00A7"/>
  <outline>
    <contour>
      <point x="168" y="-162" type="curve"/>
      <point x="256" y="-162" smooth="yes"/>
      <point x="297" y="-117" smooth="yes"/>
      <point x="297" y="-19" type="curve" smooth="yes"/>
      <point x="297" y="38"/>
      <point x="280" y="79"/>
      <point x="243" y="114" type="curve"/>
      <point x="280" y="135" smooth="yes"/>
      <point x="299" y="177" smooth="yes"/>
      <point x="299" y="241" type="curve" smooth="yes"/>
      <point x="299" y="307" smooth="yes"/>
      <point x="278" y="350" smooth="yes"/>
      <point x="223" y="392" type="curve" smooth="yes"/>
      <point x="163" y="439" type="line" smooth="yes"/>
      <point x="135" y="461" smooth="yes"/>
      <point x="125" y="487" smooth="yes"/>
      <point x="125" y="538" type="curve" smooth="yes"/>
      <point x="125" y="594" smooth="yes"/>
      <point x="142" y="623" smooth="yes"/>
      <point x="175" y="623" type="curve" smooth="yes"/>
      <point x="211" y="623"/>
      <point x="228" y="595"/>
      <point x="231" y="534" type="curve"/>
      <point x="299" y="549" type="line"/>
      <point x="291" y="642" smooth="yes"/>
      <point x="254" y="682" smooth="yes"/>
      <point x="177" y="682" type="curve" smooth="yes" name="hr01"/>
      <point x="93" y="682" smooth="yes"/>
      <point x="53" y="633" smooth="yes"/>
      <point x="53" y="530" type="curve" smooth="yes"/>
      <point x="53" y="474"/>
      <point x="68" y="432"/>
      <point x="99" y="400" type="curve"/>
      <point x="68" y="377" smooth="yes"/>
      <point x="52" y="334" smooth="yes"/>
      <point x="52" y="270" type="curve" smooth="yes"/>
      <point x="52" y="202" smooth="yes"/>
      <point x="75" y="156" smooth="yes"/>
      <point x="124" y="119" type="curve" smooth="yes"/>
      <point x="186" y="72" type="line" smooth="yes"/>
      <point x="215" y="50" smooth="yes"/>
      <point x="227" y="18" smooth="yes"/>
      <point x="227" y="-23" type="curve" smooth="yes"/>
      <point x="227" y="-75" smooth="yes"/>
      <point x="206" y="-104" smooth="yes"/>
      <point x="167" y="-104" type="curve" smooth="yes"/>
      <point x="131" y="-104"/>
      <point x="112" y="-71"/>
      <point x="108" y="0" type="curve"/>
      <point x="42" y="-11" type="line"/>
      <point x="50" y="-115" smooth="yes"/>
      <point x="89" y="-162" smooth="yes"/>
    </contour>
    <contour>
      <point x="193" y="154" type="curve"/>
      <point x="160" y="180" type="line" smooth="yes"/>
      <point x="132" y="203" smooth="yes"/>
      <point x="122" y="228" smooth="yes"/>
      <point x="122" y="278" type="curve" smooth="yes"/>
      <point x="122" y="319"/>
      <point x="130" y="346"/>
      <point x="147" y="361" type="curve"/>
      <point x="188" y="331" type="line" smooth="yes"/>
      <point x="217" y="310" smooth="yes"/>
      <point x="227" y="279" smooth="yes"/>
      <point x="227" y="237" type="curve" smooth="yes"/>
      <point x="227" y="192"/>
      <point x="216" y="164"/>
    </contour>
  </outline>
</glyph>
<glyph name="dieresis" format="1">
  <advance width="328"/>
  <unicode hex="00A8"/>
  <outline>
    <contour>
      <point x="54" y="646" type="line" name="hr00"/>
      <point x="135" y="646" type="line"/>
      <point x="135" y="740" type="line"/>
      <point x="54" y="740" type="line"/>
    </contour>
    <contour>
      <point x="194" y="646" type="line"/>
      <point x="274" y="646" type="line"/>
      <point x="274" y="740" type="line"/>
      <point x="194" y="740" type="line"/>
    </contour>
  </outline>
</glyph>
<glyph name="copyright" format="1">
  <advance width="527"/>
  <unicode hex="00A9"/>
  <outline>
    <contour>
      <point x="264" y="300" type="curve" name="hr00"/>
      <point x="322" y="300"/>
      <point x="352" y="337"/>
      <point x="360" y="420" type="curve"/>
      <point x="310" y="426" type="line"/>
      <point x="304" y="367" smooth="yes"/>
      <point x="291" y="345" smooth="yes"/>
      <point x="262" y="345" type="curve" smooth="yes"/>
      <point x="231" y="345" smooth="yes"/>
      <point x="218" y="372" smooth="yes"/>
      <point x="218" y="435" type="curve" smooth="yes"/>
      <point x="218" y="617" type="line" smooth="yes"/>
      <point x="218" y="682" smooth="yes"/>
      <point x="231" y="710" smooth="yes"/>
      <point x="262" y="710" type="curve" smooth="yes"/>
      <point x="288" y="710"/>
      <point x="299" y="690"/>
      <point x="304" y="637" type="curve"/>
      <point x="356" y="650" type="line"/>
      <point x="348" y="723" smooth="yes"/>
      <point x="319" y="755" smooth="yes"/>
      <point x="264" y="755" type="curve" smooth="yes"/>
      <point x="194" y="755" smooth="yes"/>
      <point x="163" y="709" smooth="yes"/>
      <point x="163" y="607" type="curve" smooth="yes"/>
      <point x="163" y="448" type="line" smooth="yes"/>
      <point x="163" y="346" smooth="yes"/>
      <point x="194" y="300" smooth="yes"/>
    </contour>
    <contour>
      <point x="263" y="215" type="curve"/>
      <point x="407" y="215" smooth="yes"/>
      <point x="471" y="298" smooth="yes"/>
      <point x="471" y="484" type="curve" smooth="yes"/>
      <point x="471" y="570" type="line" smooth="yes"/>
      <point x="471" y="756" smooth="yes"/>
      <point x="407" y="839" smooth="yes"/>
      <point x="263" y="839" type="curve" smooth="yes"/>
      <point x="119" y="839" smooth="yes"/>
      <point x="56" y="757" smooth="yes"/>
      <point x="56" y="570" type="curve" smooth="yes"/>
      <point x="56" y="484" type="line" smooth="yes"/>
      <point x="56" y="297" smooth="yes"/>
      <point x="119" y="215" smooth="yes"/>
    </contour>
    <contour>
      <point x="438" y="484" type="line" smooth="yes"/>
      <point x="438" y="326" smooth="yes"/>
      <point x="384" y="255" smooth="yes"/>
      <point x="263" y="255" type="curve" smooth="yes"/>
      <point x="142" y="255" smooth="yes"/>
      <point x="89" y="325" smooth="yes"/>
      <point x="89" y="484" type="curve" smooth="yes"/>
      <point x="89" y="570" type="line" smooth="yes"/>
      <point x="89" y="729" smooth="yes"/>
      <point x="142" y="799" smooth="yes"/>
      <point x="263" y="799" type="curve" smooth="yes"/>
      <point x="384" y="799" smooth="yes"/>
      <point x="438" y="728" smooth="yes"/>
      <point x="438" y="570" type="curve" smooth="yes"/>
    </contour>
  </outline>
</glyph>
<glyph name="ordfeminine" format="1">
  <advance width="279"/>
  <unicode hex="00AA"/>
  <outline>
    <contour>
      <point x="114" y="316" type="curve" name="hr00"/>
      <point x="147" y="316"/>
      <point x="171" y="336"/>
      <point x="182" y="371" type="curve"/>
      <point x="194" y="326" type="line"/>
      <point x="232" y="326" type="line"/>
      <point x="232" y="582" type="line" smooth="yes"/>
      <point x="232" y="672" smooth="yes"/>
      <point x="202" y="715" smooth="yes"/>
      <point x="139" y="715" type="curve" smooth="yes"/>
      <point x="105" y="715"/>
      <point x="69" y="697"/>
      <point x="45" y="668" type="curve"/>
      <point x="65" y="625" type="line"/>
      <point x="85" y="650" smooth="yes"/>
      <point x="110" y="665" smooth="yes"/>
      <point x="131" y="665" type="curve" smooth="yes"/>
      <point x="157" y="665" smooth="yes"/>
      <point x="171" y="637" smooth="yes"/>
      <point x="171" y="587" type="curve" smooth="yes"/>
      <point x="171" y="531" type="line"/>
      <point x="157" y="548" smooth="yes"/>
      <point x="137" y="557" smooth="yes"/>
      <point x="114" y="557" type="curve" smooth="yes"/>
      <point x="62" y="557" smooth="yes"/>
      <point x="40" y="523" smooth="yes"/>
      <point x="40" y="443" type="curve" smooth="yes"/>
      <point x="40" y="430" type="line" smooth="yes"/>
      <point x="40" y="350" smooth="yes"/>
      <point x="62" y="316" smooth="yes"/>
    </contour>
    <contour>
      <point x="130" y="364" type="curve"/>
      <point x="110" y="364" smooth="yes"/>
      <point x="100" y="384" smooth="yes"/>
      <point x="100" y="426" type="curve" smooth="yes"/>
      <point x="100" y="454" type="line" smooth="yes"/>
      <point x="100" y="496" smooth="yes"/>
      <point x="109" y="515" smooth="yes"/>
      <point x="130" y="515" type="curve" smooth="yes"/>
      <point x="158" y="515"/>
      <point x="171" y="489"/>
      <point x="171" y="437" type="curve"/>
      <point x="171" y="428" type="line" smooth="yes"/>
      <point x="169" y="385" smooth="yes"/>
      <point x="156" y="364" smooth="yes"/>
    </contour>
  </outline>
</glyph>
<glyph name="logicalnot" format="1">
  <advance width="377"/>
  <unicode hex="00AC"/>
  <outline>
    <contour>
      <point x="56" y="319" type="line" name="hr00"/>
      <point x="264" y="319" type="line"/>
      <point x="264" y="174" type="line"/>
      <point x="320" y="174" type="line"/>
      <point x="320" y="381" type="line"/>
      <point x="56" y="381" type="line"/>
    </contour>
  </outline>
</glyph>
<glyph name="registered" format="1">
  <advance width="527"/>
  <unicode hex="00AE"/>
  <outline>
    <contour>
      <point x="174" y="310" type="line" name="hr00"/>
      <point x="229" y="310" type="line"/>
      <point x="229" y="483" type="line"/>
      <point x="257" y="483" type="line"/>
      <point x="308" y="310" type="line"/>
      <point x="366" y="310" type="line"/>
      <point x="311" y="493" type="line"/>
      <point x="344" y="508" smooth="yes"/>
      <point x="360" y="545" smooth="yes"/>
      <point x="360" y="608" type="curve" smooth="yes"/>
      <point x="360" y="616" type="line" smooth="yes"/>
      <point x="360" y="705" smooth="yes"/>
      <point x="328" y="745" smooth="yes"/>
      <point x="258" y="745" type="curve" smooth="yes"/>
      <point x="174" y="745" type="line"/>
    </contour>
    <contour>
      <point x="263" y="215" type="curve"/>
      <point x="407" y="215" smooth="yes"/>
      <point x="471" y="298" smooth="yes"/>
      <point x="471" y="484" type="curve" smooth="yes"/>
      <point x="471" y="570" type="line" smooth="yes"/>
      <point x="471" y="756" smooth="yes"/>
      <point x="407" y="839" smooth="yes"/>
      <point x="263" y="839" type="curve" smooth="yes"/>
      <point x="119" y="839" smooth="yes"/>
      <point x="56" y="757" smooth="yes"/>
      <point x="56" y="570" type="curve" smooth="yes"/>
      <point x="56" y="484" type="line" smooth="yes"/>
      <point x="56" y="297" smooth="yes"/>
      <point x="119" y="215" smooth="yes"/>
    </contour>
    <contour>
      <point x="438" y="484" type="line" smooth="yes"/>
      <point x="438" y="326" smooth="yes"/>
      <point x="384" y="255" smooth="yes"/>
      <point x="263" y="255" type="curve" smooth="yes"/>
      <point x="142" y="255" smooth="yes"/>
      <point x="89" y="325" smooth="yes"/>
      <point x="89" y="484" type="curve" smooth="yes"/>
      <point x="89" y="570" type="line" smooth="yes"/>
      <point x="89" y="729" smooth="yes"/>
      <point x="142" y="799" smooth="yes"/>
      <point x="263" y="799" type="curve" smooth="yes"/>
      <point x="384" y="799" smooth="yes"/>
      <point x="438" y="728" smooth="yes"/>
      <point x="438" y="570" type="curve" smooth="yes"/>
    </contour>
    <contour>
      <point x="229" y="701" type="line"/>
      <point x="258" y="701" type="line" smooth="yes"/>
      <point x="290" y="701" smooth="yes"/>
      <point x="305" y="676" smooth="yes"/>
      <point x="305" y="624" type="curve" smooth="yes"/>
      <point x="305" y="602" type="line" smooth="yes"/>
      <point x="305" y="551" smooth="yes"/>
      <point x="289" y="526" smooth="yes"/>
      <point x="258" y="526" type="curve" smooth="yes"/>
      <point x="229" y="526" type="line"/>
    </contour>
  </outline>
</glyph>
<glyph name="macron" format="1">
  <advance width="253"/>
  <unicode hex="00AF"/>
  <outline>
    <contour>
      <point x="32" y="642" type="line" name="hr00"/>
      <point x="222" y="642" type="line"/>
      <point x="222" y="708" type="line"/>
      <point x="32" y="708" type="line"/>
    </contour>
  </outline>
</glyph>
<glyph name="degree" format="1">
  <advance width="321"/>
  <unicode hex="00B0"/>
  <outline>
    <contour>
      <point x="161" y="316" type="curve" name="hr00"/>
      <point x="244" y="316" smooth="yes"/>
      <point x="280" y="361" smooth="yes"/>
      <point x="280" y="463" type="curve" smooth="yes"/>
      <point x="280" y="568" type="line"/>
      <point x="280" y="669" smooth="yes"/>
      <point x="243" y="715" smooth="yes"/>
      <point x="161" y="715" type="curve" smooth="yes"/>
      <point x="78" y="715" smooth="yes"/>
      <point x="41" y="670" smooth="yes"/>
      <point x="41" y="568" type="curve" smooth="yes"/>
      <point x="41" y="463" type="line" smooth="yes"/>
      <point x="41" y="361" smooth="yes"/>
      <point x="78" y="316" smooth="yes"/>
    </contour>
    <contour>
      <point x="218" y="453" type="line"/>
      <point x="218" y="393" smooth="yes"/>
      <point x="200" y="365" smooth="yes"/>
      <point x="161" y="365" type="curve" smooth="yes"/>
      <point x="121" y="365" smooth="yes"/>
      <point x="103" y="392" smooth="yes"/>
      <point x="103" y="453" type="curve" smooth="yes"/>
      <point x="103" y="577" type="line" smooth="yes"/>
      <point x="103" y="638" smooth="yes"/>
      <point x="121" y="666" smooth="yes"/>
      <point x="161" y="666" type="curve" smooth="yes"/>
      <point x="200" y="666" smooth="yes"/>
      <point x="218" y="637" smooth="yes"/>
      <point x="218" y="577" type="curve" smooth="yes"/>
    </contour>
  </outline>
</glyph>
<glyph name="acute" format="1">
  <advance width="245"/>
  <unicode hex="00B4"/>
  <outline>
    <contour>
      <point x="62" y="638" type="line" name="hr00"/>
      <point x="84" y="602" type="line"/>
      <point x="227" y="689" type="line"/>
      <point x="192" y="756" type="line"/>
    </contour>
  </outline>
</glyph>
<glyph name="mu" format="1">
  <advance width="398"/>
  <unicode hex="00B5"/>
  <outline>
    <contour>
      <point x="63" y="-180" type="line"/>
      <point x="112" y="-180" type="line"/>
      <point x="127" y="53" type="line"/>
      <point x="139" y="6" smooth="yes"/>
      <point x="162" y="-15" smooth="yes"/>
      <point x="199" y="-15" type="curve" smooth="yes"/>
      <point x="236" y="-15"/>
      <point x="262" y="12"/>
      <point x="273" y="62" type="curve"/>
      <point x="288" y="0" type="line"/>
      <point x="335" y="0" type="line"/>
      <point x="335" y="540" type="line"/>
      <point x="259" y="540" type="line"/>
      <point x="259" y="152" type="line" smooth="yes"/>
      <point x="259" y="91" smooth="yes"/>
      <point x="235" y="48" smooth="yes"/>
      <point x="200" y="48" type="curve" smooth="yes"/>
      <point x="157" y="48" smooth="yes"/>
      <point x="140" y="85" smooth="yes"/>
      <point x="140" y="181" type="curve" smooth="yes" name="hr01"/>
      <point x="140" y="540" type="line"/>
      <point x="63" y="540" type="line"/>
    </contour>
  </outline>
</glyph>
<glyph name="paragraph" format="1">
  <advance width="345"/>
  <unicode hex="00B6"/>
  <outline>
    <contour>
      <point x="282" y="700" type="line" name="hr00"/>
      <point x="47" y="700" type="line"/>
      <point x="47" y="436" type="line"/>
      <point x="202" y="436" type="line"/>
      <point x="202" y="0" type="line"/>
      <point x="282" y="0" type="line"/>
    </contour>
  </outline>
</glyph>
<glyph name="cedilla" format="1">
  <advance width="182"/>
  <unicode hex="00B8"/>
  <outline>
    <contour>
      <point x="84" y="-195" type="curve" name="hr00"/>
      <point x="129" y="-195" smooth="yes"/>
      <point x="150" y="-171" smooth="yes"/>
      <point x="150" y="-122" type="curve" smooth="yes"/>
      <point x="150" y="-83"/>
      <point x="134" y="-61"/>
      <point x="95" y="-49" type="curve"/>
      <point x="100" y="0" type="line"/>
      <point x="69" y="0" type="line"/>
      <point x="59" y="-71" type="line"/>
      <point x="90" y="-80" smooth="yes"/>
      <point x="103" y="-93" smooth="yes"/>
      <point x="103" y="-114" type="curve" smooth="yes"/>
      <point x="103" y="-124" type="line" smooth="yes"/>
      <point x="103" y="-146" smooth="yes"/>
      <point x="98" y="-154" smooth="yes"/>
      <point x="84" y="-154" type="curve" smooth="yes"/>
      <point x="71" y="-154"/>
      <point x="66" y="-146"/>
      <point x="64" y="-120" type="curve"/>
      <point x="23" y="-128" type="line"/>
      <point x="27" y="-173" smooth="yes"/>
      <point x="47" y="-195" smooth="yes"/>
    </contour>
  </outline>
</glyph>
<glyph name="AE" format="1">
  <advance width="591"/>
  <unicode hex="00C6"/>
  <outline>
    <contour>
      <point x="294" y="0" type="line" name="hr00"/>
      <point x="549" y="0" type="line"/>
      <point x="549" y="64" type="line"/>
      <point x="373" y="64" type="line"/>
      <point x="373" y="299" type="line"/>
      <point x="531" y="299" type="line"/>
      <point x="531" y="363" type="line"/>
      <point x="373" y="363" type="line"/>
      <point x="373" y="636" type="line"/>
      <point x="546" y="636" type="line"/>
      <point x="546" y="700" type="line"/>
      <point x="236" y="700" type="line"/>
      <point x="-9" y="0" type="line"/>
      <point x="76" y="0" type="line"/>
      <point x="180" y="299" type="line"/>
      <point x="294" y="299" type="line"/>
    </contour>
    <contour>
      <point x="202" y="363" type="line"/>
      <point x="294" y="625" type="line"/>
      <point x="294" y="363" type="line"/>
    </contour>
  </outline>
</glyph>
<glyph name="Eth" format="1">
  <advance width="406"/>
  <unicode hex="00D0"/>
  <outline>
    <contour>
      <point x="16" y="324" type="line"/>
      <point x="221" y="324" type="line"/>
      <point x="221" y="376" type="line"/>
      <point x="16" y="376" type="line"/>
    </contour>
    <component  base="D"/>
    <component  base="barra" xScale="0.85" xOffset="-43" yOffset="8"/>
  </outline>
</glyph>
<glyph name="multiply" format="1">
  <advance width="376"/>
  <unicode hex="00D7"/>
  <outline>
    <contour>
      <point x="101" y="183" type="line" name="hr00"/>
      <point x="188" y="301" type="line"/>
      <point x="275" y="183" type="line"/>
      <point x="315" y="227" type="line"/>
      <point x="224" y="350" type="line"/>
      <point x="315" y="473" type="line"/>
      <point x="275" y="517" type="line"/>
      <point x="188" y="399" type="line"/>
      <point x="101" y="517" type="line"/>
      <point x="61" y="473" type="line"/>
      <point x="152" y="350" type="line"/>
      <point x="61" y="227" type="line"/>
    </contour>
  </outline>
</glyph>
<glyph name="Thorn" format="1">
  <advance width="363"/>
  <unicode hex="00DE"/>
  <outline>
    <contour>
      <point x="63" y="0" type="line" name="hr00"/>
      <point x="143" y="0" type="line"/>
      <point x="143" y="124" type="line"/>
      <point x="187" y="124" type="line" smooth="yes"/>
      <point x="295" y="124" smooth="yes"/>
      <point x="343" y="192" smooth="yes"/>
      <point x="343" y="347" type="curve" smooth="yes"/>
      <point x="343" y="352" type="line" smooth="yes"/>
      <point x="343" y="507" smooth="yes"/>
      <point x="295" y="576" smooth="yes"/>
      <point x="187" y="576" type="curve" smooth="yes"/>
      <point x="143" y="576" type="line"/>
      <point x="143" y="700" type="line"/>
      <point x="63" y="700" type="line"/>
    </contour>
    <contour>
      <point x="143" y="187" type="line"/>
      <point x="143" y="512" type="line"/>
      <point x="187" y="512" type="line" smooth="yes"/>
      <point x="239" y="512" smooth="yes"/>
      <point x="264" y="465" smooth="yes"/>
      <point x="264" y="365" type="curve" smooth="yes"/>
      <point x="264" y="334" type="line" smooth="yes"/>
      <point x="264" y="234" smooth="yes"/>
      <point x="239" y="187" smooth="yes"/>
      <point x="187" y="187" type="curve" smooth="yes"/>
    </contour>
  </outline>
</glyph>
<glyph name="germandbls" format="1">
  <advance width="408"/>
  <unicode hex="00DF"/>
  <outline>
    <contour>
      <point x="270" y="-15" type="curve"/>
      <point x="340" y="-15" smooth="yes"/>
      <point x="385" y="43" smooth="yes"/>
      <point x="385" y="132" type="curve" smooth="yes"/>
      <point x="385" y="232" smooth="yes"/>
      <point x="362" y="286" smooth="yes"/>
      <point x="289" y="355" type="curve" smooth="yes"/>
      <point x="257" y="384" type="line"/>
      <point x="308" y="410" smooth="yes"/>
      <point x="334" y="462" smooth="yes"/>
      <point x="334" y="535" type="curve" smooth="yes" name="hr01"/>
      <point x="334" y="657" smooth="yes"/>
      <point x="289" y="715" smooth="yes"/>
      <point x="194" y="715" type="curve" smooth="yes"/>
      <point x="97" y="715" smooth="yes"/>
      <point x="56" y="652" smooth="yes"/>
      <point x="56" y="505" type="curve" smooth="yes"/>
      <point x="56" y="0" type="line"/>
      <point x="135" y="0" type="line"/>
      <point x="135" y="504" type="line" smooth="yes"/>
      <point x="135" y="613" smooth="yes"/>
      <point x="151" y="653" smooth="yes"/>
      <point x="194" y="653" type="curve" smooth="yes"/>
      <point x="235" y="653" smooth="yes"/>
      <point x="255" y="615" smooth="yes"/>
      <point x="255" y="535" type="curve" smooth="yes"/>
      <point x="255" y="456"/>
      <point x="236" y="418"/>
      <point x="187" y="398" type="curve"/>
      <point x="187" y="365" type="line"/>
      <point x="234" y="323" type="line" smooth="yes"/>
      <point x="297" y="266" smooth="yes"/>
      <point x="313" y="220" smooth="yes"/>
      <point x="313" y="134" type="curve" smooth="yes" name="hr02"/>
      <point x="313" y="71" smooth="yes"/>
      <point x="299" y="46" smooth="yes"/>
      <point x="265" y="46" type="curve" smooth="yes"/>
      <point x="236" y="46"/>
      <point x="222" y="71"/>
      <point x="222" y="127" type="curve"/>
      <point x="161" y="127" type="line"/>
      <point x="161" y="33" smooth="yes"/>
      <point x="198" y="-15" smooth="yes"/>
    </contour>
  </outline>
</glyph>
<glyph name="ae" format="1">
  <advance width="567"/>
  <unicode hex="00E6"/>
  <outline>
    <contour>
      <point x="155" y="-15" type="curve" name="hr00"/>
      <point x="203" y="-15"/>
      <point x="239" y="16"/>
      <point x="252" y="68" type="curve"/>
      <point x="273" y="11" smooth="yes"/>
      <point x="312" y="-15" smooth="yes"/>
      <point x="379" y="-15" type="curve" smooth="yes"/>
      <point x="465" y="-15"/>
      <point x="505" y="30"/>
      <point x="515" y="140" type="curve"/>
      <point x="447" y="151" type="line"/>
      <point x="440" y="78" smooth="yes"/>
      <point x="419" y="47" smooth="yes"/>
      <point x="377" y="47" type="curve" smooth="yes"/>
      <point x="333" y="47" smooth="yes"/>
      <point x="312" y="89" smooth="yes"/>
      <point x="312" y="181" type="curve" smooth="yes"/>
      <point x="312" y="243" type="line"/>
      <point x="518" y="243" type="line"/>
      <point x="518" y="345" type="line" smooth="yes"/>
      <point x="518" y="492" smooth="yes"/>
      <point x="476" y="555" smooth="yes"/>
      <point x="379" y="555" type="curve" smooth="yes"/>
      <point x="333" y="555"/>
      <point x="300" y="542"/>
      <point x="277" y="515" type="curve"/>
      <point x="256" y="542" smooth="yes"/>
      <point x="224" y="555" smooth="yes"/>
      <point x="182" y="555" type="curve" smooth="yes"/>
      <point x="136" y="555"/>
      <point x="84" y="529"/>
      <point x="51" y="489" type="curve"/>
      <point x="78" y="433" type="line"/>
      <point x="107" y="470" smooth="yes"/>
      <point x="143" y="492" smooth="yes"/>
      <point x="175" y="492" type="curve" smooth="yes"/>
      <point x="215" y="492" smooth="yes"/>
      <point x="235" y="460" smooth="yes"/>
      <point x="235" y="396" type="curve" smooth="yes"/>
      <point x="235" y="307" type="line"/>
      <point x="155" y="307" type="line" smooth="yes"/>
      <point x="77" y="307" smooth="yes"/>
      <point x="45" y="263" smooth="yes"/>
      <point x="45" y="157" type="curve" smooth="yes"/>
      <point x="45" y="135" type="line" smooth="yes"/>
      <point x="45" y="29" smooth="yes"/>
      <point x="77" y="-15" smooth="yes"/>
    </contour>
    <contour>
      <point x="171" y="48" type="curve"/>
      <point x="137" y="48" smooth="yes"/>
      <point x="121" y="73" smooth="yes"/>
      <point x="121" y="127" type="curve" smooth="yes"/>
      <point x="121" y="163" type="line" smooth="yes"/>
      <point x="121" y="218"/>
      <point x="137" y="243"/>
      <point x="171" y="243" type="curve"/>
      <point x="235" y="243" type="line"/>
      <point x="235" y="139" type="line" smooth="yes"/>
      <point x="235" y="76" smooth="yes"/>
      <point x="215" y="48" smooth="yes"/>
    </contour>
    <contour>
      <point x="312" y="307" type="line"/>
      <point x="312" y="359" type="line" smooth="yes"/>
      <point x="312" y="451" smooth="yes"/>
      <point x="333" y="493" smooth="yes"/>
      <point x="377" y="493" type="curve" smooth="yes"/>
      <point x="421" y="493" smooth="yes"/>
      <point x="441" y="450" smooth="yes"/>
      <point x="441" y="359" type="curve" smooth="yes"/>
      <point x="441" y="307" type="line"/>
    </contour>
  </outline>
</glyph>
<glyph name="eth" format="1">
  <advance width="379"/>
  <unicode hex="00F0"/>
  <outline>
    <contour>
      <point x="190" y="-15" type="curve" name="hr00"/>
      <point x="287" y="-15" smooth="yes"/>
      <point x="330" y="49" smooth="yes"/>
      <point x="330" y="195" type="curve" smooth="yes"/>
      <point x="330" y="413" type="line" smooth="yes"/>
      <point x="330" y="520"/>
      <point x="320" y="606"/>
      <point x="301" y="670" type="curve"/>
      <point x="358" y="698" type="line"/>
      <point x="358" y="748" type="line"/>
      <point x="286" y="713" type="line"/>
      <point x="250" y="791"/>
      <point x="195" y="822"/>
      <point x="93" y="822" type="curve"/>
      <point x="102" y="760" type="line"/>
      <point x="167" y="760"/>
      <point x="201" y="739"/>
      <point x="225" y="684" type="curve"/>
      <point x="153" y="649" type="line"/>
      <point x="153" y="598" type="line"/>
      <point x="239" y="640" type="line"/>
      <point x="249" y="596"/>
      <point x="255" y="542"/>
      <point x="257" y="480" type="curve"/>
      <point x="239" y="518" smooth="yes"/>
      <point x="212" y="535" smooth="yes"/>
      <point x="172" y="535" type="curve" smooth="yes"/>
      <point x="90" y="535" smooth="yes"/>
      <point x="49" y="464" smooth="yes"/>
      <point x="49" y="325" type="curve" smooth="yes"/>
      <point x="49" y="195" type="line" smooth="yes"/>
      <point x="49" y="49" smooth="yes"/>
      <point x="92" y="-15" smooth="yes"/>
    </contour>
    <contour>
      <point x="253" y="181" type="line" smooth="yes"/>
      <point x="253" y="90" smooth="yes"/>
      <point x="233" y="47" smooth="yes"/>
      <point x="190" y="47" type="curve" smooth="yes"/>
      <point x="146" y="47" smooth="yes"/>
      <point x="125" y="90" smooth="yes"/>
      <point x="125" y="181" type="curve" smooth="yes"/>
      <point x="125" y="339" type="line" smooth="yes"/>
      <point x="125" y="430" smooth="yes"/>
      <point x="146" y="473" smooth="yes"/>
      <point x="190" y="473" type="curve" smooth="yes"/>
      <point x="233" y="473" smooth="yes"/>
      <point x="253" y="430" smooth="yes"/>
      <point x="253" y="339" type="curve" smooth="yes"/>
    </contour>
  </outline>
</glyph>
<glyph name="thorn" format="1">
  <advance width="390"/>
  <unicode hex="00FE"/>
  <outline>
    <contour>
      <point x="63" y="-180" type="line" name="hr00"/>
      <point x="136" y="-180" type="line"/>
      <point x="136" y="79" type="line"/>
      <point x="150" y="18" smooth="yes"/>
      <point x="184" y="-15" smooth="yes"/>
      <point x="232" y="-15" type="curve" smooth="yes"/>
      <point x="308" y="-15" smooth="yes"/>
      <point x="341" y="49" smooth="yes"/>
      <point x="341" y="195" type="curve" smooth="yes"/>
      <point x="341" y="345" type="line" smooth="yes"/>
      <point x="341" y="491" smooth="yes"/>
      <point x="308" y="555" smooth="yes"/>
      <point x="232" y="555" type="curve" smooth="yes"/>
      <point x="187" y="555"/>
      <point x="154" y="527"/>
      <point x="136" y="475" type="curve"/>
      <point x="136" y="741" type="line"/>
      <point x="63" y="741" type="line"/>
    </contour>
    <contour>
      <point x="210" y="47" type="curve"/>
      <point x="160" y="47" smooth="yes"/>
      <point x="136" y="118" smooth="yes"/>
      <point x="136" y="270" type="curve" smooth="yes"/>
      <point x="136" y="284" type="line" smooth="yes"/>
      <point x="137" y="429" smooth="yes"/>
      <point x="162" y="493" smooth="yes"/>
      <point x="215" y="493" type="curve" smooth="yes"/>
      <point x="251" y="493" smooth="yes"/>
      <point x="268" y="453" smooth="yes"/>
      <point x="268" y="369" type="curve" smooth="yes"/>
      <point x="268" y="171" type="line" smooth="yes"/>
      <point x="268" y="85" smooth="yes"/>
      <point x="250" y="47" smooth="yes"/>
    </contour>
  </outline>
</glyph>
<glyph name="kgreenlandic" format="1">
  <advance width="369"/>
  <unicode hex="0138"/>
  <outline>
    <contour>
      <point x="140" y="0" type="line" name="hr00"/>
      <point x="140" y="203" type="line"/>
      <point x="168" y="248" type="line"/>
      <point x="286" y="0" type="line"/>
      <point x="369" y="0" type="line"/>
      <point x="213" y="319" type="line"/>
      <point x="352" y="540" type="line"/>
      <point x="272" y="540" type="line"/>
      <point x="140" y="322" type="line"/>
      <point x="140" y="540" type="line"/>
      <point x="63" y="540" type="line"/>
      <point x="63" y="0" type="line"/>
    </contour>
  </outline>
</glyph>
<glyph name="Lslash" format="1">
  <advance width="313"/>
  <unicode hex="0141"/>
  <outline>
    <contour>
      <point x="18" y="281" type="line" name="hr00"/>
      <point x="223" y="381" type="line"/>
      <point x="223" y="435" type="line"/>
      <point x="18" y="336" type="line"/>
    </contour>
    <component  base="L"/>
  </outline>
</glyph>
<glyph name="lslash" format="1">
  <advance width="203"/>
  <unicode hex="0142"/>
  <outline>
    <contour>
      <point x="-1" y="281" type="line" name="hr00"/>
      <point x="204" y="381" type="line"/>
      <point x="204" y="435" type="line"/>
      <point x="-1" y="336" type="line"/>
    </contour>
    <component  base="l"/>
  </outline>
</glyph>
<glyph name="Eng" format="1">
  <advance width="450"/>
  <unicode hex="014A"/>
  <outline>
    <contour>
      <point x="273" y="-195" type="curve" name="hr00"/>
      <point x="351" y="-195" smooth="yes"/>
      <point x="387" y="-129" smooth="yes"/>
      <point x="387" y="15" type="curve" smooth="yes"/>
      <point x="387" y="700" type="line"/>
      <point x="309" y="700" type="line"/>
      <point x="309" y="203" type="line"/>
      <point x="146" y="700" type="line"/>
      <point x="63" y="700" type="line"/>
      <point x="63" y="0" type="line"/>
      <point x="141" y="0" type="line"/>
      <point x="141" y="517" type="line"/>
      <point x="311" y="0" type="line"/>
      <point x="311" y="-90" smooth="yes"/>
      <point x="296" y="-128" smooth="yes"/>
      <point x="260" y="-128" type="curve" smooth="yes"/>
      <point x="249" y="-128"/>
      <point x="239" y="-125"/>
      <point x="227" y="-118" type="curve"/>
      <point x="212" y="-183" type="line"/>
      <point x="230" y="-191" smooth="yes"/>
      <point x="251" y="-195" smooth="yes"/>
    </contour>
  </outline>
</glyph>
<glyph name="eng" format="1">
  <advance width="398"/>
  <unicode hex="014B"/>
  <outline>
    <contour>
      <point x="228" y="-195" type="curve"/>
      <point x="306" y="-195" smooth="yes"/>
      <point x="342" y="-129" smooth="yes"/>
      <point x="342" y="15" type="curve" smooth="yes"/>
      <point x="342" y="341" type="line" smooth="yes"/>
      <point x="342" y="490" smooth="yes"/>
      <point x="310" y="555" smooth="yes"/>
      <point x="235" y="555" type="curve" smooth="yes"/>
      <point x="179" y="555"/>
      <point x="144" y="521"/>
      <point x="130" y="454" type="curve"/>
      <point x="110" y="540" type="line"/>
      <point x="63" y="540" type="line"/>
      <point x="63" y="0" type="line"/>
      <point x="140" y="0" type="line"/>
      <point x="140" y="265" type="line" smooth="yes"/>
      <point x="140" y="417" smooth="yes"/>
      <point x="165" y="493" smooth="yes"/>
      <point x="216" y="493" type="curve" smooth="yes"/>
      <point x="249" y="493" smooth="yes"/>
      <point x="265" y="452" smooth="yes"/>
      <point x="265" y="368" type="curve" smooth="yes"/>
      <point x="265" y="0" type="line" smooth="yes"/>
      <point x="265" y="-91" smooth="yes"/>
      <point x="251" y="-128" smooth="yes"/>
      <point x="215" y="-128" type="curve" smooth="yes" name="hr01"/>
      <point x="204" y="-128"/>
      <point x="194" y="-125"/>
      <point x="182" y="-118" type="curve"/>
      <point x="167" y="-183" type="line"/>
      <point x="185" y="-191" smooth="yes"/>
      <point x="206" y="-195" smooth="yes"/>
    </contour>
  </outline>
</glyph>
<glyph name="OE" format="1">
  <advance width="580"/>
  <unicode hex="0152"/>
  <outline>
    <contour>
      <point x="264" y="636" type="line" name="hr00"/>
      <point x="533" y="636" type="line"/>
      <point x="533" y="700" type="line"/>
      <point x="264" y="700" type="line"/>
    </contour>
    <contour>
      <point x="264" y="0" type="line"/>
      <point x="537" y="0" type="line"/>
      <point x="537" y="64" type="line"/>
      <point x="264" y="64" type="line"/>
    </contour>
    <contour>
      <point x="361" y="317" type="line"/>
      <point x="519" y="317" type="line"/>
      <point x="519" y="381" type="line"/>
      <point x="361" y="381" type="line"/>
    </contour>
    <component  base="O"/>
  </outline>
</glyph>
<glyph name="florin" format="1">
  <advance width="219"/>
  <unicode hex="0192"/>
  <outline>
    <contour>
      <point x="24" y="-195" type="curve" name="hr00"/>
      <point x="104" y="-195" smooth="yes"/>
      <point x="140" y="-129" smooth="yes"/>
      <point x="140" y="15" type="curve" smooth="yes"/>
      <point x="140" y="414" type="line"/>
      <point x="203" y="414" type="line"/>
      <point x="203" y="466" type="line"/>
      <point x="140" y="466" type="line"/>
      <point x="140" y="560" type="line" smooth="yes"/>
      <point x="140" y="652" smooth="yes"/>
      <point x="154" y="688" smooth="yes"/>
      <point x="191" y="688" type="curve" smooth="yes"/>
      <point x="201" y="688"/>
      <point x="212" y="685"/>
      <point x="225" y="678" type="curve"/>
      <point x="240" y="743" type="line"/>
      <point x="223" y="751" smooth="yes"/>
      <point x="201" y="755" smooth="yes"/>
      <point x="179" y="755" type="curve" smooth="yes"/>
      <point x="99" y="755" smooth="yes"/>
      <point x="63" y="689" smooth="yes"/>
      <point x="63" y="545" type="curve" smooth="yes"/>
      <point x="63" y="466" type="line"/>
      <point x="12" y="466" type="line"/>
      <point x="12" y="414" type="line"/>
      <point x="63" y="414" type="line"/>
      <point x="63" y="0" type="line" smooth="yes"/>
      <point x="63" y="-90" smooth="yes"/>
      <point x="48" y="-128" smooth="yes"/>
      <point x="12" y="-128" type="curve" smooth="yes"/>
      <point x="-1" y="-128"/>
      <point x="-13" y="-125"/>
      <point x="-22" y="-118" type="curve"/>
      <point x="-37" y="-183" type="line"/>
      <point x="-19" y="-191" smooth="yes"/>
      <point x="2" y="-195" smooth="yes"/>
    </contour>
  </outline>
</glyph>
<glyph name="circumflex" format="1">
  <advance width="263"/>
  <unicode hex="02C6"/>
  <outline>
    <contour>
      <point x="140" y="750" type="line" name="hr00"/>
      <point x="121" y="750" type="line"/>
      <point x="31" y="634" type="line"/>
      <point x="54" y="600" type="line"/>
      <point x="131" y="670" type="line"/>
      <point x="208" y="600" type="line"/>
      <point x="232" y="634" type="line"/>
    </contour>
  </outline>
</glyph>
<glyph name="caron" format="1">
  <advance width="263"/>
  <unicode hex="02C7"/>
  <outline>
    <contour>
      <point x="121" y="600" type="line" name="hr00"/>
      <point x="140" y="600" type="line"/>
      <point x="232" y="715" type="line"/>
      <point x="208" y="750" type="line"/>
      <point x="131" y="680" type="line"/>
      <point x="54" y="750" type="line"/>
      <point x="31" y="715" type="line"/>
    </contour>
  </outline>
</glyph>
<glyph name="breve" format="1">
  <advance width="269"/>
  <unicode hex="02D8"/>
  <outline>
    <contour>
      <point x="125" y="613" type="curve" smooth="yes" name="hr00"/>
      <point x="144" y="613" type="line" smooth="yes"/>
      <point x="203" y="613"/>
      <point x="228" y="647"/>
      <point x="228" y="728" type="curve"/>
      <point x="186" y="728" type="line"/>
      <point x="186" y="697" smooth="yes"/>
      <point x="171" y="681" smooth="yes"/>
      <point x="142" y="681" type="curve" smooth="yes"/>
      <point x="128" y="681" type="line" smooth="yes"/>
      <point x="95" y="681"/>
      <point x="83" y="694"/>
      <point x="83" y="728" type="curve"/>
      <point x="42" y="728" type="line"/>
      <point x="42" y="647" smooth="yes"/>
      <point x="66" y="613" smooth="yes"/>
    </contour>
  </outline>
</glyph>
<glyph name="dotaccent" format="1">
  <advance width="203"/>
  <unicode hex="02D9"/>
  <outline>
    <contour>
      <point x="60" y="646" type="line" name="hr00"/>
      <point x="143" y="646" type="line"/>
      <point x="143" y="740" type="line"/>
      <point x="60" y="740" type="line"/>
    </contour>
  </outline>
</glyph>
<glyph name="ring" format="1">
  <advance width="200"/>
  <unicode hex="02DA"/>
  <outline>
    <contour>
      <point x="100" y="586" type="curve" name="hr00"/>
      <point x="153" y="586" smooth="yes"/>
      <point x="176" y="616" smooth="yes"/>
      <point x="176" y="683" type="curve" smooth="yes"/>
      <point x="176" y="697" type="line"/>
      <point x="176" y="764" smooth="yes"/>
      <point x="153" y="794" smooth="yes"/>
      <point x="100" y="794" type="curve" smooth="yes"/>
      <point x="47" y="794" smooth="yes"/>
      <point x="24" y="764" smooth="yes"/>
      <point x="24" y="697" type="curve" smooth="yes"/>
      <point x="24" y="683" type="line" smooth="yes"/>
      <point x="24" y="616" smooth="yes"/>
      <point x="47" y="586" smooth="yes"/>
    </contour>
    <contour>
      <point x="127" y="677" type="line"/>
      <point x="127" y="644" smooth="yes"/>
      <point x="118" y="628" smooth="yes"/>
      <point x="100" y="628" type="curve" smooth="yes"/>
      <point x="82" y="628" smooth="yes"/>
      <point x="73" y="644" smooth="yes"/>
      <point x="73" y="677" type="curve" smooth="yes"/>
      <point x="73" y="703" type="line" smooth="yes"/>
      <point x="73" y="736" smooth="yes"/>
      <point x="82" y="752" smooth="yes"/>
      <point x="100" y="752" type="curve" smooth="yes"/>
      <point x="118" y="752" smooth="yes"/>
      <point x="127" y="736" smooth="yes"/>
      <point x="127" y="703" type="curve" smooth="yes"/>
    </contour>
  </outline>
</glyph>
<glyph name="ogonek" format="1">
  <advance width="245"/>
  <unicode hex="02DB"/>
  <outline>
    <contour>
      <point x="111" y="-198" type="curve" name="hr00"/>
      <point x="156" y="-198"/>
      <point x="185" y="-163"/>
      <point x="203" y="-90" type="curve"/>
      <point x="162" y="-81" type="line"/>
      <point x="149" y="-126" smooth="yes"/>
      <point x="136" y="-144" smooth="yes"/>
      <point x="118" y="-144" type="curve" smooth="yes"/>
      <point x="106" y="-144" smooth="yes"/>
      <point x="101" y="-133" smooth="yes"/>
      <point x="101" y="-108" type="curve" smooth="yes"/>
      <point x="101" y="-77"/>
      <point x="121" y="-32"/>
      <point x="148" y="0" type="curve"/>
      <point x="101" y="0" type="line"/>
      <point x="63" y="-38" smooth="yes"/>
      <point x="42" y="-79" smooth="yes"/>
      <point x="42" y="-117" type="curve" smooth="yes"/>
      <point x="42" y="-170" smooth="yes"/>
      <point x="66" y="-198" smooth="yes"/>
    </contour>
  </outline>
</glyph>
<glyph name="tilde" format="1">
  <advance width="300"/>
  <unicode hex="02DC"/>
  <outline>
    <contour>
      <point x="235" y="730" type="line"/>
      <point x="218" y="707" smooth="yes"/>
      <point x="205" y="700" smooth="yes"/>
      <point x="191" y="700" type="curve" smooth="yes"/>
      <point x="167" y="700" smooth="yes"/>
      <point x="141" y="728" smooth="yes"/>
      <point x="114" y="728" type="curve" smooth="yes" name="hr01"/>
      <point x="78" y="728"/>
      <point x="54" y="690"/>
      <point x="41" y="665" type="curve"/>
      <point x="64" y="627" type="line"/>
      <point x="82" y="650" smooth="yes"/>
      <point x="95" y="658" smooth="yes"/>
      <point x="109" y="658" type="curve" smooth="yes"/>
      <point x="133" y="658" smooth="yes"/>
      <point x="159" y="629" smooth="yes"/>
      <point x="186" y="629" type="curve" smooth="yes" name="hr02"/>
      <point x="222" y="629"/>
      <point x="245" y="668"/>
      <point x="259" y="692" type="curve"/>
    </contour>
  </outline>
</glyph>
<glyph name="hungarumlaut" format="1">
  <advance width="358"/>
  <unicode hex="02DD"/>
  <outline>
    <contour>
      <point x="63" y="634" type="line" name="hr00"/>
      <point x="92" y="602" type="line"/>
      <point x="201" y="698" type="line"/>
      <point x="157" y="758" type="line"/>
    </contour>
    <contour>
      <point x="200" y="634" type="line"/>
      <point x="229" y="602" type="line"/>
      <point x="338" y="698" type="line"/>
      <point x="294" y="758" type="line"/>
    </contour>
  </outline>
</glyph>
<glyph name="pi" format="1">
  <advance width="480"/>
  <unicode hex="03C0"/>
  <outline>
    <contour>
      <point x="272" y="0" type="line" name="hr00"/>
      <point x="351" y="0" type="line"/>
      <point x="351" y="477" type="line"/>
      <point x="402" y="477" type="line"/>
      <point x="402" y="541" type="line"/>
      <point x="35" y="541" type="line"/>
      <point x="35" y="477" type="line"/>
      <point x="85" y="477" type="line"/>
      <point x="85" y="0" type="line"/>
      <point x="164" y="0" type="line"/>
      <point x="164" y="477" type="line"/>
      <point x="272" y="477" type="line"/>
    </contour>
  </outline>
</glyph>
<glyph name="endash" format="1">
  <advance width="401"/>
  <unicode hex="2013"/>
  <outline>
    <contour>
      <point x="42" y="274" type="line" name="hr00"/>
      <point x="360" y="274" type="line"/>
      <point x="360" y="336" type="line"/>
      <point x="42" y="336" type="line"/>
    </contour>
  </outline>
</glyph>
<glyph name="emdash" format="1">
  <advance width="492"/>
  <unicode hex="2014"/>
  <outline>
    <contour>
      <point x="42" y="274" type="line" name="hr00"/>
      <point x="450" y="274" type="line"/>
      <point x="450" y="336" type="line"/>
      <point x="42" y="336" type="line"/>
    </contour>
  </outline>
</glyph>
<glyph name="quoteleft" format="1">
  <advance width="163"/>
  <unicode hex="2018"/>
  <outline>
    <contour>
      <point x="121" y="638" type="line" name="hr00"/>
      <point x="100" y="638" type="line"/>
      <point x="112" y="752" type="line"/>
      <point x="80" y="758" type="line"/>
      <point x="42" y="634" type="line"/>
      <point x="42" y="546" type="line"/>
      <point x="121" y="546" type="line"/>
    </contour>
  </outline>
</glyph>
<glyph name="quoteright" format="1">
  <advance width="163"/>
  <unicode hex="2019"/>
  <outline>
    <contour>
      <point x="42" y="654" type="line" name="hr00"/>
      <point x="64" y="654" type="line"/>
      <point x="52" y="540" type="line"/>
      <point x="82" y="534" type="line"/>
      <point x="121" y="658" type="line"/>
      <point x="121" y="746" type="line"/>
      <point x="42" y="746" type="line"/>
    </contour>
  </outline>
</glyph>
<glyph name="quotedblleft" format="1">
  <advance width="276"/>
  <unicode hex="201C"/>
  <outline>
    <contour>
      <point x="121" y="638" type="line" name="hr00"/>
      <point x="100" y="638" type="line"/>
      <point x="112" y="752" type="line"/>
      <point x="80" y="758" type="line"/>
      <point x="42" y="634" type="line"/>
      <point x="42" y="546" type="line"/>
      <point x="121" y="546" type="line"/>
    </contour>
    <contour>
      <point x="235" y="638" type="line"/>
      <point x="214" y="638" type="line"/>
      <point x="226" y="752" type="line"/>
      <point x="194" y="758" type="line"/>
      <point x="156" y="634" type="line"/>
      <point x="156" y="546" type="line"/>
      <point x="235" y="546" type="line"/>
    </contour>
  </outline>
</glyph>
<glyph name="quotedblright" format="1">
  <advance width="276"/>
  <unicode hex="201D"/>
  <outline>
    <contour>
      <point x="156" y="654" type="line" name="hr00"/>
      <point x="178" y="654" type="line"/>
      <point x="166" y="540" type="line"/>
      <point x="196" y="534" type="line"/>
      <point x="235" y="658" type="line"/>
      <point x="235" y="746" type="line"/>
      <point x="156" y="746" type="line"/>
    </contour>
    <contour>
      <point x="42" y="654" type="line"/>
      <point x="64" y="654" type="line"/>
      <point x="52" y="540" type="line"/>
      <point x="82" y="534" type="line"/>
      <point x="121" y="658" type="line"/>
      <point x="121" y="746" type="line"/>
      <point x="42" y="746" type="line"/>
    </contour>
  </outline>
</glyph>
<glyph name="daggerdbl" format="1">
  <advance width="414"/>
  <unicode hex="2021"/>
  <outline>
    <contour>
      <point x="361" y="183" type="line" name="hr00"/>
      <point x="361" y="247" type="line"/>
      <point x="245" y="247" type="line"/>
      <point x="245" y="636" type="line"/>
      <point x="361" y="636" type="line"/>
      <point x="361" y="700" type="line"/>
      <point x="245" y="700" type="line"/>
      <point x="245" y="883" type="line"/>
      <point x="170" y="883" type="line"/>
      <point x="170" y="700" type="line"/>
      <point x="53" y="700" type="line"/>
      <point x="53" y="636" type="line"/>
      <point x="170" y="636" type="line"/>
      <point x="170" y="247" type="line"/>
      <point x="53" y="247" type="line"/>
      <point x="53" y="183" type="line"/>
      <point x="170" y="183" type="line"/>
      <point x="170" y="0" type="line"/>
      <point x="245" y="0" type="line"/>
      <point x="245" y="183" type="line"/>
    </contour>
  </outline>
</glyph>
<glyph name="bullet" format="1">
  <advance width="202"/>
  <unicode hex="2022"/>
  <outline>
    <contour>
      <point x="100" y="265" type="line" name="hr00"/>
      <point x="175" y="350" type="line"/>
      <point x="100" y="435" type="line"/>
      <point x="27" y="350" type="line"/>
    </contour>
  </outline>
</glyph>
<glyph name="ellipsis" format="1">
  <advance width="451"/>
  <unicode hex="2026"/>
  <outline>
    <contour>
      <point x="42" y="0" type="line" name="hr00"/>
      <point x="121" y="0" type="line"/>
      <point x="121" y="92" type="line"/>
      <point x="42" y="92" type="line"/>
    </contour>
    <contour>
      <point x="186" y="0" type="line"/>
      <point x="265" y="0" type="line"/>
      <point x="265" y="92" type="line"/>
      <point x="186" y="92" type="line"/>
    </contour>
    <contour>
      <point x="330" y="0" type="line"/>
      <point x="409" y="0" type="line"/>
      <point x="409" y="92" type="line"/>
      <point x="330" y="92" type="line"/>
    </contour>
  </outline>
</glyph>
<glyph name="guilsinglleft" format="1">
  <advance width="197"/>
  <unicode hex="2039"/>
  <outline>
    <contour>
      <point x="32" y="287" type="line" name="hr00"/>
      <point x="137" y="137" type="line"/>
      <point x="165" y="163" type="line"/>
      <point x="97" y="320" type="line"/>
      <point x="165" y="477" type="line"/>
      <point x="137" y="503" type="line"/>
      <point x="32" y="353" type="line"/>
    </contour>
  </outline>
</glyph>
<glyph name="fraction" format="1">
  <advance width="292"/>
  <unicode hex="2044"/>
  <outline>
    <contour>
      <point x="26" y="-15" type="line" name="hr00"/>
      <point x="83" y="-15" type="line"/>
      <point x="266" y="715" type="line"/>
      <point x="209" y="715" type="line"/>
    </contour>
  </outline>
</glyph>
<glyph name="zeroinferior" format="1">
  <advance width="290"/>
  <unicode hex="2080"/>
  <outline>
    <contour>
      <point x="145" y="-15" type="curve" name="hr00"/>
      <point x="218" y="-15" smooth="yes"/>
      <point x="251" y="27" smooth="yes"/>
      <point x="251" y="119" type="curve" smooth="yes"/>
      <point x="251" y="289" type="line"/>
      <point x="251" y="381" smooth="yes"/>
      <point x="218" y="423" smooth="yes"/>
      <point x="145" y="423" type="curve" smooth="yes"/>
      <point x="72" y="423" smooth="yes"/>
      <point x="39" y="381" smooth="yes"/>
      <point x="39" y="289" type="curve" smooth="yes"/>
      <point x="39" y="119" type="line" smooth="yes"/>
      <point x="39" y="27" smooth="yes"/>
      <point x="72" y="-15" smooth="yes"/>
    </contour>
    <contour>
      <point x="187" y="110" type="line"/>
      <point x="187" y="58" smooth="yes"/>
      <point x="174" y="34" smooth="yes"/>
      <point x="145" y="34" type="curve" smooth="yes"/>
      <point x="116" y="34" smooth="yes"/>
      <point x="102" y="59" smooth="yes"/>
      <point x="102" y="110" type="curve" smooth="yes"/>
      <point x="102" y="298" type="line" smooth="yes"/>
      <point x="102" y="349" smooth="yes"/>
      <point x="116" y="374" smooth="yes"/>
      <point x="145" y="374" type="curve" smooth="yes"/>
      <point x="174" y="374" smooth="yes"/>
      <point x="187" y="350" smooth="yes"/>
      <point x="187" y="298" type="curve" smooth="yes"/>
    </contour>
  </outline>
</glyph>
<glyph name="oneinferior" format="1">
  <advance width="177"/>
  <unicode hex="2081"/>
  <outline>
    <contour>
      <point x="130" y="420" type="line" name="hr00"/>
      <point x="89" y="420" type="line"/>
      <point x="11" y="394" type="line"/>
      <point x="11" y="359" type="line"/>
      <point x="67" y="359" type="line"/>
      <point x="67" y="0" type="line"/>
      <point x="130" y="0" type="line"/>
    </contour>
  </outline>
</glyph>
<glyph name="twoinferior" format="1">
  <advance width="272"/>
  <unicode hex="2082"/>
  <outline>
    <contour>
      <point x="35" y="0" type="line" name="hr00"/>
      <point x="234" y="0" type="line"/>
      <point x="234" y="49" type="line"/>
      <point x="92" y="49" type="line"/>
      <point x="198" y="210" type="line" smooth="yes"/>
      <point x="227" y="254" smooth="yes"/>
      <point x="237" y="283" smooth="yes"/>
      <point x="237" y="323" type="curve" smooth="yes"/>
      <point x="237" y="397" smooth="yes"/>
      <point x="207" y="429" smooth="yes"/>
      <point x="137" y="429" type="curve" smooth="yes"/>
      <point x="74" y="429"/>
      <point x="44" y="395"/>
      <point x="36" y="316" type="curve"/>
      <point x="94" y="308" type="line"/>
      <point x="97" y="360" smooth="yes"/>
      <point x="109" y="381" smooth="yes"/>
      <point x="137" y="381" type="curve" smooth="yes"/>
      <point x="163" y="381" smooth="yes"/>
      <point x="175" y="363" smooth="yes"/>
      <point x="175" y="323" type="curve" smooth="yes"/>
      <point x="175" y="299" smooth="yes"/>
      <point x="168" y="275" smooth="yes"/>
      <point x="153" y="250" type="curve" smooth="yes"/>
      <point x="85" y="152" type="line" smooth="yes"/>
      <point x="53" y="106" smooth="yes"/>
      <point x="35" y="66" smooth="yes"/>
      <point x="35" y="30" type="curve" smooth="yes"/>
    </contour>
  </outline>
</glyph>
<glyph name="threeinferior" format="1">
  <advance width="276"/>
  <unicode hex="2083"/>
  <outline>
    <contour>
      <point x="127" y="-15" type="curve" name="hr00"/>
      <point x="203" y="-15" smooth="yes"/>
      <point x="237" y="23" smooth="yes"/>
      <point x="237" y="107" type="curve" smooth="yes"/>
      <point x="237" y="160"/>
      <point x="225" y="196"/>
      <point x="200" y="214" type="curve"/>
      <point x="221" y="231" smooth="yes"/>
      <point x="231" y="262" smooth="yes"/>
      <point x="231" y="307" type="curve" smooth="yes"/>
      <point x="231" y="389" smooth="yes"/>
      <point x="202" y="423" smooth="yes"/>
      <point x="132" y="423" type="curve" smooth="yes"/>
      <point x="68" y="423"/>
      <point x="38" y="388"/>
      <point x="32" y="310" type="curve"/>
      <point x="90" y="302" type="line"/>
      <point x="93" y="354" smooth="yes"/>
      <point x="105" y="375" smooth="yes"/>
      <point x="133" y="375" type="curve" smooth="yes"/>
      <point x="159" y="375" smooth="yes"/>
      <point x="170" y="356" smooth="yes"/>
      <point x="170" y="312" type="curve" smooth="yes"/>
      <point x="170" y="290" type="line" smooth="yes"/>
      <point x="170" y="248" smooth="yes"/>
      <point x="158" y="229" smooth="yes"/>
      <point x="132" y="229" type="curve" smooth="yes"/>
      <point x="97" y="229" type="line"/>
      <point x="97" y="184" type="line"/>
      <point x="128" y="184" type="line" smooth="yes"/>
      <point x="162" y="184" smooth="yes"/>
      <point x="173" y="166" smooth="yes"/>
      <point x="173" y="115" type="curve" smooth="yes"/>
      <point x="173" y="96" type="line" smooth="yes"/>
      <point x="173" y="54" smooth="yes"/>
      <point x="159" y="34" smooth="yes"/>
      <point x="130" y="34" type="curve" smooth="yes"/>
      <point x="104" y="34"/>
      <point x="92" y="55"/>
      <point x="88" y="108" type="curve"/>
      <point x="31" y="98" type="line"/>
      <point x="38" y="19" smooth="yes"/>
      <point x="67" y="-15" smooth="yes"/>
    </contour>
  </outline>
</glyph>
<glyph name="fourinferior" format="1">
  <advance width="269"/>
  <unicode hex="2084"/>
  <outline>
    <contour>
      <point x="155" y="0" type="line" name="hr00"/>
      <point x="218" y="0" type="line"/>
      <point x="218" y="93" type="line"/>
      <point x="242" y="93" type="line"/>
      <point x="242" y="143" type="line"/>
      <point x="218" y="143" type="line"/>
      <point x="218" y="420" type="line"/>
      <point x="109" y="420" type="line"/>
      <point x="13" y="126" type="line"/>
      <point x="13" y="93" type="line"/>
      <point x="155" y="93" type="line"/>
    </contour>
    <contour>
      <point x="79" y="143" type="line"/>
      <point x="155" y="378" type="line"/>
      <point x="155" y="143" type="line"/>
    </contour>
  </outline>
</glyph>
<glyph name="fiveinferior" format="1">
  <advance width="268"/>
  <unicode hex="2085"/>
  <outline>
    <contour>
      <point x="132" y="-15" type="curve" name="hr00"/>
      <point x="206" y="-15" smooth="yes"/>
      <point x="238" y="26" smooth="yes"/>
      <point x="238" y="119" type="curve" smooth="yes"/>
      <point x="238" y="203" smooth="yes"/>
      <point x="207" y="238" smooth="yes"/>
      <point x="132" y="238" type="curve" smooth="yes"/>
      <point x="109" y="238" type="line"/>
      <point x="109" y="365" type="line"/>
      <point x="228" y="365" type="line"/>
      <point x="228" y="414" type="line"/>
      <point x="48" y="414" type="line"/>
      <point x="48" y="192" type="line"/>
      <point x="132" y="192" type="line" smooth="yes"/>
      <point x="163" y="192" smooth="yes"/>
      <point x="175" y="173" smooth="yes"/>
      <point x="175" y="127" type="curve" smooth="yes"/>
      <point x="175" y="110" type="line" smooth="yes"/>
      <point x="175" y="58" smooth="yes"/>
      <point x="162" y="34" smooth="yes"/>
      <point x="133" y="34" type="curve" smooth="yes"/>
      <point x="108" y="34"/>
      <point x="96" y="56"/>
      <point x="93" y="108" type="curve"/>
      <point x="35" y="98" type="line"/>
      <point x="42" y="19" smooth="yes"/>
      <point x="71" y="-15" smooth="yes"/>
    </contour>
  </outline>
</glyph>
<glyph name="sixinferior" format="1">
  <advance width="286"/>
  <unicode hex="2086"/>
  <outline>
    <contour>
      <point x="143" y="-15" type="curve" name="hr00"/>
      <point x="217" y="-15" smooth="yes"/>
      <point x="251" y="25" smooth="yes"/>
      <point x="251" y="113" type="curve" smooth="yes"/>
      <point x="251" y="199" smooth="yes"/>
      <point x="219" y="242" smooth="yes"/>
      <point x="153" y="242" type="curve" smooth="yes"/>
      <point x="134" y="242"/>
      <point x="115" y="233"/>
      <point x="102" y="217" type="curve"/>
      <point x="102" y="300" type="line" smooth="yes"/>
      <point x="102" y="352" smooth="yes"/>
      <point x="115" y="374" smooth="yes"/>
      <point x="144" y="374" type="curve" smooth="yes"/>
      <point x="167" y="374"/>
      <point x="178" y="355"/>
      <point x="182" y="307" type="curve"/>
      <point x="242" y="324" type="line"/>
      <point x="236" y="391" smooth="yes"/>
      <point x="205" y="423" smooth="yes"/>
      <point x="146" y="423" type="curve" smooth="yes"/>
      <point x="72" y="423" smooth="yes"/>
      <point x="39" y="382" smooth="yes"/>
      <point x="39" y="291" type="curve" smooth="yes"/>
      <point x="39" y="113" type="line" smooth="yes"/>
      <point x="39" y="24" smooth="yes"/>
      <point x="70" y="-15" smooth="yes"/>
    </contour>
    <contour>
      <point x="146" y="33" type="curve"/>
      <point x="116" y="33" smooth="yes"/>
      <point x="102" y="56" smooth="yes"/>
      <point x="102" y="105" type="curve" smooth="yes"/>
      <point x="102" y="127" type="line" smooth="yes"/>
      <point x="102" y="174" smooth="yes"/>
      <point x="116" y="196" smooth="yes"/>
      <point x="146" y="196" type="curve" smooth="yes"/>
      <point x="175" y="196" smooth="yes"/>
      <point x="190" y="172" smooth="yes"/>
      <point x="190" y="124" type="curve" smooth="yes"/>
      <point x="190" y="105" type="line" smooth="yes"/>
      <point x="190" y="57" smooth="yes"/>
      <point x="175" y="33" smooth="yes"/>
    </contour>
  </outline>
</glyph>
<glyph name="seveninferior" format="1">
  <advance width="226"/>
  <unicode hex="2087"/>
  <outline>
    <contour>
      <point x="16" y="371" type="line" name="hr00"/>
      <point x="144" y="371" type="line"/>
      <point x="43" y="0" type="line"/>
      <point x="109" y="0" type="line"/>
      <point x="211" y="387" type="line"/>
      <point x="211" y="420" type="line"/>
      <point x="16" y="420" type="line"/>
    </contour>
  </outline>
</glyph>
<glyph name="eightinferior" format="1">
  <advance width="283"/>
  <unicode hex="2088"/>
  <outline>
    <contour>
      <point x="142" y="-15" type="curve" name="hr00"/>
      <point x="215" y="-15" smooth="yes"/>
      <point x="248" y="21" smooth="yes"/>
      <point x="248" y="101" type="curve" smooth="yes"/>
      <point x="248" y="161"/>
      <point x="230" y="197"/>
      <point x="193" y="210" type="curve"/>
      <point x="224" y="224" smooth="yes"/>
      <point x="239" y="257" smooth="yes"/>
      <point x="239" y="313" type="curve" smooth="yes"/>
      <point x="239" y="389" smooth="yes"/>
      <point x="209" y="423" smooth="yes"/>
      <point x="142" y="423" type="curve" smooth="yes"/>
      <point x="73" y="423" smooth="yes"/>
      <point x="42" y="389" smooth="yes"/>
      <point x="42" y="313" type="curve" smooth="yes"/>
      <point x="42" y="258"/>
      <point x="58" y="223"/>
      <point x="90" y="210" type="curve"/>
      <point x="52" y="196" smooth="yes"/>
      <point x="35" y="162" smooth="yes"/>
      <point x="35" y="101" type="curve" smooth="yes"/>
      <point x="35" y="20" smooth="yes"/>
      <point x="68" y="-15" smooth="yes"/>
    </contour>
    <contour>
      <point x="142" y="33" type="curve"/>
      <point x="111" y="33" smooth="yes"/>
      <point x="97" y="54" smooth="yes"/>
      <point x="97" y="99" type="curve" smooth="yes"/>
      <point x="97" y="119" type="line" smooth="yes"/>
      <point x="97" y="164" smooth="yes"/>
      <point x="111" y="185" smooth="yes"/>
      <point x="142" y="185" type="curve" smooth="yes"/>
      <point x="171" y="185" smooth="yes"/>
      <point x="184" y="164" smooth="yes"/>
      <point x="184" y="119" type="curve" smooth="yes"/>
      <point x="184" y="99" type="line" smooth="yes"/>
      <point x="184" y="54" smooth="yes"/>
      <point x="171" y="33" smooth="yes"/>
    </contour>
    <contour>
      <point x="180" y="289" type="line" smooth="yes"/>
      <point x="180" y="252" smooth="yes"/>
      <point x="167" y="233" smooth="yes"/>
      <point x="142" y="233" type="curve" smooth="yes"/>
      <point x="116" y="233" smooth="yes"/>
      <point x="103" y="251" smooth="yes"/>
      <point x="103" y="289" type="curve" smooth="yes"/>
      <point x="103" y="319" type="line" smooth="yes"/>
      <point x="103" y="358" smooth="yes"/>
      <point x="115" y="375" smooth="yes"/>
      <point x="142" y="375" type="curve" smooth="yes"/>
      <point x="168" y="375" smooth="yes"/>
      <point x="180" y="357" smooth="yes"/>
      <point x="180" y="319" type="curve" smooth="yes"/>
    </contour>
  </outline>
</glyph>
<glyph name="nineinferior" format="1">
  <advance width="286"/>
  <unicode hex="2089"/>
  <outline>
    <contour>
      <point x="140" y="-15" type="curve" smooth="yes" name="hr00"/>
      <point x="214" y="-15" smooth="yes"/>
      <point x="247" y="26" smooth="yes"/>
      <point x="247" y="117" type="curve" smooth="yes"/>
      <point x="247" y="295" type="line" smooth="yes"/>
      <point x="247" y="384" smooth="yes"/>
      <point x="215" y="423" smooth="yes"/>
      <point x="141" y="423" type="curve" smooth="yes"/>
      <point x="68" y="423" smooth="yes"/>
      <point x="35" y="383" smooth="yes"/>
      <point x="35" y="295" type="curve" smooth="yes"/>
      <point x="35" y="209" smooth="yes"/>
      <point x="68" y="166" smooth="yes"/>
      <point x="133" y="166" type="curve" smooth="yes"/>
      <point x="149" y="166"/>
      <point x="166" y="173"/>
      <point x="183" y="188" type="curve"/>
      <point x="183" y="108" type="line" smooth="yes"/>
      <point x="183" y="56" smooth="yes"/>
      <point x="170" y="34" smooth="yes"/>
      <point x="140" y="34" type="curve" smooth="yes"/>
      <point x="113" y="34"/>
      <point x="100" y="55"/>
      <point x="95" y="109" type="curve"/>
      <point x="39" y="100" type="line"/>
      <point x="45" y="20" smooth="yes"/>
      <point x="76" y="-15" smooth="yes"/>
    </contour>
    <contour>
      <point x="140" y="212" type="curve"/>
      <point x="110" y="212" smooth="yes"/>
      <point x="96" y="235" smooth="yes"/>
      <point x="96" y="284" type="curve" smooth="yes"/>
      <point x="96" y="303" type="line" smooth="yes"/>
      <point x="96" y="352" smooth="yes"/>
      <point x="110" y="375" smooth="yes"/>
      <point x="140" y="375" type="curve" smooth="yes"/>
      <point x="170" y="375" smooth="yes"/>
      <point x="183" y="353" smooth="yes"/>
      <point x="183" y="303" type="curve" smooth="yes"/>
      <point x="183" y="284" type="line" smooth="yes"/>
      <point x="183" y="234" smooth="yes"/>
      <point x="170" y="212" smooth="yes"/>
    </contour>
  </outline>
</glyph>
<glyph name="lira" format="1">
  <advance width="368"/>
  <unicode hex="20A4"/>
  <outline>
    <contour>
      <point x="41" y="0" type="line" name="hr00"/>
      <point x="352" y="0" type="line"/>
      <point x="352" y="64" type="line"/>
      <point x="149" y="64" type="line"/>
      <point x="149" y="218" type="line"/>
      <point x="272" y="218" type="line"/>
      <point x="272" y="270" type="line"/>
      <point x="149" y="270" type="line"/>
      <point x="149" y="368" type="line"/>
      <point x="272" y="368" type="line"/>
      <point x="272" y="420" type="line"/>
      <point x="149" y="420" type="line"/>
      <point x="149" y="503" type="line" smooth="yes"/>
      <point x="149" y="605" smooth="yes"/>
      <point x="169" y="650" smooth="yes"/>
      <point x="215" y="650" type="curve" smooth="yes"/>
      <point x="252" y="650"/>
      <point x="270" y="618"/>
      <point x="276" y="537" type="curve"/>
      <point x="349" y="555" type="line"/>
      <point x="339" y="666" smooth="yes"/>
      <point x="298" y="715" smooth="yes"/>
      <point x="216" y="715" type="curve" smooth="yes"/>
      <point x="114" y="715" smooth="yes"/>
      <point x="69" y="645" smooth="yes"/>
      <point x="69" y="486" type="curve" smooth="yes"/>
      <point x="69" y="420" type="line"/>
      <point x="31" y="420" type="line"/>
      <point x="31" y="368" type="line"/>
      <point x="69" y="368" type="line"/>
      <point x="69" y="270" type="line"/>
      <point x="31" y="270" type="line"/>
      <point x="31" y="218" type="line"/>
      <point x="69" y="218" type="line"/>
      <point x="69" y="43" type="line"/>
      <point x="41" y="33" type="line"/>
    </contour>
  </outline>
</glyph>
<glyph name="Euro" format="1">
  <advance width="384"/>
  <unicode hex="20AC"/>
  <outline>
    <contour>
      <point x="208" y="-15" type="curve" name="hr00"/>
      <point x="299" y="-15"/>
      <point x="343" y="37"/>
      <point x="354" y="155" type="curve"/>
      <point x="281" y="161" type="line"/>
      <point x="273" y="79" smooth="yes"/>
      <point x="254" y="50" smooth="yes"/>
      <point x="207" y="50" type="curve" smooth="yes"/>
      <point x="153" y="50" smooth="yes"/>
      <point x="129" y="94" smooth="yes"/>
      <point x="129" y="193" type="curve" smooth="yes"/>
      <point x="129" y="254" type="line"/>
      <point x="249" y="254" type="line"/>
      <point x="249" y="306" type="line"/>
      <point x="129" y="306" type="line"/>
      <point x="129" y="404" type="line"/>
      <point x="249" y="404" type="line"/>
      <point x="249" y="456" type="line"/>
      <point x="129" y="456" type="line"/>
      <point x="129" y="503" type="line" smooth="yes"/>
      <point x="129" y="604" smooth="yes"/>
      <point x="153" y="650" smooth="yes"/>
      <point x="207" y="650" type="curve" smooth="yes"/>
      <point x="248" y="650"/>
      <point x="267" y="625"/>
      <point x="274" y="558" type="curve"/>
      <point x="348" y="569" type="line"/>
      <point x="338" y="670" smooth="yes"/>
      <point x="295" y="715" smooth="yes"/>
      <point x="208" y="715" type="curve" smooth="yes"/>
      <point x="98" y="715" smooth="yes"/>
      <point x="51" y="646" smooth="yes"/>
      <point x="51" y="486" type="curve" smooth="yes"/>
      <point x="51" y="456" type="line"/>
      <point x="12" y="456" type="line"/>
      <point x="12" y="404" type="line"/>
      <point x="51" y="404" type="line"/>
      <point x="51" y="306" type="line"/>
      <point x="12" y="306" type="line"/>
      <point x="12" y="254" type="line"/>
      <point x="51" y="254" type="line"/>
      <point x="51" y="214" type="line" smooth="yes"/>
      <point x="51" y="54" smooth="yes"/>
      <point x="98" y="-15" smooth="yes"/>
    </contour>
  </outline>
</glyph>
<glyph name="uni2113" format="1">
  <advance width="203"/>
  <unicode hex="2113"/>
  <outline>
    <contour>
      <point x="154" y="-15" type="curve" name="hr00"/>
      <point x="178" y="-15"/>
      <point x="202" y="-8"/>
      <point x="224" y="6" type="curve"/>
      <point x="209" y="65" type="line"/>
      <point x="195" y="54" smooth="yes"/>
      <point x="182" y="49" smooth="yes"/>
      <point x="169" y="49" type="curve" smooth="yes"/>
      <point x="151" y="49" smooth="yes"/>
      <point x="140" y="69" smooth="yes"/>
      <point x="140" y="102" type="curve" smooth="yes"/>
      <point x="140" y="673" type="line"/>
      <point x="64" y="673" type="line"/>
      <point x="64" y="118" type="line" smooth="yes"/>
      <point x="64" y="28" smooth="yes"/>
      <point x="93" y="-15" smooth="yes"/>
    </contour>
  </outline>
</glyph>
<glyph name="trademark" format="1">
  <advance width="544"/>
  <unicode hex="2122"/>
  <outline>
    <contour>
      <point x="390" y="365" type="line" name="hr00"/>
      <point x="444" y="702" type="line"/>
      <point x="444" y="300" type="line"/>
      <point x="499" y="300" type="line"/>
      <point x="499" y="755" type="line"/>
      <point x="415" y="755" type="line"/>
      <point x="363" y="412" type="line"/>
      <point x="311" y="755" type="line"/>
      <point x="228" y="755" type="line"/>
      <point x="228" y="300" type="line"/>
      <point x="282" y="300" type="line"/>
      <point x="282" y="703" type="line"/>
      <point x="335" y="365" type="line"/>
    </contour>
    <contour>
      <point x="14" y="711" type="line"/>
      <point x="74" y="711" type="line"/>
      <point x="74" y="300" type="line"/>
      <point x="129" y="300" type="line"/>
      <point x="129" y="711" type="line"/>
      <point x="190" y="711" type="line"/>
      <point x="190" y="755" type="line"/>
      <point x="14" y="755" type="line"/>
    </contour>
  </outline>
</glyph>
<glyph name="Omega" format="1">
  <advance width="465"/>
  <unicode hex="2126"/>
  <outline>
    <contour>
      <point x="46" y="0" type="line" name="hr00"/>
      <point x="207" y="0" type="line"/>
      <point x="207" y="223" type="line"/>
      <point x="151" y="233" smooth="yes"/>
      <point x="127" y="276" smooth="yes"/>
      <point x="127" y="366" type="curve" smooth="yes"/>
      <point x="127" y="506" type="line" smooth="yes"/>
      <point x="127" y="605" smooth="yes"/>
      <point x="160" y="650" smooth="yes"/>
      <point x="233" y="650" type="curve" smooth="yes"/>
      <point x="305" y="650" smooth="yes"/>
      <point x="338" y="605" smooth="yes"/>
      <point x="338" y="506" type="curve" smooth="yes"/>
      <point x="338" y="366" type="line" smooth="yes"/>
      <point x="338" y="276"/>
      <point x="312" y="230"/>
      <point x="256" y="223" type="curve"/>
      <point x="256" y="0" type="line"/>
      <point x="416" y="0" type="line"/>
      <point x="416" y="64" type="line"/>
      <point x="326" y="64" type="line"/>
      <point x="326" y="175" type="line"/>
      <point x="387" y="203" smooth="yes"/>
      <point x="416" y="270" smooth="yes"/>
      <point x="416" y="381" type="curve" smooth="yes"/>
      <point x="416" y="491" type="line" smooth="yes"/>
      <point x="416" y="646" smooth="yes"/>
      <point x="360" y="715" smooth="yes"/>
      <point x="233" y="715" type="curve" smooth="yes"/>
      <point x="105" y="715" smooth="yes"/>
      <point x="49" y="647" smooth="yes"/>
      <point x="49" y="491" type="curve" smooth="yes"/>
      <point x="49" y="381" type="line" smooth="yes"/>
      <point x="49" y="270"/>
      <point x="78" y="203"/>
      <point x="138" y="175" type="curve"/>
      <point x="138" y="64" type="line"/>
      <point x="46" y="64" type="line"/>
    </contour>
  </outline>
</glyph>
<glyph name="estimated" format="1">
  <advance width="600"/>
  <unicode hex="212E"/>
  <outline>
    <contour>
      <point x="302" y="-17" type="curve" name="hr00"/>
      <point x="149" y="-17" smooth="yes"/>
      <point x="44" y="95" smooth="yes"/>
      <point x="44" y="259" type="curve" smooth="yes"/>
      <point x="44" y="426" smooth="yes"/>
      <point x="146" y="535" smooth="yes"/>
      <point x="302" y="535" type="curve" smooth="yes"/>
      <point x="456" y="535"/>
      <point x="553" y="432"/>
      <point x="561" y="259" type="curve"/>
      <point x="157" y="259" type="line"/>
      <point x="157" y="78" type="line"/>
      <point x="198" y="39" smooth="yes"/>
      <point x="247" y="19" smooth="yes"/>
      <point x="302" y="19" type="curve" smooth="yes"/>
      <point x="385" y="19"/>
      <point x="449" y="59"/>
      <point x="495" y="139" type="curve"/>
      <point x="530" y="118" type="line"/>
      <point x="452" y="15" smooth="yes"/>
      <point x="398" y="-17" smooth="yes"/>
    </contour>
    <contour>
      <point x="448" y="295" type="line"/>
      <point x="448" y="440" type="line"/>
      <point x="406" y="480" smooth="yes"/>
      <point x="357" y="500" smooth="yes"/>
      <point x="301" y="500" type="curve" smooth="yes"/>
      <point x="244" y="500"/>
      <point x="196" y="480"/>
      <point x="157" y="440" type="curve"/>
      <point x="157" y="295" type="line"/>
    </contour>
  </outline>
</glyph>
<glyph name="partialdiff" format="1">
  <advance width="386"/>
  <unicode hex="2202"/>
  <outline>
    <contour>
      <point x="155" y="-15" type="curve" smooth="yes" name="hr00"/>
      <point x="250" y="-15" smooth="yes"/>
      <point x="298" y="49" smooth="yes"/>
      <point x="313" y="195" type="curve" smooth="yes"/>
      <point x="341" y="468" smooth="yes"/>
      <point x="344" y="503" smooth="yes"/>
      <point x="344" y="538" type="curve" smooth="yes"/>
      <point x="344" y="730"/>
      <point x="289" y="803"/>
      <point x="145" y="803" type="curve"/>
      <point x="145" y="748" type="line"/>
      <point x="240" y="748" smooth="yes"/>
      <point x="273" y="689" smooth="yes"/>
      <point x="273" y="520" type="curve" smooth="yes"/>
      <point x="273" y="502"/>
      <point x="272" y="485"/>
      <point x="272" y="463" type="curve"/>
      <point x="257" y="513" smooth="yes"/>
      <point x="233" y="535" smooth="yes"/>
      <point x="193" y="535" type="curve" smooth="yes"/>
      <point x="114" y="535" smooth="yes"/>
      <point x="66" y="464" smooth="yes"/>
      <point x="52" y="325" type="curve" smooth="yes"/>
      <point x="39" y="195" type="line" smooth="yes"/>
      <point x="37" y="175" smooth="yes"/>
      <point x="36" y="157" smooth="yes"/>
      <point x="36" y="140" type="curve" smooth="yes"/>
      <point x="36" y="33" smooth="yes"/>
      <point x="73" y="-15" smooth="yes"/>
    </contour>
    <contour>
      <point x="164" y="47" type="curve"/>
      <point x="131" y="47" smooth="yes"/>
      <point x="113" y="77" smooth="yes"/>
      <point x="113" y="134" type="curve" smooth="yes"/>
      <point x="113" y="146" smooth="yes"/>
      <point x="110" y="106" smooth="yes"/>
      <point x="131" y="339" type="curve" smooth="yes"/>
      <point x="139" y="431" smooth="yes"/>
      <point x="162" y="473" smooth="yes"/>
      <point x="203" y="473" type="curve" smooth="yes"/>
      <point x="236" y="473" smooth="yes"/>
      <point x="254" y="443" smooth="yes"/>
      <point x="254" y="386" type="curve" smooth="yes"/>
      <point x="254" y="370" smooth="yes"/>
      <point x="252" y="342" smooth="yes"/>
      <point x="236" y="181" type="curve" smooth="yes"/>
      <point x="226" y="88" smooth="yes"/>
      <point x="204" y="47" smooth="yes"/>
    </contour>
  </outline>
</glyph>
<glyph name="Delta" format="1">
  <advance width="394"/>
  <unicode hex="2206"/>
  <outline>
    <contour>
      <point x="250" y="700" type="line" name="hr00"/>
      <point x="144" y="700" type="line"/>
      <point x="16" y="0" type="line"/>
      <point x="378" y="0" type="line"/>
    </contour>
    <contour>
      <point x="196" y="588" type="line"/>
      <point x="285" y="64" type="line"/>
      <point x="107" y="64" type="line"/>
    </contour>
  </outline>
</glyph>
<glyph name="product" format="1">
  <advance width="480"/>
  <unicode hex="220F"/>
  <outline>
    <contour>
      <point x="308" y="-100" type="line" name="hr00"/>
      <point x="387" y="-100" type="line"/>
      <point x="387" y="636" type="line"/>
      <point x="445" y="636" type="line"/>
      <point x="445" y="700" type="line"/>
      <point x="35" y="700" type="line"/>
      <point x="35" y="636" type="line"/>
      <point x="92" y="636" type="line"/>
      <point x="92" y="-100" type="line"/>
      <point x="171" y="-100" type="line"/>
      <point x="171" y="636" type="line"/>
      <point x="308" y="636" type="line"/>
    </contour>
  </outline>
</glyph>
<glyph name="summation" format="1">
  <advance width="353"/>
  <unicode hex="2211"/>
  <outline>
    <contour>
      <point x="16" y="-100" type="line" name="hr00"/>
      <point x="337" y="-100" type="line"/>
      <point x="337" y="-36" type="line"/>
      <point x="113" y="-36" type="line"/>
      <point x="241" y="300" type="line"/>
      <point x="113" y="636" type="line"/>
      <point x="330" y="636" type="line"/>
      <point x="330" y="700" type="line"/>
      <point x="16" y="700" type="line"/>
      <point x="165" y="300" type="line"/>
    </contour>
  </outline>
</glyph>
<glyph name="minus" format="1">
  <advance width="377"/>
  <unicode hex="2212"/>
  <outline>
    <contour>
      <point x="56" y="319" type="line" name="hr00"/>
      <point x="320" y="319" type="line"/>
      <point x="320" y="381" type="line"/>
      <point x="56" y="381" type="line"/>
    </contour>
  </outline>
</glyph>
<glyph name="radical" format="1">
  <advance width="462"/>
  <unicode hex="221A"/>
  <outline>
    <contour>
      <point x="132" y="324" type="line" name="hr00"/>
      <point x="52" y="324" type="line"/>
      <point x="147" y="-180" type="line"/>
      <point x="245" y="-180" type="line"/>
      <point x="415" y="758" type="line"/>
      <point x="520" y="758" type="line"/>
      <point x="520" y="822" type="line"/>
      <point x="347" y="822" type="line"/>
      <point x="196" y="-56" type="line"/>
    </contour>
  </outline>
</glyph>
<glyph name="infinity" format="1">
  <advance width="484"/>
  <unicode hex="221E"/>
  <outline>
    <contour>
      <point x="152" y="179" type="curve" name="hr00"/>
      <point x="198" y="179"/>
      <point x="226" y="195"/>
      <point x="244" y="233" type="curve"/>
      <point x="261" y="196" smooth="yes"/>
      <point x="289" y="179" smooth="yes"/>
      <point x="332" y="179" type="curve" smooth="yes"/>
      <point x="413" y="179" smooth="yes"/>
      <point x="447" y="230" smooth="yes"/>
      <point x="447" y="350" type="curve" smooth="yes"/>
      <point x="447" y="471" smooth="yes"/>
      <point x="413" y="522" smooth="yes"/>
      <point x="332" y="522" type="curve" smooth="yes"/>
      <point x="284" y="522"/>
      <point x="257" y="505"/>
      <point x="240" y="465" type="curve"/>
      <point x="222" y="504" smooth="yes"/>
      <point x="195" y="522" smooth="yes"/>
      <point x="152" y="522" type="curve" smooth="yes"/>
      <point x="71" y="522" smooth="yes"/>
      <point x="37" y="471" smooth="yes"/>
      <point x="37" y="350" type="curve" smooth="yes"/>
      <point x="37" y="230" smooth="yes"/>
      <point x="71" y="179" smooth="yes"/>
    </contour>
    <contour>
      <point x="157" y="241" type="curve"/>
      <point x="115" y="241" smooth="yes"/>
      <point x="96" y="275" smooth="yes"/>
      <point x="96" y="350" type="curve" smooth="yes"/>
      <point x="96" y="425" smooth="yes"/>
      <point x="115" y="459" smooth="yes"/>
      <point x="157" y="459" type="curve" smooth="yes"/>
      <point x="190" y="459"/>
      <point x="212" y="430"/>
      <point x="220" y="376" type="curve"/>
      <point x="214" y="324" type="line" smooth="yes"/>
      <point x="207" y="264" smooth="yes"/>
      <point x="192" y="241" smooth="yes"/>
    </contour>
    <contour>
      <point x="270" y="372" type="line" smooth="yes"/>
      <point x="278" y="434" smooth="yes"/>
      <point x="292" y="459" smooth="yes"/>
      <point x="326" y="459" type="curve" smooth="yes"/>
      <point x="369" y="459" smooth="yes"/>
      <point x="389" y="425" smooth="yes"/>
      <point x="389" y="350" type="curve" smooth="yes"/>
      <point x="389" y="276" smooth="yes"/>
      <point x="369" y="241" smooth="yes"/>
      <point x="326" y="241" type="curve" smooth="yes"/>
      <point x="294" y="241"/>
      <point x="272" y="270"/>
      <point x="264" y="323" type="curve"/>
    </contour>
  </outline>
</glyph>
<glyph name="integral" format="1">
  <advance width="234"/>
  <unicode hex="222B"/>
  <outline>
    <contour>
      <point x="40" y="-195" type="curve" name="hr00"/>
      <point x="120" y="-195" smooth="yes"/>
      <point x="156" y="-129" smooth="yes"/>
      <point x="156" y="15" type="curve" smooth="yes"/>
      <point x="156" y="520" type="line" smooth="yes"/>
      <point x="156" y="611" smooth="yes"/>
      <point x="170" y="648" smooth="yes"/>
      <point x="206" y="648" type="curve" smooth="yes"/>
      <point x="217" y="648"/>
      <point x="228" y="645"/>
      <point x="241" y="638" type="curve"/>
      <point x="256" y="703" type="line"/>
      <point x="239" y="711" smooth="yes"/>
      <point x="217" y="715" smooth="yes"/>
      <point x="194" y="715" type="curve" smooth="yes"/>
      <point x="115" y="715" smooth="yes"/>
      <point x="78" y="648" smooth="yes"/>
      <point x="78" y="505" type="curve" smooth="yes"/>
      <point x="78" y="0" type="line" smooth="yes"/>
      <point x="78" y="-90" smooth="yes"/>
      <point x="63" y="-128" smooth="yes"/>
      <point x="28" y="-128" type="curve" smooth="yes"/>
      <point x="17" y="-128"/>
      <point x="5" y="-125"/>
      <point x="-6" y="-118" type="curve"/>
      <point x="-22" y="-183" type="line"/>
      <point x="-4" y="-191" smooth="yes"/>
      <point x="17" y="-195" smooth="yes"/>
    </contour>
  </outline>
</glyph>
<glyph name="approxequal" format="1">
  <advance width="377"/>
  <unicode hex="2248"/>
  <outline>
    <contour>
      <point x="56" y="419" type="line"/>
      <point x="74" y="406" smooth="yes"/>
      <point x="94" y="401" smooth="yes"/>
      <point x="113" y="401" type="curve" smooth="yes"/>
      <point x="163" y="401" smooth="yes"/>
      <point x="213" y="436" smooth="yes"/>
      <point x="264" y="436" type="curve" smooth="yes" name="hr01"/>
      <point x="282" y="436"/>
      <point x="302" y="431"/>
      <point x="320" y="419" type="curve"/>
      <point x="320" y="481" type="line"/>
      <point x="302" y="493" smooth="yes"/>
      <point x="282" y="497" smooth="yes"/>
      <point x="264" y="497" type="curve" smooth="yes"/>
      <point x="213" y="497" smooth="yes"/>
      <point x="162" y="464" smooth="yes"/>
      <point x="113" y="464" type="curve" smooth="yes" name="hr02"/>
      <point x="94" y="464"/>
      <point x="74" y="469"/>
      <point x="56" y="481" type="curve"/>
    </contour>
    <contour>
      <point x="56" y="219" type="line"/>
      <point x="74" y="206" smooth="yes"/>
      <point x="94" y="201" smooth="yes"/>
      <point x="113" y="201" type="curve" smooth="yes"/>
      <point x="163" y="201" smooth="yes"/>
      <point x="213" y="236" smooth="yes"/>
      <point x="264" y="236" type="curve" smooth="yes" name="hr03"/>
      <point x="282" y="236"/>
      <point x="302" y="231"/>
      <point x="320" y="219" type="curve"/>
      <point x="320" y="281" type="line"/>
      <point x="302" y="293" smooth="yes"/>
      <point x="282" y="297" smooth="yes"/>
      <point x="264" y="297" type="curve" smooth="yes"/>
      <point x="213" y="297" smooth="yes"/>
      <point x="162" y="264" smooth="yes"/>
      <point x="113" y="264" type="curve" smooth="yes" name="hr04"/>
      <point x="94" y="264"/>
      <point x="74" y="269"/>
      <point x="56" y="281" type="curve"/>
    </contour>
  </outline>
</glyph>
<glyph name="lozenge" format="1">
  <advance width="394"/>
  <unicode hex="25CA"/>
  <outline>
    <contour>
      <point x="250" y="700" type="line" name="hr00"/>
      <point x="144" y="700" type="line"/>
      <point x="31" y="350" type="line"/>
      <point x="144" y="0" type="line"/>
      <point x="250" y="0" type="line"/>
      <point x="364" y="350" type="line"/>
    </contour>
    <contour>
      <point x="110" y="350" type="line"/>
      <point x="196" y="636" type="line"/>
      <point x="282" y="350" type="line"/>
      <point x="196" y="63" type="line"/>
    </contour>
  </outline>
</glyph>
<glyph name="fi" format="1">
  <advance width="419"/>
  <unicode hex="FB01"/>
  <outline>
    <contour>
      <point x="201" y="478" type="line"/>
      <point x="279" y="478" type="line"/>
      <point x="279" y="540" type="line"/>
      <point x="201" y="540" type="line"/>
    </contour>
    <component  base="f.alt"/>
    <component  base="dotlessi" xOffset="216"/>
  </outline>
</glyph>
<glyph name="apple" format="1">
  <advance width="831"/>
  <outline>
    <contour>
      <point x="500" y="-80" type="curve" smooth="yes"/>
      <point x="503" y="-79" smooth="yes"/>
      <point x="507" y="-79" smooth="yes"/>
      <point x="509" y="-79" type="curve" smooth="yes"/>
      <point x="517" y="-79" smooth="yes"/>
      <point x="523" y="-80" smooth="yes"/>
      <point x="530" y="-80" type="curve" smooth="yes"/>
      <point x="553" y="-80" smooth="yes"/>
      <point x="555" y="-63" smooth="yes"/>
      <point x="571" y="-54" type="curve" smooth="yes"/>
      <point x="584" y="-47" smooth="yes"/>
      <point x="603" y="-46" smooth="yes"/>
      <point x="615" y="-38" type="curve" smooth="yes"/>
      <point x="626" y="-30" smooth="yes"/>
      <point x="631" y="-10" smooth="yes"/>
      <point x="642" y="1" type="curve" smooth="yes"/>
      <point x="651" y="10" smooth="yes"/>
      <point x="665" y="11" smooth="yes"/>
      <point x="673" y="21" type="curve" smooth="yes"/>
      <point x="683" y="32" smooth="yes"/>
      <point x="682" y="54" smooth="yes"/>
      <point x="689" y="67" type="curve" smooth="yes"/>
      <point x="698" y="82" smooth="yes"/>
      <point x="720" y="83" smooth="yes"/>
      <point x="720" y="108" type="curve" smooth="yes"/>
      <point x="720" y="117" smooth="yes"/>
      <point x="718" y="127" smooth="yes"/>
      <point x="718" y="137" type="curve" smooth="yes"/>
      <point x="718" y="159"/>
      <point x="738" y="162"/>
      <point x="741" y="180" type="curve"/>
      <point x="741" y="193" smooth="yes"/>
      <point x="731" y="206" smooth="yes"/>
      <point x="731" y="220" type="curve" smooth="yes"/>
      <point x="731" y="231" smooth="yes"/>
      <point x="741" y="242" smooth="yes"/>
      <point x="741" y="255" type="curve" smooth="yes"/>
      <point x="741" y="274" smooth="yes"/>
      <point x="719" y="287" smooth="yes"/>
      <point x="719" y="310" type="curve" smooth="yes"/>
      <point x="719" y="317" smooth="yes"/>
      <point x="720" y="324" smooth="yes"/>
      <point x="720" y="332" type="curve" smooth="yes"/>
      <point x="720" y="357" smooth="yes"/>
      <point x="697" y="360" smooth="yes"/>
      <point x="688" y="376" type="curve" smooth="yes"/>
      <point x="682" y="385" smooth="yes"/>
      <point x="687" y="405" smooth="yes"/>
      <point x="681" y="414" type="curve" smooth="yes"/>
      <point x="671" y="431"/>
      <point x="648" y="435"/>
      <point x="635" y="446" type="curve"/>
      <point x="625" y="457" smooth="yes"/>
      <point x="626" y="473" smooth="yes"/>
      <point x="615" y="481" type="curve" smooth="yes"/>
      <point x="602" y="490" smooth="yes"/>
      <point x="588" y="488" smooth="yes"/>
      <point x="574" y="495" type="curve" smooth="yes"/>
      <point x="557" y="504" smooth="yes"/>
      <point x="555" y="527" smooth="yes"/>
      <point x="531" y="527" type="curve" smooth="yes"/>
      <point x="522" y="527" smooth="yes"/>
      <point x="513" y="525" smooth="yes"/>
      <point x="506" y="525" type="curve" smooth="yes"/>
      <point x="484" y="525" smooth="yes"/>
      <point x="478" y="547" smooth="yes"/>
      <point x="454" y="547" type="curve" smooth="yes" name="hr01"/>
      <point x="442" y="547" smooth="yes"/>
      <point x="427" y="536" smooth="yes"/>
      <point x="414" y="536" type="curve" smooth="yes"/>
      <point x="402" y="536" smooth="yes"/>
      <point x="386" y="547" smooth="yes"/>
      <point x="374" y="547" type="curve" smooth="yes"/>
      <point x="355" y="547" smooth="yes"/>
      <point x="347" y="526" smooth="yes"/>
      <point x="325" y="526" type="curve" smooth="yes"/>
      <point x="317" y="526" smooth="yes"/>
      <point x="309" y="528" smooth="yes"/>
      <point x="301" y="528" type="curve" smooth="yes"/>
      <point x="279" y="527" smooth="yes"/>
      <point x="273" y="502" smooth="yes"/>
      <point x="257" y="494" type="curve" smooth="yes"/>
      <point x="243" y="487" smooth="yes"/>
      <point x="223" y="489" smooth="yes"/>
      <point x="211" y="479" type="curve" smooth="yes"/>
      <point x="202" y="470" smooth="yes"/>
      <point x="198" y="451" smooth="yes"/>
      <point x="189" y="442" type="curve" smooth="yes"/>
      <point x="179" y="432" smooth="yes"/>
      <point x="160" y="432" smooth="yes"/>
      <point x="153" y="420" type="curve" smooth="yes"/>
      <point x="147" y="410" smooth="yes"/>
      <point x="149" y="391" smooth="yes"/>
      <point x="143" y="382" type="curve" smooth="yes"/>
      <point x="134" y="366" smooth="yes"/>
      <point x="112" y="361" smooth="yes"/>
      <point x="112" y="338" type="curve" smooth="yes"/>
      <point x="112" y="316" type="line" smooth="yes"/>
      <point x="112" y="299" smooth="yes"/>
      <point x="90" y="280" smooth="yes"/>
      <point x="90" y="261" type="curve" smooth="yes"/>
      <point x="90" y="247" smooth="yes"/>
      <point x="101" y="238" smooth="yes"/>
      <point x="101" y="223" type="curve" smooth="yes"/>
      <point x="101" y="210" smooth="yes"/>
      <point x="90" y="196" smooth="yes"/>
      <point x="90" y="184" type="curve" smooth="yes"/>
      <point x="90" y="165" smooth="yes"/>
      <point x="112" y="151" smooth="yes"/>
      <point x="112" y="134" type="curve" smooth="yes"/>
      <point x="112" y="127" smooth="yes"/>
      <point x="110" y="120" smooth="yes"/>
      <point x="110" y="112" type="curve" smooth="yes"/>
      <point x="110" y="88" smooth="yes"/>
      <point x="133" y="78" smooth="yes"/>
      <point x="140" y="67" type="curve" smooth="yes"/>
      <point x="150" y="51" smooth="yes"/>
      <point x="144" y="41" smooth="yes"/>
      <point x="154" y="25" type="curve" smooth="yes"/>
      <point x="163" y="11" smooth="yes"/>
      <point x="177" y="13" smooth="yes"/>
      <point x="189" y="4" type="curve" smooth="yes"/>
      <point x="201" y="-6" smooth="yes"/>
      <point x="200" y="-28" smooth="yes"/>
      <point x="216" y="-38" type="curve" smooth="yes"/>
      <point x="230" y="-47" smooth="yes"/>
      <point x="237" y="-39" smooth="yes"/>
      <point x="257" y="-50" type="curve" smooth="yes"/>
      <point x="269" y="-56" smooth="yes"/>
      <point x="280" y="-82" smooth="yes"/>
      <point x="303" y="-82" type="curve" smooth="yes"/>
      <point x="310" y="-82" smooth="yes"/>
      <point x="318" y="-80" smooth="yes"/>
      <point x="325" y="-80" type="curve" smooth="yes"/>
      <point x="346" y="-80" smooth="yes"/>
      <point x="356" y="-103" smooth="yes"/>
      <point x="374" y="-103" type="curve" smooth="yes" name="hr02"/>
      <point x="388" y="-103" smooth="yes"/>
      <point x="401" y="-92" smooth="yes"/>
      <point x="416" y="-92" type="curve" smooth="yes"/>
      <point x="429" y="-92" smooth="yes"/>
      <point x="444" y="-101" smooth="yes"/>
      <point x="457" y="-101" type="curve" smooth="yes"/>
      <point x="472" y="-101" smooth="yes"/>
      <point x="484" y="-85" smooth="yes"/>
    </contour>
    <contour>
      <point x="477" y="3" type="curve" smooth="yes"/>
      <point x="465" y="0" smooth="yes"/>
      <point x="456" y="-12" smooth="yes"/>
      <point x="445" y="-12" type="curve" smooth="yes" name="hr04"/>
      <point x="436" y="-12" smooth="yes"/>
      <point x="426" y="-5" smooth="yes"/>
      <point x="416" y="-5" type="curve" smooth="yes"/>
      <point x="405" y="-5"/>
      <point x="394" y="-14"/>
      <point x="383" y="-14" type="curve" name="hr05"/>
      <point x="371" y="-12" smooth="yes"/>
      <point x="364" y="3" smooth="yes"/>
      <point x="347" y="3" type="curve" smooth="yes" name="hr06"/>
      <point x="343" y="3" smooth="yes"/>
      <point x="338" y="2" smooth="yes"/>
      <point x="334" y="2" type="curve" smooth="yes"/>
      <point x="317" y="2" smooth="yes"/>
      <point x="310" y="21" smooth="yes"/>
      <point x="301" y="25" type="curve" smooth="yes"/>
      <point x="285" y="33" smooth="yes"/>
      <point x="281" y="26" smooth="yes"/>
      <point x="271" y="33" type="curve" smooth="yes"/>
      <point x="259" y="40" smooth="yes"/>
      <point x="260" y="57" smooth="yes"/>
      <point x="251" y="64" type="curve" smooth="yes"/>
      <point x="243" y="71" smooth="yes"/>
      <point x="232" y="69" smooth="yes"/>
      <point x="226" y="79" type="curve" smooth="yes"/>
      <point x="219" y="91" smooth="yes"/>
      <point x="223" y="99" smooth="yes"/>
      <point x="216" y="111" type="curve" smooth="yes"/>
      <point x="211" y="119" smooth="yes"/>
      <point x="193" y="125" smooth="yes"/>
      <point x="193" y="142" type="curve" smooth="yes"/>
      <point x="193" y="147" smooth="yes"/>
      <point x="195" y="152" smooth="yes"/>
      <point x="195" y="157" type="curve" smooth="yes"/>
      <point x="195" y="170" smooth="yes"/>
      <point x="180" y="180" smooth="yes"/>
      <point x="180" y="193" type="curve" smooth="yes"/>
      <point x="180" y="203" smooth="yes"/>
      <point x="187" y="213" smooth="yes"/>
      <point x="187" y="223" type="curve" smooth="yes"/>
      <point x="187" y="234" smooth="yes"/>
      <point x="180" y="240" smooth="yes"/>
      <point x="180" y="250" type="curve" smooth="yes"/>
      <point x="180" y="265" smooth="yes"/>
      <point x="195" y="277" smooth="yes"/>
      <point x="195" y="292" type="curve" smooth="yes"/>
      <point x="195" y="296" smooth="yes"/>
      <point x="194" y="301" smooth="yes"/>
      <point x="194" y="306" type="curve" smooth="yes"/>
      <point x="194" y="323" smooth="yes"/>
      <point x="211" y="327" smooth="yes"/>
      <point x="218" y="338" type="curve" smooth="yes"/>
      <point x="222" y="346" smooth="yes"/>
      <point x="220" y="359" smooth="yes"/>
      <point x="225" y="366" type="curve" smooth="yes"/>
      <point x="231" y="374" smooth="yes"/>
      <point x="244" y="374" smooth="yes"/>
      <point x="251" y="382" type="curve" smooth="yes"/>
      <point x="258" y="389" smooth="yes"/>
      <point x="260" y="402" smooth="yes"/>
      <point x="268" y="409" type="curve" smooth="yes"/>
      <point x="276" y="416" smooth="yes"/>
      <point x="291" y="414" smooth="yes"/>
      <point x="301" y="419" type="curve" smooth="yes"/>
      <point x="312" y="425" smooth="yes"/>
      <point x="316" y="444" smooth="yes"/>
      <point x="333" y="444" type="curve" smooth="yes"/>
      <point x="338" y="444" smooth="yes"/>
      <point x="343" y="443" smooth="yes"/>
      <point x="348" y="443" type="curve" smooth="yes"/>
      <point x="365" y="443" smooth="yes"/>
      <point x="372" y="458" smooth="yes"/>
      <point x="386" y="458" type="curve" smooth="yes" name="hr07"/>
      <point x="395" y="458" smooth="yes"/>
      <point x="406" y="450" smooth="yes"/>
      <point x="415" y="450" type="curve" smooth="yes"/>
      <point x="424" y="450" smooth="yes"/>
      <point x="435" y="458" smooth="yes"/>
      <point x="445" y="458" type="curve" smooth="yes"/>
      <point x="462" y="458" smooth="yes"/>
      <point x="464" y="442" smooth="yes"/>
      <point x="481" y="442" type="curve" smooth="yes"/>
      <point x="487" y="442" smooth="yes"/>
      <point x="493" y="444" smooth="yes"/>
      <point x="499" y="444" type="curve" smooth="yes" name="hr08"/>
      <point x="517" y="444" smooth="yes"/>
      <point x="518" y="427" smooth="yes"/>
      <point x="530" y="420" type="curve" smooth="yes"/>
      <point x="541" y="414"/>
      <point x="551" y="418"/>
      <point x="560" y="410" type="curve"/>
      <point x="569" y="404" smooth="yes"/>
      <point x="567" y="392" smooth="yes"/>
      <point x="575" y="385" type="curve" smooth="yes"/>
      <point x="584" y="376" smooth="yes"/>
      <point x="601" y="373" smooth="yes"/>
      <point x="608" y="362" type="curve" smooth="yes"/>
      <point x="612" y="355" smooth="yes"/>
      <point x="609" y="341" smooth="yes"/>
      <point x="613" y="334" type="curve" smooth="yes"/>
      <point x="620" y="321" smooth="yes"/>
      <point x="636" y="320" smooth="yes"/>
      <point x="636" y="301" type="curve" smooth="yes"/>
      <point x="636" y="296" smooth="yes"/>
      <point x="635" y="291" smooth="yes"/>
      <point x="635" y="286" type="curve" smooth="yes"/>
      <point x="635" y="270" smooth="yes"/>
      <point x="652" y="260" smooth="yes"/>
      <point x="652" y="246" type="curve" smooth="yes"/>
      <point x="652" y="238" smooth="yes"/>
      <point x="644" y="229" smooth="yes"/>
      <point x="644" y="220" type="curve" smooth="yes"/>
      <point x="644" y="211"/>
      <point x="652" y="201"/>
      <point x="652" y="192" type="curve"/>
      <point x="649" y="179" smooth="yes"/>
      <point x="635" y="176" smooth="yes"/>
      <point x="635" y="159" type="curve" smooth="yes"/>
      <point x="635" y="154" smooth="yes"/>
      <point x="636" y="148" smooth="yes"/>
      <point x="636" y="141" type="curve" smooth="yes"/>
      <point x="636" y="120" smooth="yes"/>
      <point x="622" y="122" smooth="yes"/>
      <point x="615" y="110" type="curve" smooth="yes"/>
      <point x="609" y="100" smooth="yes"/>
      <point x="609" y="85" smooth="yes"/>
      <point x="603" y="76" type="curve" smooth="yes"/>
      <point x="597" y="68"/>
      <point x="586" y="68"/>
      <point x="580" y="61" type="curve"/>
      <point x="572" y="54" smooth="yes"/>
      <point x="569" y="40" smooth="yes"/>
      <point x="560" y="34" type="curve" smooth="yes"/>
      <point x="552" y="28" smooth="yes"/>
      <point x="537" y="27" smooth="yes"/>
      <point x="528" y="22" type="curve" smooth="yes"/>
      <point x="517" y="17" smooth="yes"/>
      <point x="517" y="3" smooth="yes"/>
      <point x="499" y="3" type="curve" smooth="yes"/>
      <point x="494" y="3" smooth="yes"/>
      <point x="490" y="4" smooth="yes"/>
      <point x="485" y="4" type="curve" smooth="yes"/>
      <point x="482" y="4" smooth="yes"/>
      <point x="480" y="4" smooth="yes"/>
    </contour>
    <contour>
      <point x="416" y="375" type="curve" smooth="yes"/>
      <point x="331" y="375" smooth="yes"/>
      <point x="263" y="307" smooth="yes"/>
      <point x="263" y="222" type="curve" smooth="yes"/>
      <point x="263" y="138" smooth="yes"/>
      <point x="331" y="69" smooth="yes"/>
      <point x="416" y="69" type="curve" smooth="yes"/>
      <point x="500" y="69" smooth="yes"/>
      <point x="569" y="138" smooth="yes"/>
      <point x="569" y="222" type="curve" smooth="yes"/>
      <point x="569" y="307" smooth="yes"/>
      <point x="500" y="375" smooth="yes"/>
    </contour>
    <contour>
      <point x="454" y="263" type="line"/>
      <point x="454" y="105" type="line"/>
      <point x="378" y="105" type="line"/>
      <point x="378" y="263" type="line"/>
      <point x="329" y="263" type="line"/>
      <point x="329" y="324" type="line"/>
      <point x="501" y="324" type="line"/>
      <point x="501" y="263" type="line"/>
    </contour>
  </outline>
</glyph>
<glyph name="barra" format="1">
  <advance width="382"/>
  <outline>
    <contour>
      <point x="312" y="317" type="line" name="hr00"/>
      <point x="312" y="367" type="line"/>
      <point x="70" y="367" type="line"/>
      <point x="70" y="317" type="line"/>
    </contour>
  </outline>
</glyph>
<glyph name="commaaccent" format="1">
  <advance width="163"/>
  <outline>
    <contour>
      <point x="42" y="-132" type="line" name="hr00"/>
      <point x="64" y="-132" type="line"/>
      <point x="52" y="-216" type="line"/>
      <point x="82" y="-222" type="line"/>
      <point x="121" y="-128" type="line"/>
      <point x="121" y="-50" type="line"/>
      <point x="42" y="-50" type="line"/>
    </contour>
  </outline>
</glyph>
<glyph name="f.alt" format="1">
  <advance width="216"/>
  <outline>
    <contour>
      <point x="62" y="0" type="line" name="hr00"/>
      <point x="138" y="0" type="line"/>
      <point x="138" y="478" type="line"/>
      <point x="201" y="478" type="line"/>
      <point x="201" y="540" type="line"/>
      <point x="138" y="540" type="line"/>
      <point x="138" y="603" type="line" smooth="yes"/>
      <point x="138" y="661" smooth="yes"/>
      <point x="160" y="688" smooth="yes"/>
      <point x="209" y="688" type="curve" smooth="yes"/>
      <point x="235" y="688"/>
      <point x="266" y="678"/>
      <point x="294" y="662" type="curve"/>
      <point x="320" y="724" type="line"/>
      <point x="276" y="745" smooth="yes"/>
      <point x="235" y="755" smooth="yes"/>
      <point x="199" y="755" type="curve" smooth="yes"/>
      <point x="108" y="755" smooth="yes"/>
      <point x="62" y="699" smooth="yes"/>
      <point x="62" y="588" type="curve" smooth="yes"/>
      <point x="62" y="540" type="line"/>
      <point x="19" y="540" type="line"/>
      <point x="19" y="478" type="line"/>
      <point x="62" y="478" type="line"/>
    </contour>
  </outline>
</glyph>
